{"glyphs":{"0":{"ha":688,"x_min":26,"x_max":406,"o":"m 149 842 l 149 200 q 221 158 177 196 q 293 72 265 119 l 293 757 q 241 785 277 758 q 205 842 205 810 l 205 843 q 204 829 204 836 q 269 744 204 785 q 192 785 222 755 q 149 842 162 815 m 215 -43 q 216 -41 216 -41 q 205 -20 212 -31 q 154 42 183 19 q 92 69 125 65 q 81 70 87 70 q 33 54 55 70 q 49 106 47 68 l 49 808 q 48 813 49 810 q 43 812 46 813 l 26 829 q 78 857 50 839 q 182 951 136 892 q 196 974 189 962 q 205 991 200 980 q 214 1011 210 999 l 218 991 q 214 981 215 985 q 281 904 229 948 q 388 859 334 859 q 406 860 397 859 q 385 825 390 849 q 381 771 381 802 l 381 766 l 380 149 l 380 120 q 392 124 386 122 l 391 98 q 353 76 374 90 q 296 31 326 57 q 248 -18 267 5 q 220 -54 233 -35 l 215 -43 z "},"1":{"ha":688,"x_min":106,"x_max":413,"o":"m 219 789 q 330 869 296 797 l 332 80 q 351 50 342 56 q 363 47 356 47 q 377 50 369 47 l 413 68 q 377 33 393 52 q 349 -3 361 14 q 333 -35 338 -20 q 328 -65 328 -51 q 280 -21 317 -35 q 213 -5 244 -7 q 172 -3 182 -3 q 156 -5 164 -3 q 222 37 207 14 l 222 736 q 179 718 201 718 q 165 720 172 718 q 106 771 136 728 q 183 794 146 775 q 271 850 220 813 q 347 925 322 887 q 385 1014 372 962 q 354 917 385 970 q 219 789 324 863 z "},"2":{"ha":688,"x_min":-3,"x_max":505,"o":"m 207 468 q 225 501 207 468 q 268 573 243 534 q 310 656 293 612 l 310 802 q 264 850 285 825 q 222 922 243 876 q 264 818 233 865 q 220 746 256 785 q 133 672 184 707 q 37 820 99 787 q 118 843 84 820 q 180 906 152 865 q 220 996 209 946 q 300 867 235 942 q 429 793 364 793 l 432 793 q 407 659 413 765 q 425 529 410 566 q 380 513 396 529 q 302 409 364 496 q 192 234 241 321 q 134 90 143 146 q 129 44 129 64 q 135 5 129 20 q 168 129 135 90 q 243 171 200 168 l 252 171 q 316 149 289 171 q 388 31 328 68 q 331 125 341 79 q 323 189 323 157 q 325 218 323 203 q 326 252 325 234 l 326 246 q 380 84 326 163 q 460 -46 437 2 q 505 -153 484 -94 q 429 -69 471 -104 q 356 -18 387 -34 q 303 2 325 -3 q 265 5 286 5 l 256 5 q 204 -32 231 4 q 168 -132 177 -68 q -3 134 74 69 q 100 280 29 158 q 207 468 170 401 z "},"3":{"ha":688,"x_min":-20,"x_max":465,"o":"m 238 486 q 294 546 267 507 q 336 656 326 591 l 336 802 q 288 850 310 825 q 244 922 265 876 q 288 818 254 865 q 242 746 280 785 q 149 672 203 707 q 48 820 113 787 q 133 843 98 820 q 199 906 169 865 q 241 996 230 946 q 326 867 258 942 q 462 793 393 793 l 465 793 q 439 659 444 765 q 458 529 442 566 q 410 511 434 529 q 448 475 426 480 q 435 406 437 454 l 435 180 q 455 140 435 153 q 397 111 435 140 q 330 38 359 82 q 286 -83 300 -5 q 276 -23 286 -54 q 222 39 265 9 q 157 60 190 60 q 135 58 146 60 q 63 27 91 48 q -20 -73 35 6 q 56 64 1 -17 q 133 189 111 144 q 158 313 154 233 q 159 277 159 294 q 154 214 159 243 q 97 102 145 168 q 169 214 134 125 q 193 214 182 214 q 266 197 242 214 q 307 162 294 176 q 342 119 321 149 l 341 390 q 300 452 332 429 q 210 481 269 475 q 238 486 226 482 z "},"4":{"ha":688,"x_min":71,"x_max":485,"o":"m 429 705 l 429 180 q 448 140 429 153 q 393 111 428 140 q 320 6 358 82 q 289 -118 289 -56 q 290 -144 289 -132 q 274 -83 281 -136 q 271 -47 271 -66 q 282 45 271 -6 q 321 147 297 121 l 321 142 q 336 119 321 119 q 342 119 338 119 l 341 574 q 249 410 277 469 q 213 310 221 351 q 181 368 201 346 q 133 402 162 391 q 77 414 104 414 q 96 611 96 461 l 96 628 q 71 827 95 791 l 73 827 q 195 898 134 827 q 186 836 186 865 l 186 534 q 243 480 220 521 q 290 551 265 510 q 341 661 314 593 l 341 718 l 339 1009 q 366 987 352 997 q 441 966 397 966 q 431 960 436 963 q 429 926 429 945 l 429 774 q 449 808 439 790 q 485 880 467 837 l 484 802 q 429 705 450 746 z "},"5":{"ha":688,"x_min":-14,"x_max":446,"o":"m 57 827 l 59 827 q 184 897 122 827 q 262 1019 247 968 q 300 933 273 972 q 361 873 328 895 q 439 852 393 852 q 347 711 378 821 q 261 781 296 744 q 220 850 226 819 q 259 948 249 895 q 216 875 239 905 q 175 836 194 844 l 175 534 q 234 480 211 521 q 277 546 257 510 q 307 608 297 582 q 312 637 312 623 q 308 661 312 649 q 362 609 338 644 q 401 540 386 573 q 438 502 417 507 q 426 433 427 481 l 426 180 q 446 140 426 153 q 389 111 426 140 q 325 38 353 82 q 283 -83 296 -5 q 272 -23 283 -54 q 220 39 262 9 q 158 60 189 60 q 137 58 147 60 q 66 27 94 48 q -14 -73 39 6 q 60 64 6 -17 q 134 189 113 144 q 159 313 155 233 q 160 277 160 294 q 155 214 160 243 q 100 102 146 168 q 169 214 135 125 q 193 214 182 214 q 262 197 240 214 q 303 162 290 176 q 336 119 316 149 l 336 390 q 316 435 328 417 q 286 464 304 452 q 269 469 278 469 q 250 464 260 469 l 268 452 q 233 390 254 429 q 203 310 212 351 q 171 368 191 346 q 121 402 151 391 q 63 414 92 414 q 83 611 83 461 l 83 628 q 57 827 81 791 z "},"6":{"ha":688,"x_min":-20,"x_max":426,"o":"m 165 245 q 180 214 170 214 q 248 197 227 214 q 287 162 275 176 q 319 119 300 149 l 319 390 q 300 435 311 417 q 271 464 288 452 q 254 469 262 469 q 236 464 245 469 q 163 340 165 394 l 163 245 q 165 245 163 245 m 77 104 l 68 101 q 73 176 73 144 l 73 722 q 48 827 72 791 l 50 827 q 171 897 111 827 q 248 1019 233 968 q 284 933 258 972 q 343 873 311 895 q 419 852 375 852 q 330 711 361 821 q 247 781 281 744 q 206 850 212 819 q 245 948 235 895 q 203 875 225 905 q 163 836 182 844 l 163 534 q 220 480 198 521 q 262 546 242 510 q 291 608 281 582 q 296 637 296 623 q 292 661 296 649 q 344 609 321 644 q 383 540 368 573 q 419 502 398 507 q 407 433 408 481 l 407 180 q 426 140 407 153 q 371 111 406 140 q 308 38 336 82 q 267 -83 281 -5 q 257 -23 267 -54 q 208 39 248 9 q 146 60 177 60 q 125 58 136 60 q 58 27 84 48 q -20 -73 31 6 q 52 64 -1 -17 q 77 104 65 85 z "},"7":{"ha":688,"x_min":-29,"x_max":465,"o":"m 179 372 q 168 373 179 372 q 135 374 157 374 q 86 371 113 374 q 20 347 49 367 q 98 420 50 374 q 149 493 146 466 q 186 507 163 502 l 248 507 q 279 559 264 534 q 328 656 312 612 l 328 802 q 284 850 304 825 q 245 922 264 876 q 284 818 254 865 q 210 743 277 785 q 62 666 142 701 q -29 814 30 781 q 61 833 15 814 q 169 900 106 853 q 242 996 231 946 q 319 867 257 942 q 441 793 380 793 l 445 793 q 420 659 426 765 q 438 529 424 566 q 382 499 410 529 q 378 494 380 496 q 465 458 429 481 l 462 458 q 420 441 444 458 q 371 382 395 423 q 338 298 347 342 q 292 342 333 325 l 276 349 q 214 244 238 283 q 163 113 181 193 q 150 10 150 54 q 151 -17 150 -4 q 184 28 172 14 q 224 65 197 42 q 195 -100 195 -34 q 197 -127 195 -115 q 204 -230 204 -200 q 163 -102 191 -148 q 99 -25 135 -56 q 43 5 63 5 q 62 46 62 18 q 73 176 65 103 q 75 226 75 205 q 68 271 75 258 q 127 325 90 279 q 147 349 137 336 q 167 353 156 351 q 200 356 178 355 l 212 356 q 259 355 231 356 q 214 368 226 365 q 179 372 201 370 z "},"8":{"ha":688,"x_min":-26,"x_max":452,"o":"m 252 575 q 330 655 296 644 l 330 719 q 254 781 286 748 q 212 850 218 819 q 252 948 241 895 q 209 875 231 905 q 166 836 186 844 l 166 667 q 252 575 199 655 m 422 180 q 442 140 422 153 q 385 111 422 140 q 319 38 348 82 q 276 -83 290 -5 q 266 -23 276 -54 q 213 39 255 9 q 149 60 181 60 q 127 58 138 60 q 56 27 83 48 q -26 -73 28 6 q 49 64 -6 -17 q 70 96 60 81 l 70 342 q 57 412 68 391 q 95 450 79 417 q 136 519 111 483 q 138 522 136 520 q 111 535 125 530 q 52 547 81 547 q 71 705 69 588 l 72 705 l 72 750 q 45 827 72 807 l 47 827 q 175 897 112 827 q 255 1019 239 968 q 294 933 266 972 q 356 873 322 895 q 420 858 380 858 q 452 860 435 858 q 433 849 442 855 q 425 792 425 832 l 425 614 q 444 535 425 558 q 386 524 416 535 q 372 517 378 521 q 397 472 386 494 q 435 433 413 439 q 422 364 424 412 l 422 180 m 161 214 q 184 214 174 214 q 256 197 233 214 q 297 162 283 176 q 331 119 310 149 l 330 279 l 330 321 q 310 366 322 349 q 285 398 298 384 q 250 425 274 410 q 208 381 221 399 q 182 345 195 362 q 162 300 170 327 l 161 214 z "},"9":{"ha":688,"x_min":-20,"x_max":478,"o":"m 359 718 q 278 781 312 748 q 233 850 240 819 q 276 948 265 895 q 230 875 254 905 q 184 836 205 844 l 184 534 q 248 480 224 521 q 301 551 273 510 q 359 661 328 593 l 359 718 m 460 846 q 457 812 458 831 l 457 747 l 460 749 q 457 714 458 734 l 457 180 q 478 140 457 153 q 417 111 456 140 q 347 38 378 82 q 301 -83 316 -5 q 290 -23 301 -54 q 234 39 279 9 q 166 60 200 60 q 143 58 155 60 q 67 27 97 48 q -20 -73 38 6 q 60 64 2 -17 q 140 189 118 144 q 167 313 163 233 q 169 277 169 294 q 163 214 169 243 q 103 102 154 168 q 178 214 142 125 q 204 214 192 214 q 279 197 256 214 q 323 162 309 176 q 359 119 338 149 l 359 574 q 256 410 287 469 q 215 310 224 351 q 180 368 202 346 q 126 402 158 391 q 63 414 94 414 q 85 611 85 461 l 85 628 q 56 827 83 791 l 59 827 q 194 897 127 827 q 279 1019 263 968 q 321 933 291 972 q 386 873 351 895 q 471 852 422 852 q 460 846 465 849 z "}," ":{"ha":345,"x_min":0,"x_max":0,"o":""}," ":{"ha":345,"x_min":0,"x_max":0,"o":""},"!":{"ha":456,"x_min":108,"x_max":352,"o":"m 151 113 l 207 170 q 227 180 217 180 q 248 169 235 180 l 302 111 q 310 91 310 100 q 300 70 310 81 l 246 10 q 227 -3 233 -3 q 207 6 216 -3 l 147 75 q 140 92 140 83 q 151 113 140 102 m 167 960 q 144 1021 156 1004 q 108 1045 132 1038 q 155 1064 139 1050 q 191 1104 171 1077 q 220 1162 211 1131 q 248 1104 228 1128 q 285 1071 269 1081 q 352 1061 302 1061 q 284 994 307 1048 l 250 355 q 342 139 243 256 q 247 235 269 218 q 210 247 224 251 q 172 213 187 241 q 183 246 172 231 q 202 355 195 261 l 167 960 z "},"\"":{"ha":456,"x_min":68,"x_max":390,"o":"m 134 751 l 113 751 l 71 995 q 68 1017 68 1010 q 82 1056 68 1042 q 123 1069 96 1069 q 164 1056 149 1069 q 178 1018 178 1043 q 176 995 178 1013 l 134 751 m 345 751 l 325 751 l 283 995 q 280 1017 280 1010 q 294 1056 280 1042 q 334 1069 308 1069 q 375 1056 361 1069 q 390 1018 390 1043 q 387 995 390 1013 l 345 751 z "},"#":{"ha":906,"x_min":79,"x_max":827,"o":"m 404 583 l 347 386 l 511 386 l 569 583 l 404 583 m 456 972 l 519 972 l 424 649 l 588 649 l 684 972 l 747 972 l 651 649 l 827 649 l 807 583 l 631 583 l 575 387 l 764 387 l 744 320 l 554 320 l 459 0 l 397 0 l 491 320 l 328 320 l 232 0 l 170 0 l 264 320 l 79 320 l 100 387 l 283 387 l 342 583 l 142 583 l 161 649 l 361 649 l 456 972 z "},"$":{"ha":488,"x_min":3,"x_max":485,"o":"m 288 278 l 299 269 q 288 243 294 258 l 288 -64 q 293 -68 290 -66 q 335 -115 321 -97 q 370 -172 349 -133 l 370 186 q 349 246 361 222 q 318 284 336 269 q 299 292 309 292 q 288 289 294 292 l 288 278 m 248 792 q 248 795 248 793 q 290 925 279 854 q 245 828 268 869 q 201 776 222 788 l 201 377 q 248 334 228 365 l 248 792 m 248 916 l 248 1140 l 288 1140 l 288 1002 q 292 1019 290 1010 q 333 906 304 956 q 396 826 361 855 q 477 798 431 798 q 381 612 415 756 q 292 705 328 655 q 288 710 290 707 l 288 350 q 309 393 298 370 q 339 475 330 440 q 345 513 345 494 q 340 546 345 530 q 397 476 372 523 q 438 385 422 429 q 477 335 455 342 q 465 243 466 307 l 465 -92 q 485 -144 465 -127 q 426 -182 464 -144 q 358 -278 387 -220 q 314 -439 328 -336 q 303 -359 314 -401 q 288 -323 298 -341 l 288 -566 l 248 -566 l 248 -277 q 183 -250 216 -250 q 161 -252 172 -250 q 87 -294 116 -266 q 3 -426 59 -321 q 80 -245 24 -351 q 158 -79 136 -138 q 184 84 180 -20 q 186 38 186 60 q 180 -47 186 -7 q 122 -195 172 -106 q 195 -47 159 -164 q 220 -45 208 -45 q 248 -47 235 -45 l 248 151 q 231 81 237 117 q 196 158 218 128 q 144 203 175 188 q 84 218 114 218 q 104 479 104 281 l 104 501 q 77 764 103 718 l 79 764 q 210 857 146 764 q 248 916 232 888 z "},"%":{"ha":1092,"x_min":42,"x_max":1050,"o":"m 304 989 q 434 956 371 989 q 532 862 496 923 q 567 732 567 800 q 533 605 567 665 q 436 510 498 544 q 304 475 373 475 q 174 510 237 475 q 77 605 111 544 q 42 732 42 665 q 77 862 42 800 q 175 956 113 923 q 304 989 238 989 m 140 723 q 177 605 149 661 q 250 521 206 550 q 327 494 288 494 q 336 494 332 494 q 414 530 378 496 q 463 623 449 564 q 472 698 472 659 q 469 742 472 720 q 431 861 461 805 q 359 945 401 917 q 281 971 319 971 l 273 971 q 197 936 232 969 q 147 844 161 903 q 137 765 137 805 q 140 723 137 744 m 201 -20 l 839 971 l 896 971 l 260 -20 l 201 -20 m 787 500 q 916 467 853 500 q 1015 372 979 433 q 1050 243 1050 311 q 1016 115 1050 176 q 919 20 981 54 q 787 -14 856 -14 q 656 20 719 -14 q 559 115 594 54 q 525 243 525 176 q 560 372 525 311 q 658 467 595 433 q 787 500 721 500 m 623 233 q 660 116 631 171 q 732 31 689 60 q 811 5 772 5 l 819 5 q 897 41 861 7 q 946 133 932 75 q 955 208 955 170 q 952 252 955 230 q 914 371 944 315 q 842 456 884 427 q 764 481 802 481 l 756 481 q 680 446 715 479 q 630 355 644 413 q 620 275 620 315 q 623 233 620 254 z "},"&":{"ha":1141,"x_min":103,"x_max":1124,"o":"m 713 133 l 337 596 q 215 538 257 596 q 174 399 174 479 q 198 276 174 338 q 267 165 222 215 q 378 79 315 109 q 510 49 441 49 q 625 72 570 49 q 713 133 680 94 m 945 0 q 851 17 907 0 q 738 106 795 34 q 619 23 692 56 q 456 -11 546 -11 q 202 91 300 -11 q 103 353 103 193 q 155 533 103 462 q 307 636 206 605 q 265 715 279 677 q 251 790 251 752 q 303 924 251 861 q 427 986 355 986 q 523 960 473 986 q 535 956 529 956 q 561 986 551 956 l 592 986 l 657 795 l 626 795 q 521 916 589 886 q 425 941 463 941 q 353 910 381 941 q 326 831 326 880 q 395 650 326 742 l 755 195 q 837 361 821 294 q 848 449 848 414 q 806 515 848 515 l 745 515 l 745 549 l 1046 549 l 1046 515 l 985 515 q 886 361 920 515 q 781 163 865 271 q 949 71 855 71 l 960 71 q 1090 157 1057 82 l 1124 157 l 1054 0 l 945 0 z "},"'":{"ha":235,"x_min":68,"x_max":178,"o":"m 134 751 l 113 751 l 71 995 q 68 1017 68 1010 q 82 1056 68 1042 q 123 1069 96 1069 q 164 1056 149 1069 q 178 1018 178 1043 q 176 995 178 1013 l 134 751 z "},"(":{"ha":514,"x_min":171,"x_max":475,"o":"m 171 408 q 238 767 172 595 q 420 1067 304 939 l 475 1067 q 319 770 358 903 q 280 415 280 639 l 280 400 q 319 46 280 176 q 475 -251 358 -87 l 420 -251 q 238 48 304 -123 q 171 408 172 220 z "},")":{"ha":514,"x_min":39,"x_max":343,"o":"m 94 -251 l 39 -251 q 195 46 156 -87 q 234 400 234 176 l 234 415 q 195 770 234 639 q 39 1067 156 903 l 94 1067 q 276 767 210 939 q 343 408 342 595 q 276 48 342 220 q 94 -251 210 -123 z "},"*":{"ha":694,"x_min":149,"x_max":517,"o":"m 297 892 q 272 931 283 910 q 260 977 260 952 l 260 978 q 273 1017 260 1002 q 302 1046 287 1034 q 326 1074 317 1059 q 363 1047 345 1059 q 380 1022 380 1038 q 379 1019 380 1021 q 345 969 378 1002 q 308 920 312 935 q 307 910 307 915 q 312 890 307 900 q 325 872 317 880 l 324 869 q 297 892 307 878 m 332 876 l 332 877 q 338 909 332 894 q 359 950 347 930 q 393 983 372 970 l 394 984 q 425 994 410 994 q 435 992 430 994 q 474 982 456 989 q 511 975 492 975 q 505 930 506 951 q 492 903 505 910 q 490 901 491 901 q 473 899 484 899 q 429 906 456 899 q 378 915 395 915 q 368 913 372 915 q 358 910 363 912 q 343 895 350 905 q 335 876 338 886 l 332 876 m 369 838 q 394 800 382 821 q 406 754 405 779 l 406 753 q 393 713 406 729 q 364 684 379 697 q 339 656 349 671 q 303 684 321 672 q 286 709 286 693 q 287 711 286 710 q 321 762 288 728 q 358 810 354 795 q 359 821 359 816 q 354 841 359 831 q 341 858 349 850 l 342 861 q 369 838 359 851 m 328 821 q 307 779 319 800 q 273 746 294 759 l 273 745 q 240 736 256 736 q 231 736 236 736 q 192 747 210 741 q 156 755 174 753 q 161 800 160 779 q 174 827 161 819 q 177 828 175 827 q 193 831 182 831 q 237 823 209 831 q 288 814 271 814 q 298 816 294 814 q 308 820 303 817 q 323 834 316 825 q 331 853 328 843 l 334 852 q 328 821 334 836 m 374 883 q 411 885 392 885 l 421 885 q 466 873 445 884 l 467 872 q 494 841 488 860 q 506 802 502 821 q 517 766 509 783 q 475 749 494 758 q 457 743 466 743 q 446 746 451 743 q 444 748 444 747 q 417 803 429 758 q 393 859 404 848 q 385 865 389 863 q 365 871 376 871 l 361 871 q 343 869 352 871 l 342 871 q 374 883 357 881 m 324 859 q 292 848 309 850 q 254 845 274 845 l 246 845 q 201 857 222 846 l 199 858 q 172 889 178 870 q 161 929 165 909 q 149 964 157 948 q 191 982 172 972 q 209 987 201 987 q 221 984 216 987 q 223 982 222 983 q 250 927 237 972 q 273 871 262 882 q 281 865 277 867 q 302 859 290 860 l 307 859 q 323 861 315 859 l 324 859 z "},"+":{"ha":688,"x_min":59,"x_max":629,"o":"m 296 439 l 59 439 l 59 534 l 296 534 l 296 784 l 297 785 l 391 785 l 391 534 l 628 534 l 629 533 l 629 439 l 391 439 l 391 188 l 296 188 l 296 439 z "},",":{"ha":378,"x_min":92,"x_max":288,"o":"m 179 142 q 220 96 195 117 q 267 49 244 75 q 288 -16 288 23 l 288 -18 q 268 -93 287 -58 q 227 -157 250 -127 q 166 -202 205 -186 q 203 -161 190 -186 q 212 -127 212 -144 q 210 -111 212 -119 q 149 -31 203 -86 q 93 52 95 24 q 92 56 92 54 q 119 98 92 81 q 179 142 149 116 z "},"-":{"ha":454,"x_min":79,"x_max":376,"o":"m 106 277 q 79 296 79 277 l 79 353 q 106 372 79 372 l 348 372 q 376 353 376 372 l 376 296 q 349 277 376 277 l 106 277 z "},"­":{"ha":454,"x_min":79,"x_max":376,"o":"m 106 277 q 79 296 79 277 l 79 353 q 106 372 79 372 l 348 372 q 376 353 376 372 l 376 296 q 349 277 376 277 l 106 277 z "},".":{"ha":378,"x_min":92,"x_max":288,"o":"m 179 -44 q 119 0 149 -18 q 92 41 92 16 q 93 46 92 43 q 118 110 95 74 q 177 161 142 145 q 212 191 212 176 q 203 211 212 208 q 186 239 210 222 q 247 203 224 222 q 278 157 269 184 q 288 102 287 129 l 288 100 q 267 49 288 75 q 220 1 244 22 q 179 -44 195 -20 z "},"/":{"ha":386,"x_min":9,"x_max":430,"o":"m 63 -34 l 9 -34 l 376 972 l 430 972 l 63 -34 z "},":":{"ha":378,"x_min":87,"x_max":257,"o":"m 98 113 l 154 170 q 174 180 164 180 q 195 169 182 180 l 249 111 q 257 91 257 100 q 248 70 257 81 l 193 10 q 174 -3 180 -3 q 154 6 163 -3 l 94 75 q 87 92 87 83 q 98 113 87 102 m 98 583 l 154 640 q 174 650 164 650 q 195 639 182 650 l 249 581 q 257 561 257 570 q 248 540 257 551 l 193 480 q 174 467 180 467 q 154 476 163 467 l 94 545 q 87 562 87 553 q 98 583 87 572 z "},";":{"ha":378,"x_min":87,"x_max":288,"o":"m 98 583 l 154 640 q 174 649 164 649 q 195 638 182 649 l 249 580 q 257 560 257 569 q 248 539 257 550 l 193 479 q 174 466 180 466 q 154 475 163 466 l 94 544 q 87 562 87 553 q 98 583 87 572 m 179 142 q 220 96 195 117 q 267 49 244 75 q 288 -16 288 23 l 288 -18 q 268 -93 287 -58 q 227 -157 250 -127 q 166 -202 205 -186 q 203 -161 190 -186 q 212 -127 212 -144 q 210 -111 212 -119 q 149 -31 203 -86 q 93 52 95 24 q 92 56 92 54 q 119 98 92 81 q 179 142 149 116 z "},";":{"ha":378,"x_min":87,"x_max":288,"o":"m 98 583 l 154 640 q 174 649 164 649 q 195 638 182 649 l 249 580 q 257 560 257 569 q 248 539 257 550 l 193 479 q 174 466 180 466 q 154 475 163 466 l 94 544 q 87 562 87 553 q 98 583 87 572 m 179 142 q 220 96 195 117 q 267 49 244 75 q 288 -16 288 23 l 288 -18 q 268 -93 287 -58 q 227 -157 250 -127 q 166 -202 205 -186 q 203 -161 190 -186 q 212 -127 212 -144 q 210 -111 212 -119 q 149 -31 203 -86 q 93 52 95 24 q 92 56 92 54 q 119 98 92 81 q 179 142 149 116 z "},"<":{"ha":688,"x_min":59,"x_max":629,"o":"m 629 728 l 205 485 l 629 244 l 629 131 l 59 457 l 59 513 l 629 842 l 629 728 z "},"=":{"ha":688,"x_min":59,"x_max":629,"o":"m 59 428 l 629 428 l 629 333 l 59 333 l 59 428 m 59 640 l 629 640 l 629 545 l 59 545 l 59 640 z "},">":{"ha":688,"x_min":59,"x_max":629,"o":"m 59 842 l 629 513 l 629 457 l 59 131 l 59 244 l 483 485 l 59 728 l 59 842 z "},"?":{"ha":688,"x_min":69,"x_max":564,"o":"m 169 515 q 167 519 168 517 q 225 574 188 528 q 245 598 235 585 q 266 602 254 600 q 298 605 277 604 l 310 605 q 357 604 330 605 q 312 616 324 614 q 277 621 300 619 q 233 623 255 623 q 184 620 211 623 q 119 596 147 616 q 196 669 149 623 q 248 742 244 715 q 285 755 261 751 l 346 756 q 377 808 363 783 q 426 905 410 861 l 426 1051 q 382 1099 402 1074 q 343 1171 362 1125 q 382 1067 353 1114 q 308 992 376 1034 q 160 915 240 949 q 69 1063 128 1029 q 159 1082 113 1063 q 267 1148 205 1102 q 340 1245 330 1195 q 418 1116 355 1191 q 540 1042 478 1042 l 543 1042 q 519 908 524 1014 q 536 778 522 814 q 481 748 509 778 q 476 743 478 745 q 564 707 528 730 l 560 707 q 519 690 542 707 q 469 631 493 672 q 437 547 446 591 q 390 591 431 574 l 374 598 q 312 493 336 532 q 270 394 286 453 l 169 515 m 271 -44 q 211 0 240 -18 q 183 41 183 16 q 184 46 183 43 q 240 129 186 74 q 301 209 294 184 q 303 225 303 217 q 294 258 303 241 q 258 300 281 283 q 319 254 296 283 q 360 191 341 225 q 380 116 378 156 l 380 114 q 358 49 380 75 q 311 1 336 22 q 271 -44 287 -20 z "},"@":{"ha":892,"x_min":-33,"x_max":911,"o":"m 566 281 q 442 370 500 341 q 372 392 395 392 q 361 391 366 392 l 363 71 q 396 35 379 60 q 451 75 432 62 q 491 96 471 87 l 492 321 q 566 281 518 317 m 629 -81 q 614 -47 625 -61 q 556 -6 599 -28 q 493 62 513 16 q 439 31 463 52 q 398 -10 415 11 q 374 -52 382 -31 q 359 -100 366 -73 q 329 -40 349 -68 q 276 7 309 -12 q 189 29 244 26 q 230 63 230 37 l 230 256 q 215 274 223 273 q 193 275 208 275 q 262 320 220 286 q 357 433 303 353 q 439 401 408 417 q 493 367 470 385 l 493 533 q 430 556 454 538 q 391 605 406 574 q 333 547 364 566 q 269 517 302 528 q 199 503 237 507 q 321 562 277 526 q 397 653 366 598 q 443 749 428 707 q 491 669 463 699 q 556 617 519 638 q 646 593 593 597 q 625 569 629 581 q 621 530 621 557 l 621 138 q 638 81 623 96 q 668 61 654 67 q 697 58 682 56 q 747 93 720 85 l 748 726 q 645 755 696 737 q 525 812 595 772 q 383 927 455 852 q 276 839 333 874 q 140 774 218 804 l 140 -71 q 180 -142 136 -111 q 283 -172 225 -174 q 220 -231 242 -195 q 193 -300 197 -267 q 283 -189 227 -223 q 430 -145 340 -155 q 600 -162 519 -136 q 750 -257 682 -189 q 870 -467 818 -326 q 689 -281 776 -328 q 553 -228 603 -235 q 437 -223 504 -220 q 288 -257 370 -226 q 181 -322 205 -288 q 146 -264 178 -298 q 62 -200 115 -230 q -22 -167 9 -170 q 6 -156 -12 -167 q 40 -119 24 -145 q 59 -59 56 -94 l 59 670 q 32 738 60 711 q -33 774 4 765 q 112 799 28 774 q 261 862 197 824 q 365 944 326 900 q 441 1063 404 989 q 499 961 462 991 q 599 896 536 931 q 753 838 662 861 q 900 814 844 814 q 860 772 877 798 q 844 703 844 746 l 844 355 q 846 216 842 256 q 862 145 850 176 q 911 93 873 114 q 833 82 870 94 q 771 60 796 71 q 709 18 747 50 q 653 -46 671 -14 q 631 -93 634 -79 q 629 -81 631 -87 z "},"A":{"ha":500,"x_min":3,"x_max":475,"o":"m 104 -338 l 97 -338 q 48 -387 61 -342 q 41 -443 41 -412 q 46 -504 41 -471 q 96 -618 58 -576 q 175 -669 135 -660 q 194 -672 184 -672 q 257 -648 224 -672 q 332 -562 299 -617 q 384 -363 366 -507 q 344 -627 371 -525 q 264 -764 317 -729 q 210 -781 238 -781 q 153 -764 182 -781 q 68 -653 95 -731 q 33 -501 41 -576 q 28 -420 28 -458 q 31 -364 28 -391 q 53 -254 37 -301 q 98 -173 68 -207 q 141 -153 117 -153 q 175 -164 155 -153 q 219 -201 195 -176 q 185 -290 200 -235 q 172 -392 172 -338 l 172 -406 q 145 -354 155 -371 q 104 -338 136 -338 m 399 747 l 398 156 l 399 -148 q 475 -414 399 -288 q 391 -319 422 -345 q 336 -293 359 -294 l 331 -293 q 290 -300 310 -293 q 252 -348 268 -309 q 264 -301 252 -323 q 283 -148 275 -280 l 283 351 l 149 351 l 149 -109 q 81 -153 115 -111 q 33 -259 48 -196 q 12 -408 17 -321 q 7 -335 7 -370 q 9 -295 7 -315 q 23 -204 14 -244 q 37 -81 33 -163 l 38 745 q 3 809 38 788 q 109 890 40 814 q 186 1032 178 966 q 237 921 198 972 q 326 830 277 869 q 414 784 376 791 q 399 747 407 766 m 149 386 l 281 385 l 281 699 q 280 707 281 703 q 241 732 264 717 q 149 831 187 768 l 149 386 z "},"B":{"ha":476,"x_min":3,"x_max":473,"o":"m 166 386 q 255 398 224 393 q 277 403 267 399 q 314 425 298 410 q 342 492 336 447 q 345 537 345 511 q 341 615 345 570 q 301 741 333 694 q 245 793 270 787 q 188 729 209 758 q 165 640 166 701 l 166 386 m 280 346 q 234 355 260 353 l 223 355 q 166 351 200 355 l 166 -109 q 89 -153 127 -111 q 33 -259 50 -196 q 9 -408 15 -321 q 3 -335 3 -370 q 6 -295 3 -315 q 22 -204 12 -244 q 36 -116 33 -163 l 36 606 q 9 665 33 644 q 94 711 37 677 q 207 813 151 745 q 296 996 262 882 q 323 931 302 958 q 372 862 343 905 q 413 755 400 820 q 424 651 424 704 q 423 625 424 638 q 402 498 420 559 q 322 393 384 437 q 409 346 387 383 q 441 267 432 309 q 451 156 451 225 l 452 -144 l 452 -148 q 473 -250 452 -204 q 411 -211 446 -216 q 403 -210 407 -210 q 336 -245 372 -210 q 276 -344 296 -285 q 243 -515 257 -403 q 186 -376 224 -418 q 115 -338 151 -338 l 106 -338 q 51 -387 65 -342 q 43 -443 43 -412 q 49 -504 43 -471 q 106 -618 62 -576 q 195 -669 150 -660 q 218 -672 206 -672 q 290 -648 252 -672 q 376 -562 338 -617 q 435 -363 414 -507 q 389 -627 420 -525 q 298 -764 358 -729 q 235 -781 268 -781 q 171 -764 204 -781 q 73 -653 104 -731 q 33 -501 43 -576 q 27 -420 27 -458 q 31 -364 27 -391 q 56 -254 37 -301 q 109 -173 74 -207 q 157 -153 129 -153 q 200 -163 177 -153 q 291 -236 258 -186 q 257 -317 269 -269 q 243 -422 245 -365 q 262 -336 252 -372 q 292 -263 273 -300 q 335 -193 310 -226 l 335 189 q 319 304 330 275 q 286 343 308 333 q 280 346 283 345 z "},"C":{"ha":495,"x_min":3,"x_max":492,"o":"m 171 -62 q 203 -171 174 -134 q 264 -199 226 -199 q 288 -197 275 -199 q 391 -103 343 -185 q 458 42 438 -21 q 481 199 477 105 q 482 236 482 218 q 469 383 482 311 q 492 209 492 294 q 491 178 492 193 q 468 14 486 79 q 390 -151 449 -52 q 305 -285 332 -250 q 264 -347 279 -321 q 247 -403 250 -374 q 245 -424 245 -413 q 250 -478 245 -448 q 176 -326 218 -390 q 85 -230 134 -261 q 3 -189 37 -199 q 32 -166 25 -184 q 39 -98 39 -148 l 38 743 l 38 745 q 3 809 38 788 q 109 890 40 814 q 186 1032 178 966 q 237 921 198 972 q 326 830 277 869 q 414 784 376 791 q 332 675 384 765 q 243 589 282 589 l 238 589 q 289 632 263 599 q 354 743 315 666 q 280 663 329 703 q 221 704 253 672 q 171 789 190 736 l 171 -62 z "},"D":{"ha":469,"x_min":3,"x_max":466,"o":"m 267 779 q 276 793 272 786 q 292 838 286 814 q 296 882 296 853 q 294 916 296 897 q 271 838 283 861 q 242 793 258 814 q 185 729 206 758 q 163 640 163 701 l 164 -109 q 87 -153 125 -111 q 32 -259 50 -196 q 9 -408 15 -321 q 3 -335 3 -370 q 5 -295 3 -315 q 22 -204 12 -244 q 35 -116 33 -163 l 35 606 q 9 665 33 644 q 93 711 37 677 q 204 813 149 745 q 292 996 258 882 q 318 931 298 958 q 366 862 338 905 q 413 747 394 820 q 439 583 432 674 q 445 193 445 498 l 445 156 l 444 -127 q 466 -250 444 -203 q 405 -211 439 -216 q 397 -210 401 -210 q 332 -245 367 -210 q 273 -344 292 -285 q 240 -515 254 -403 q 183 -376 221 -418 q 113 -338 149 -338 l 105 -338 q 50 -387 64 -342 q 42 -443 42 -412 q 48 -504 42 -471 q 104 -618 61 -576 q 193 -669 148 -660 q 214 -672 203 -672 q 286 -648 249 -672 q 370 -562 333 -617 q 429 -363 408 -507 q 383 -627 414 -525 q 294 -764 353 -729 q 233 -781 264 -781 q 169 -764 201 -781 q 72 -653 102 -731 q 33 -501 42 -576 q 27 -420 27 -458 q 30 -364 27 -391 q 55 -254 37 -301 q 107 -173 73 -207 q 155 -153 127 -153 q 197 -163 174 -153 q 287 -236 254 -186 l 290 -241 q 330 -193 306 -226 l 330 260 q 319 627 330 543 q 286 754 306 720 q 267 779 277 770 z "},"E":{"ha":515,"x_min":3,"x_max":511,"o":"m 178 319 l 178 -48 q 212 -155 180 -119 q 274 -182 235 -182 q 300 -180 286 -182 q 406 -89 357 -170 q 476 55 456 -7 q 501 210 496 117 q 502 246 502 228 q 487 391 502 320 q 511 219 511 303 q 511 189 511 204 q 486 27 505 92 q 406 -135 467 -37 q 317 -268 345 -233 q 275 -329 290 -303 q 256 -384 259 -355 q 255 -405 255 -394 q 259 -458 255 -429 q 183 -308 227 -372 q 88 -213 138 -244 q 3 -173 38 -182 q 33 -150 26 -168 q 41 -83 41 -132 l 39 747 l 39 749 q 3 812 39 791 q 113 892 41 817 q 194 1032 184 967 q 247 922 206 973 q 339 833 288 871 q 431 787 391 794 q 345 680 399 769 q 252 595 294 595 l 248 595 q 300 638 273 605 q 368 747 328 671 q 292 668 342 707 q 230 708 263 677 q 178 792 197 740 l 178 353 l 252 454 q 298 391 262 422 q 380 349 335 360 q 319 283 351 327 q 277 215 288 240 q 225 253 254 225 q 178 319 195 281 z "},"F":{"ha":492,"x_min":3,"x_max":489,"o":"m 137 -349 q 99 -332 113 -332 q 90 -334 94 -332 q 57 -387 73 -342 q 47 -443 47 -412 q 54 -504 47 -471 q 119 -618 69 -576 q 220 -669 169 -660 q 244 -672 232 -672 q 326 -648 283 -672 q 423 -562 380 -617 q 489 -363 466 -507 q 438 -627 473 -525 q 335 -764 403 -729 q 265 -781 301 -781 q 193 -764 230 -781 q 82 -653 117 -731 q 37 -501 47 -576 q 31 -420 31 -458 q 34 -364 31 -391 q 62 -254 42 -301 q 121 -173 83 -207 q 176 -147 152 -147 q 189 -149 183 -147 q 249 -184 218 -159 q 201 -281 224 -219 q 176 -405 178 -344 q 137 -349 159 -370 m 186 347 l 187 -109 q 99 -153 142 -111 q 36 -259 56 -196 q 10 -408 16 -321 q 3 -335 3 -370 q 6 -295 3 -315 q 24 -204 12 -244 q 40 -116 37 -163 l 40 606 q 10 665 37 644 q 106 711 41 677 q 232 813 170 745 q 333 996 294 882 q 380 915 340 958 q 430 845 419 871 q 375 793 406 837 q 343 733 345 749 q 295 785 312 774 q 313 812 307 800 q 324 843 319 825 q 331 903 328 861 q 311 846 319 865 q 277 793 304 827 l 276 793 q 211 729 235 758 q 186 640 186 701 l 186 395 l 254 482 q 300 424 264 452 q 380 384 336 395 q 320 323 352 363 q 279 260 289 283 q 228 296 256 269 q 186 347 203 318 z "},"G":{"ha":580,"x_min":3,"x_max":576,"o":"m 436 208 l 435 -153 l 435 -191 q 465 -182 450 -186 q 576 -169 502 -176 q 463 -215 490 -205 q 402 -251 435 -225 q 333 -312 368 -277 q 274 -378 297 -348 q 231 -443 250 -408 q 164 -550 212 -477 q 235 -408 203 -467 q 222 -380 229 -395 q 159 -296 195 -328 q 83 -260 124 -265 q 71 -260 77 -260 q 11 -281 38 -260 q 31 -210 28 -262 l 31 736 q 30 744 31 741 q 24 742 27 743 l 3 765 q 66 802 31 779 q 193 930 138 850 q 211 960 201 945 q 221 983 216 968 q 233 1011 227 995 q 231 983 231 994 q 232 970 231 975 q 313 867 250 926 q 444 805 379 805 q 467 807 455 805 q 374 679 438 789 q 261 570 309 570 l 260 570 q 395 761 360 647 q 300 650 345 659 q 205 706 241 665 q 153 783 170 747 l 153 -83 q 241 -140 187 -89 q 329 -256 294 -192 l 329 71 q 313 78 321 78 q 279 -18 286 78 l 271 -137 l 271 178 q 301 174 287 174 q 374 201 343 174 q 449 308 416 237 q 496 473 482 379 q 509 620 509 566 l 509 622 q 495 748 508 676 q 517 609 517 659 q 509 472 517 559 q 484 323 502 385 q 436 208 466 261 z "},"H":{"ha":540,"x_min":3,"x_max":536,"o":"m 143 -338 l 136 -338 q 87 -387 100 -342 q 81 -443 81 -412 q 85 -504 81 -471 q 136 -618 97 -576 q 214 -669 174 -660 q 233 -672 223 -672 q 296 -648 264 -672 q 372 -562 338 -617 q 423 -363 405 -507 q 383 -627 410 -525 q 304 -764 356 -729 q 249 -781 277 -781 q 193 -764 222 -781 q 107 -653 134 -731 q 72 -501 81 -576 q 67 -420 67 -458 q 70 -364 67 -391 q 92 -254 76 -301 q 138 -173 108 -207 q 180 -153 156 -153 q 214 -164 194 -153 q 258 -201 235 -176 q 224 -290 239 -235 q 211 -392 211 -338 l 211 -406 q 185 -354 194 -371 q 143 -338 176 -338 m 321 699 q 298 786 310 762 q 262 819 286 809 q 309 846 293 827 q 345 902 325 864 q 374 984 365 939 q 402 902 382 935 q 439 856 422 869 q 506 842 456 842 q 438 748 460 823 l 437 156 l 438 -148 q 536 -452 438 -288 q 430 -316 461 -338 q 375 -293 399 -294 l 370 -293 q 330 -300 349 -293 q 292 -348 307 -309 q 303 -301 292 -323 q 322 -148 315 -280 l 323 351 l 189 351 l 189 -109 q 121 -153 154 -111 q 72 -259 87 -196 q 52 -408 56 -321 q 46 -335 46 -370 q 48 -295 46 -315 q 62 -204 53 -244 q 79 -104 72 -163 l 75 767 q 43 759 56 759 q 35 760 39 759 q 3 784 21 762 q 57 817 28 785 q 103 899 85 848 q 127 1010 121 949 q 144 894 135 941 q 172 821 153 848 q 224 795 188 795 q 233 796 228 795 q 166 747 191 747 q 157 749 161 747 q 102 804 131 760 q 188 706 130 732 l 189 386 l 321 385 l 321 699 z "},"I":{"ha":281,"x_min":3,"x_max":278,"o":"m 62 699 q 40 786 52 762 q 3 819 28 809 q 51 846 35 827 q 86 902 66 864 q 115 984 106 939 q 144 902 123 935 q 181 856 164 869 q 248 842 197 842 q 180 748 202 823 l 180 -148 q 278 -452 180 -288 q 173 -317 205 -340 q 117 -293 140 -294 l 112 -293 q 71 -300 91 -293 q 33 -348 49 -309 q 45 -301 33 -323 q 64 -148 56 -280 l 62 699 z "},"J":{"ha":496,"x_min":3,"x_max":492,"o":"m 420 -127 q 442 -250 420 -203 q 381 -211 415 -216 q 373 -210 378 -210 q 308 -245 343 -210 q 249 -344 268 -285 q 216 -515 230 -403 q 159 -376 197 -418 q 89 -338 125 -338 l 81 -338 q 26 -387 41 -342 q 18 -443 18 -412 q 24 -504 18 -471 q 81 -618 37 -576 q 169 -669 124 -660 q 191 -672 180 -672 q 262 -648 225 -672 q 347 -562 309 -617 q 405 -363 384 -507 q 359 -627 390 -525 q 270 -764 329 -729 q 209 -781 240 -781 q 145 -764 178 -781 q 48 -653 79 -731 q 9 -501 18 -576 q 3 -420 3 -458 q 6 -364 3 -391 q 31 -254 14 -301 q 83 -173 49 -207 q 131 -153 103 -153 q 174 -163 151 -153 q 263 -236 230 -186 l 267 -241 q 306 -193 282 -226 l 311 699 q 288 786 300 762 q 252 819 276 809 q 299 846 283 827 q 335 902 315 864 q 363 984 355 939 q 390 902 372 935 q 426 856 409 869 q 492 842 442 842 q 425 748 447 823 l 420 -127 z "},"K":{"ha":597,"x_min":3,"x_max":593,"o":"m 367 427 q 397 447 367 427 q 472 522 428 467 q 533 624 515 576 q 555 741 551 671 q 555 768 555 755 q 543 879 555 825 q 564 749 564 812 q 564 726 564 737 q 539 597 559 652 q 471 483 519 542 q 358 380 424 425 q 413 333 375 351 q 500 313 452 313 q 525 315 512 313 q 505 296 512 305 q 495 262 497 286 l 495 -260 q 517 -297 500 -290 q 531 -300 524 -300 q 554 -293 542 -300 q 593 -220 573 -282 q 554 -331 576 -298 q 520 -398 531 -363 q 509 -479 509 -433 q 459 -415 492 -441 q 397 -380 427 -389 q 370 -377 384 -377 q 326 -384 350 -377 q 363 -341 347 -368 q 383 -267 380 -315 l 383 207 q 376 206 380 206 q 341 218 361 206 q 278 291 314 233 q 364 186 296 227 q 270 235 305 209 q 213 296 235 262 l 213 -290 q 240 -317 224 -312 q 249 -319 244 -319 q 271 -309 260 -319 q 307 -240 286 -297 q 271 -341 295 -303 q 237 -413 246 -378 q 229 -473 229 -445 l 229 -479 q 183 -412 214 -441 q 119 -378 152 -384 q 96 -376 109 -376 q 47 -384 73 -376 q 84 -336 64 -365 q 103 -267 103 -308 l 104 650 q 105 663 105 656 q 87 745 105 711 q 50 799 67 783 q 3 836 33 816 q 56 829 28 829 q 108 836 81 829 q 211 900 163 849 q 273 992 258 951 q 299 930 278 965 q 349 870 319 896 q 395 844 378 844 q 328 764 364 819 q 267 602 292 709 q 287 710 269 646 q 340 818 305 774 q 277 736 314 803 l 213 836 l 213 340 q 269 364 233 342 q 367 427 306 386 z "},"L":{"ha":495,"x_min":3,"x_max":492,"o":"m 171 -62 q 203 -171 174 -134 q 264 -199 226 -199 q 288 -197 275 -199 q 391 -103 343 -185 q 458 42 438 -21 q 481 199 477 105 q 482 236 482 218 q 469 383 482 311 q 492 209 492 294 q 491 178 492 193 q 468 14 486 79 q 390 -151 449 -52 q 305 -285 332 -250 q 264 -347 279 -321 q 247 -403 250 -374 q 245 -424 245 -413 q 250 -478 245 -448 q 176 -326 218 -390 q 85 -230 134 -261 q 3 -189 37 -199 q 32 -166 25 -184 q 39 -98 39 -148 l 38 743 l 38 745 q 3 809 38 788 q 93 864 40 814 q 186 1032 145 914 q 170 831 170 918 q 171 789 170 809 l 171 -62 z "},"M":{"ha":907,"x_min":3,"x_max":904,"o":"m 528 570 l 529 -103 q 612 -50 578 -68 q 558 -97 580 -76 q 512 -142 537 -117 q 463 -199 488 -167 q 409 -273 439 -231 q 426 -217 417 -245 l 426 636 q 422 722 426 705 q 408 750 419 739 q 395 756 401 756 q 387 753 391 756 q 357 727 376 744 q 316 661 339 711 q 269 555 292 611 l 269 -416 q 324 -353 302 -372 q 357 -328 346 -333 q 287 -429 313 -380 q 236 -548 261 -477 q 194 -670 211 -618 q 163 -779 176 -721 q 140 -720 155 -741 q 111 -681 126 -699 q 84 -660 95 -663 q 77 -659 81 -659 q 56 -664 68 -659 q 3 -699 38 -671 q 44 -652 20 -674 q 84 -629 68 -629 q 115 -641 100 -629 q 127 -591 121 -608 q 140 -552 133 -574 l 138 770 q 216 902 195 871 q 271 985 237 932 l 269 583 q 388 798 336 728 q 470 906 441 869 q 527 982 498 943 l 528 597 q 640 798 591 731 q 722 906 693 869 q 779 982 751 943 l 781 132 q 827 164 810 156 q 904 198 844 173 q 818 141 846 165 q 764 93 789 117 q 710 36 739 68 q 656 -31 681 4 q 678 18 663 -5 l 678 636 q 674 722 678 705 q 661 750 671 739 q 648 756 654 756 q 639 753 644 756 q 610 727 628 744 q 568 661 591 711 q 528 570 548 618 z "},"N":{"ha":632,"x_min":3,"x_max":629,"o":"m 133 770 q 209 902 188 871 q 261 985 229 932 l 260 583 q 375 798 324 728 q 453 906 425 869 q 509 982 481 943 l 510 -103 q 555 -70 538 -79 q 629 -37 571 -62 q 545 -94 572 -70 q 494 -142 518 -117 q 447 -199 470 -167 q 395 -273 423 -231 q 411 -217 402 -245 l 411 636 q 408 722 411 705 q 394 750 404 739 q 382 756 387 756 q 373 753 377 756 q 345 727 362 744 q 304 661 327 711 q 260 555 282 611 l 260 -416 q 313 -353 292 -372 q 345 -328 334 -333 q 277 -429 302 -380 q 228 -548 252 -477 q 187 -670 203 -618 q 157 -779 170 -721 q 136 -720 149 -741 q 107 -681 122 -699 q 81 -660 92 -663 q 75 -659 78 -659 q 54 -664 66 -659 q 3 -699 37 -671 q 42 -652 19 -674 q 81 -629 66 -629 q 111 -641 96 -629 q 122 -591 117 -608 q 134 -552 128 -574 l 133 770 z "},"O":{"ha":547,"x_min":3,"x_max":544,"o":"m 144 784 l 144 -75 q 227 -131 176 -80 q 311 -246 278 -182 l 311 671 q 250 708 292 671 q 210 784 210 743 l 210 786 q 208 768 208 777 q 283 653 208 709 q 194 708 228 668 q 144 784 160 749 m 221 -397 q 210 -369 216 -383 q 150 -286 184 -317 q 79 -250 117 -255 q 67 -249 73 -249 q 11 -271 36 -249 q 29 -201 26 -252 l 29 739 q 28 747 29 743 q 23 744 26 746 l 3 767 q 62 804 30 781 q 182 930 130 852 q 199 961 190 945 q 209 983 203 969 q 220 1011 214 995 l 224 985 q 219 970 220 977 q 296 868 236 927 q 419 807 358 807 q 440 809 429 807 q 416 762 422 794 q 411 690 411 732 l 411 -182 q 439 -173 425 -176 q 544 -159 474 -166 q 437 -205 463 -195 q 379 -240 411 -215 q 314 -301 347 -266 q 258 -367 280 -336 q 218 -431 236 -397 q 155 -537 199 -465 q 221 -397 192 -455 z "},"P":{"ha":544,"x_min":3,"x_max":541,"o":"m 254 802 l 254 92 q 334 45 286 87 q 415 -50 383 3 l 415 708 q 357 739 397 709 q 317 802 317 768 l 317 803 q 315 788 315 795 q 389 694 315 739 q 302 739 335 706 q 254 802 269 772 m 253 -82 l 253 -434 q 295 -384 273 -404 q 343 -347 317 -365 q 282 -428 308 -382 q 231 -543 256 -474 q 189 -666 205 -611 q 157 -793 172 -722 q 142 -751 153 -774 q 116 -708 131 -728 q 87 -679 102 -688 q 62 -672 75 -672 q 53 -673 58 -672 q 3 -713 34 -676 q 32 -666 12 -686 q 67 -644 52 -646 l 71 -644 q 104 -652 86 -644 q 136 -583 122 -609 q 169 -526 149 -557 q 220 -467 189 -494 q 143 -528 176 -478 l 143 764 q 129 795 141 787 q 320 972 282 882 q 401 871 331 930 q 520 821 461 821 q 541 823 530 821 q 518 783 523 810 q 513 724 513 759 l 513 719 l 512 36 q 513 8 512 18 q 519 -14 515 -2 q 538 -39 524 -26 q 520 -35 531 -35 q 482 -42 505 -35 q 423 -74 444 -54 q 389 -117 403 -94 q 365 -169 376 -140 q 348 -242 354 -197 q 317 -152 342 -195 q 254 -83 292 -109 l 253 -82 z "},"Q":{"ha":587,"x_min":3,"x_max":583,"o":"m 155 783 l 155 -83 q 243 -139 189 -87 q 333 -256 298 -191 l 333 669 q 269 706 313 669 q 224 783 224 741 l 224 784 q 222 766 222 775 q 303 651 222 707 q 208 706 244 665 q 155 783 172 747 m 319 -333 l 236 -444 l 168 -578 l 168 -547 q 237 -407 199 -467 q 224 -379 232 -393 q 161 -295 197 -326 q 84 -259 125 -264 q 72 -258 78 -258 q 11 -280 38 -258 q 31 -209 28 -260 l 31 736 q 30 745 31 741 q 25 743 28 744 l 3 765 q 67 802 32 779 q 195 930 139 850 q 213 960 203 945 q 224 983 218 968 q 235 1011 229 995 l 239 985 q 235 970 237 976 q 317 867 253 926 q 450 805 384 805 q 472 808 460 805 q 446 761 452 793 q 441 688 441 730 l 441 682 l 440 -151 l 440 -190 q 471 -181 455 -184 q 583 -168 508 -175 q 468 -214 496 -203 q 406 -250 440 -224 q 349 -298 378 -271 q 378 -319 368 -313 q 407 -326 390 -326 l 410 -326 q 444 -318 429 -325 q 411 -379 424 -341 q 397 -472 397 -417 q 412 -569 397 -527 q 440 -628 426 -611 q 494 -667 454 -646 q 429 -644 456 -663 q 374 -608 402 -626 q 319 -586 346 -589 q 299 -585 308 -585 q 273 -588 284 -585 q 235 -618 255 -593 q 276 -576 255 -587 q 302 -570 288 -570 q 324 -572 313 -570 q 406 -608 351 -580 q 355 -564 378 -576 q 310 -548 333 -551 q 299 -465 299 -506 l 299 -460 q 307 -376 300 -417 q 319 -333 311 -355 z "},"R":{"ha":511,"x_min":3,"x_max":508,"o":"m 100 -338 l 94 -338 q 45 -387 58 -342 q 38 -443 38 -412 q 43 -504 38 -471 q 93 -618 54 -576 q 172 -669 132 -660 q 191 -672 180 -672 q 254 -648 221 -672 q 329 -562 296 -617 q 380 -363 362 -507 q 340 -627 368 -525 q 261 -764 313 -729 q 206 -781 235 -781 q 150 -764 179 -781 q 65 -653 92 -731 q 29 -501 38 -576 q 24 -420 24 -458 q 27 -364 24 -391 q 49 -254 33 -301 q 95 -173 65 -207 q 138 -153 113 -153 q 172 -164 151 -153 q 216 -201 192 -176 q 182 -290 197 -235 q 168 -392 168 -338 l 168 -406 q 142 -354 151 -371 q 100 -338 133 -338 m 243 812 q 252 843 248 825 q 258 903 256 861 q 243 846 249 865 q 216 793 237 827 l 215 793 q 164 729 183 758 q 145 640 146 701 l 146 386 q 224 398 197 393 q 242 403 233 399 q 275 425 261 410 q 300 492 295 447 q 302 537 302 511 q 298 615 302 570 q 264 741 292 694 q 230 785 245 772 q 243 812 239 800 m 294 -72 l 293 -72 l 293 189 q 279 304 289 275 q 251 343 269 333 q 245 346 248 345 q 205 355 229 353 l 195 355 q 146 351 175 355 l 146 -109 q 78 -153 111 -111 q 29 -259 45 -196 q 9 -408 14 -321 q 3 -335 3 -370 q 5 -295 3 -315 q 20 -204 10 -244 q 32 -116 29 -163 l 32 606 q 9 665 29 644 q 83 711 33 677 q 181 813 133 745 q 259 996 229 882 q 283 931 265 958 q 325 862 300 905 q 361 755 350 820 q 371 651 371 704 q 370 625 371 638 q 352 498 368 559 q 282 393 336 437 q 358 346 338 383 q 387 267 378 309 q 395 156 395 225 l 395 -72 q 508 -452 398 -281 q 399 -312 429 -330 q 347 -293 370 -294 l 342 -293 q 301 -300 321 -293 q 263 -348 279 -309 q 289 -267 282 -292 q 294 -188 294 -248 q 294 -148 294 -170 l 294 -72 z "},"S":{"ha":488,"x_min":3,"x_max":485,"o":"m 77 764 l 79 764 q 210 857 146 764 q 292 1019 277 951 q 333 906 304 956 q 396 826 361 855 q 477 798 431 798 q 381 612 415 756 q 292 705 328 655 q 248 795 255 754 q 290 925 279 854 q 245 828 268 869 q 201 776 222 788 l 201 377 q 263 306 239 360 q 308 393 287 345 q 339 475 330 440 q 345 513 345 494 q 340 546 345 530 q 397 476 372 523 q 438 385 422 429 q 477 335 455 342 q 465 243 466 307 l 465 -92 q 485 -144 465 -127 q 426 -182 464 -144 q 358 -278 387 -220 q 314 -439 328 -336 q 303 -359 314 -401 q 249 -278 292 -317 q 183 -250 216 -250 q 161 -252 172 -250 q 87 -294 116 -266 q 3 -426 59 -321 q 80 -245 24 -351 q 158 -79 136 -138 q 184 84 180 -20 q 186 38 186 60 q 180 -47 186 -7 q 122 -195 172 -106 q 195 -47 159 -164 q 220 -45 208 -45 q 293 -68 269 -45 q 335 -115 321 -97 q 370 -172 349 -133 l 370 186 q 349 246 361 222 q 318 284 336 269 q 299 292 309 292 q 280 284 290 292 l 299 269 q 262 186 285 237 q 231 81 239 135 q 196 158 218 128 q 144 203 175 188 q 84 218 114 218 q 104 479 104 281 l 104 501 q 77 764 103 718 z "},"T":{"ha":580,"x_min":3,"x_max":576,"o":"m 291 -342 q 260 -326 272 -326 q 252 -328 255 -326 q 225 -381 239 -336 q 218 -437 218 -406 q 224 -498 218 -465 q 276 -612 235 -570 q 358 -663 317 -654 q 378 -666 368 -666 q 444 -642 410 -666 q 523 -556 488 -611 q 576 -357 557 -500 q 534 -621 563 -519 q 452 -758 506 -723 q 395 -775 424 -775 q 336 -758 366 -775 q 246 -647 274 -725 q 210 -495 218 -570 q 204 -414 204 -452 q 207 -358 204 -385 q 230 -248 214 -295 q 278 -167 247 -201 q 322 -141 302 -141 q 333 -143 328 -141 q 382 -178 357 -153 q 343 -275 361 -213 q 322 -399 324 -338 q 291 -342 309 -363 m 332 -103 q 260 -147 295 -104 q 209 -253 225 -190 q 188 -401 193 -315 q 182 -329 182 -363 q 184 -289 182 -309 q 199 -198 189 -238 q 212 -110 209 -157 l 212 612 q 188 671 210 650 q 265 717 213 683 q 368 820 317 751 q 450 1002 418 888 q 488 921 456 964 q 528 851 519 878 q 484 799 509 843 q 458 739 459 755 q 419 791 433 781 q 433 818 429 806 q 442 849 439 831 q 448 909 446 867 q 433 852 439 871 q 404 799 426 833 l 404 799 q 351 735 370 764 q 330 646 331 707 l 332 -103 m 104 705 q 38 825 90 786 q 81 674 81 746 q 45 772 70 733 q 3 819 21 812 q 65 979 50 869 q 148 895 89 916 q 229 880 184 880 q 286 886 256 880 q 417 968 364 899 q 331 822 366 864 q 261 753 296 779 q 206 721 227 727 q 145 705 185 715 l 121 769 l 104 705 z "},"U":{"ha":547,"x_min":3,"x_max":544,"o":"m 3 804 q 57 836 28 804 q 103 919 85 868 q 127 1030 121 969 q 144 914 135 960 q 172 840 153 867 q 224 815 188 815 q 233 816 228 815 q 166 766 191 766 q 157 768 161 766 q 102 824 131 779 q 180 726 130 752 l 180 -62 q 209 -154 189 -129 q 248 -176 228 -176 q 254 -176 251 -176 q 295 -144 277 -172 q 316 -46 313 -115 l 316 719 q 293 805 305 782 q 257 839 281 829 q 304 865 288 847 q 340 921 320 884 q 369 1004 360 959 q 397 922 377 955 q 434 876 418 889 q 501 862 451 862 q 433 768 456 843 l 433 -68 q 456 -147 433 -121 q 481 -161 469 -161 q 504 -151 492 -161 q 544 -9 529 -127 q 510 -201 540 -120 q 460 -330 480 -282 q 438 -437 439 -378 q 382 -357 406 -406 q 346 -269 358 -309 q 330 -182 333 -229 q 393 -20 372 -134 q 328 -147 367 -107 q 266 -236 289 -186 q 231 -333 242 -286 q 222 -412 222 -373 l 222 -427 q 150 -347 183 -405 q 94 -237 117 -288 q 51 -109 71 -185 l 75 -114 l 75 787 q 43 779 56 779 q 35 779 39 779 q 3 804 21 782 z "},"V":{"ha":526,"x_min":3,"x_max":523,"o":"m 452 -308 q 410 -169 441 -202 q 377 -153 394 -153 q 340 -171 359 -153 q 277 -255 301 -205 q 241 -353 252 -305 q 232 -432 232 -393 l 232 -446 q 157 -366 191 -425 q 98 -256 122 -308 q 53 -127 74 -204 q 186 -344 125 -313 q 79 -133 138 -315 l 79 770 q 44 762 58 762 q 37 763 40 762 q 3 787 22 766 q 59 821 28 789 q 108 903 89 852 q 134 1015 127 954 q 150 898 140 945 q 179 824 160 851 q 231 800 195 800 q 243 800 237 800 q 173 751 199 751 q 165 752 169 751 q 107 808 136 763 q 189 709 135 736 l 189 -80 q 218 -173 197 -148 q 259 -195 238 -195 q 264 -195 262 -195 q 308 -163 289 -192 q 330 -65 327 -134 l 330 703 q 306 789 319 766 q 268 823 294 813 q 317 849 300 831 q 355 906 334 868 q 385 988 376 943 q 415 906 393 939 q 453 860 436 873 q 523 846 471 846 q 452 751 476 827 l 452 -308 z "},"W":{"ha":819,"x_min":3,"x_max":816,"o":"m 350 -183 q 469 -356 414 -328 q 358 -144 420 -326 l 358 761 q 321 753 337 753 q 316 753 318 753 q 281 777 300 755 q 338 811 308 779 q 388 893 369 843 q 415 1006 408 944 q 432 888 422 935 q 461 814 442 842 q 517 789 478 789 q 527 790 522 789 q 456 741 483 741 q 446 743 451 741 q 387 798 418 753 q 471 699 416 726 l 471 -92 q 502 -184 479 -160 q 544 -207 522 -207 q 550 -206 547 -207 q 594 -175 575 -203 q 616 -77 614 -146 l 616 693 q 593 779 606 755 q 553 813 580 803 q 604 840 587 821 q 643 896 621 859 q 673 979 665 934 q 704 897 682 930 q 744 850 726 863 q 816 836 762 836 q 743 742 768 817 l 743 -320 q 699 -181 732 -214 q 665 -165 682 -165 q 627 -183 646 -165 q 562 -268 587 -218 q 526 -365 537 -317 q 516 -446 516 -406 l 516 -458 q 439 -378 474 -437 q 379 -268 404 -320 q 346 -186 362 -233 q 284 -267 309 -220 q 248 -365 260 -317 q 239 -446 239 -406 l 239 -458 q 161 -378 197 -437 q 101 -268 125 -320 q 54 -139 77 -216 q 191 -356 129 -324 q 80 -144 142 -326 l 80 761 q 45 753 59 753 q 38 753 41 753 q 3 777 22 755 q 61 811 30 779 q 111 893 92 843 q 137 1006 130 944 q 155 888 144 935 q 184 814 165 842 q 239 789 201 789 q 250 790 244 789 q 178 741 205 741 q 169 743 174 741 q 110 798 141 753 q 194 699 139 726 l 194 -92 q 224 -184 202 -160 q 267 -207 245 -207 q 272 -206 269 -207 q 317 -174 297 -203 q 332 -133 328 -160 q 350 -183 350 -180 z "},"X":{"ha":508,"x_min":3,"x_max":505,"o":"m 125 -239 q 63 -332 92 -260 q 21 -471 32 -410 q 14 -568 14 -514 q 15 -617 14 -592 q 42 -779 19 -703 q 5 -602 9 -692 q 4 -554 4 -578 q 13 -441 4 -493 q 55 -291 25 -370 q 131 -138 85 -213 q 170 -33 162 -88 l 169 243 q 226 271 186 271 q 252 269 238 271 q 195 287 226 281 q 136 294 164 292 l 121 294 q 71 291 98 294 q 3 262 33 286 q 83 352 35 295 q 135 441 132 408 q 174 458 149 452 l 174 659 q 157 787 174 752 q 121 837 141 823 q 71 851 102 851 q 123 934 104 897 q 161 1021 142 970 q 191 929 174 962 q 223 879 209 897 q 254 860 237 860 q 290 890 271 860 q 322 957 309 920 q 347 1053 335 994 q 368 952 351 989 q 406 890 385 915 q 452 852 427 865 q 472 847 462 847 q 505 860 488 847 q 363 650 433 716 q 370 694 370 673 q 366 725 370 710 q 337 794 358 760 q 292 819 321 819 q 271 817 282 819 q 199 667 226 804 q 275 797 245 797 q 281 795 279 797 l 281 459 l 284 459 q 458 398 396 446 l 454 398 q 413 378 437 398 q 362 306 387 355 q 329 201 338 256 q 281 256 323 234 l 281 -117 q 302 -140 289 -140 q 306 -140 304 -140 q 334 -124 322 -135 q 366 -71 345 -113 q 313 -204 325 -172 q 297 -264 302 -237 q 292 -347 292 -292 q 244 -266 277 -297 q 185 -227 212 -235 q 169 -224 177 -224 q 125 -239 149 -224 z "},"Y":{"ha":557,"x_min":3,"x_max":553,"o":"m 477 -397 q 494 -456 477 -440 q 437 -485 472 -456 q 369 -573 403 -514 q 319 -716 335 -631 q 320 -707 320 -711 q 301 -645 320 -679 q 229 -578 279 -606 q 155 -557 191 -557 q 134 -559 144 -557 q 56 -600 90 -567 q 3 -704 22 -633 q 66 -557 6 -637 q 156 -394 125 -477 q 204 -222 186 -311 q 178 -374 191 -327 q 143 -473 165 -421 q 201 -360 164 -453 q 276 -380 246 -363 q 332 -422 305 -397 q 377 -481 359 -448 l 377 52 q 418 92 389 54 q 461 199 446 130 q 388 98 431 130 q 319 27 345 67 q 281 -50 293 -12 q 271 -112 271 -81 q 271 -123 271 -117 q 191 -60 228 -106 q 129 27 155 -14 q 81 129 104 68 l 108 125 l 108 839 q 71 832 86 832 q 64 833 68 832 q 29 852 48 835 q 88 879 56 853 q 139 944 119 904 q 167 1032 159 983 q 184 940 174 977 q 215 881 195 903 q 273 862 233 862 l 283 862 q 209 823 237 823 q 199 825 204 823 q 139 868 170 833 q 224 790 169 812 l 224 166 q 257 93 233 113 q 299 75 277 75 l 306 75 q 351 101 331 78 q 374 178 372 123 l 374 785 q 350 853 363 835 q 309 880 337 872 q 362 901 344 886 q 402 945 380 916 q 433 1011 424 975 q 452 946 442 972 q 479 909 461 920 q 553 899 498 899 q 479 824 503 884 l 477 -397 z "},"Z":{"ha":566,"x_min":3,"x_max":563,"o":"m 184 217 q 171 219 184 217 q 134 220 158 220 q 78 216 109 220 q 3 186 36 211 q 92 277 37 220 q 149 368 146 335 q 192 385 165 380 l 262 387 q 297 450 280 419 q 353 572 334 517 l 353 755 q 303 814 326 782 q 258 903 280 847 q 302 774 269 833 q 256 684 295 733 q 161 591 217 635 q 58 777 125 735 q 145 805 108 777 q 213 884 182 833 q 255 996 243 934 q 342 836 272 929 q 481 743 412 743 l 485 743 q 458 576 464 708 q 477 414 461 459 q 414 376 446 414 q 409 369 412 372 q 509 325 468 353 l 505 325 q 458 304 484 325 q 401 231 429 281 q 364 125 374 180 q 312 180 359 158 l 294 189 q 223 58 250 106 q 176 -64 186 -6 q 170 -136 170 -100 q 172 -186 170 -161 q 210 -130 195 -147 q 254 -83 224 -112 q 332 -60 279 -60 q 359 -62 345 -60 q 437 -209 393 -182 q 376 -65 383 -110 q 369 25 369 -21 q 370 68 369 45 q 398 -94 375 -35 q 481 -259 421 -153 q 563 -438 541 -364 q 473 -307 503 -334 q 395 -266 443 -279 q 372 -264 384 -264 q 301 -292 336 -264 q 243 -373 255 -331 q 232 -452 232 -414 q 185 -292 217 -349 q 113 -196 154 -234 q 50 -159 73 -159 q 72 -107 72 -142 q 73 -33 73 -66 q 73 14 73 -7 q 58 91 71 64 q 125 158 82 101 q 147 189 136 173 q 170 194 158 191 q 208 198 182 197 l 214 198 q 274 196 238 198 q 223 212 236 208 q 184 217 210 215 z "},"[":{"ha":448,"x_min":3,"x_max":444,"o":"m 412 -562 q 313 -607 349 -583 q 252 -664 277 -631 q 219 -715 227 -697 q 211 -749 211 -733 q 164 -699 193 -715 q 111 -676 136 -683 q 81 -672 97 -672 q 56 -675 69 -672 q 98 -631 73 -659 l 99 966 q 86 1026 98 1002 q 52 1068 75 1050 q 3 1102 28 1086 q 73 1093 36 1093 q 85 1093 79 1093 q 169 1111 128 1095 q 245 1157 209 1127 q 303 1248 282 1187 l 303 1242 q 336 1219 319 1227 q 368 1207 351 1210 q 391 1206 378 1206 q 406 1206 398 1206 q 444 1216 428 1208 q 385 1123 413 1164 q 355 1060 357 1082 q 354 1038 354 1048 q 355 1019 354 1028 q 271 1059 306 1034 q 220 1116 239 1082 q 118 1070 180 1088 l 127 1070 q 216 1096 172 1070 l 216 -511 q 229 -510 222 -511 q 292 -480 251 -508 q 385 -420 332 -452 q 375 -458 376 -437 q 374 -474 374 -467 q 376 -496 374 -486 q 387 -529 378 -513 q 412 -562 395 -545 z "},"\\":{"ha":428,"x_min":3,"x_max":425,"o":"m 3 972 l 58 972 l 425 -34 l 370 -34 l 3 972 z "},"]":{"ha":448,"x_min":3,"x_max":444,"o":"m 36 1061 q 135 1105 99 1082 q 196 1162 171 1129 q 229 1214 220 1196 q 237 1248 237 1232 q 283 1197 254 1213 q 336 1175 312 1181 q 366 1171 351 1171 q 392 1173 378 1171 q 349 1130 375 1157 l 349 -468 q 361 -528 350 -504 q 396 -569 372 -551 q 444 -604 420 -587 q 375 -594 412 -594 q 363 -595 369 -594 q 279 -612 319 -596 q 202 -659 239 -629 q 144 -749 165 -689 l 144 -744 q 112 -720 128 -728 q 80 -709 96 -711 q 57 -707 69 -707 l 41 -707 q 3 -718 20 -709 q 63 -625 35 -665 q 93 -561 91 -584 q 94 -540 94 -550 q 93 -520 94 -529 q 176 -560 142 -535 q 227 -618 208 -583 q 330 -572 268 -590 l 321 -572 q 231 -597 276 -572 l 231 1009 q 220 1008 225 1009 q 156 978 197 1006 q 63 919 115 950 q 73 957 71 935 l 73 972 q 72 996 73 985 q 61 1028 69 1012 q 36 1061 52 1044 z "},"^":{"ha":688,"x_min":0,"x_max":0,"o":""},"_":{"ha":694,"x_min":0,"x_max":694,"o":"m 0 -68 l 694 -68 l 694 -109 l 0 -109 l 0 -68 z "},"`":{"ha":694,"x_min":144,"x_max":456,"o":"m 456 732 l 410 732 l 186 869 q 154 896 165 882 q 144 924 144 909 q 158 959 144 945 q 194 972 172 972 q 221 964 208 972 q 259 932 235 956 l 456 732 z "},"a":{"ha":578,"x_min":3,"x_max":575,"o":"m 14 503 q 136 562 92 526 q 212 653 180 598 q 258 749 243 707 q 306 669 277 699 q 371 617 334 638 q 461 593 408 597 q 440 569 444 581 q 435 530 435 557 l 435 138 q 453 85 437 102 q 489 62 469 67 q 512 58 500 58 q 528 60 520 58 q 575 81 546 63 q 528 28 559 52 q 475 -27 498 3 q 446 -93 452 -58 q 429 -47 444 -65 q 371 -6 414 -28 q 308 62 328 16 q 254 31 277 52 q 213 -10 230 11 q 189 -52 197 -31 q 174 -100 180 -73 q 143 -40 163 -68 q 91 7 123 -12 q 3 29 59 26 q 45 63 45 37 l 45 256 q 30 274 38 273 q 7 275 22 275 q 77 320 35 286 q 172 433 118 353 q 254 401 222 417 q 308 367 285 385 l 308 533 q 245 556 269 538 q 205 605 220 574 q 148 547 179 566 q 84 517 117 528 q 14 503 52 507 m 381 281 q 257 370 315 341 q 186 392 210 392 q 176 391 180 392 l 178 71 q 211 35 194 60 q 266 75 247 62 q 306 96 286 87 l 307 321 q 381 281 333 317 z "},"b":{"ha":552,"x_min":3,"x_max":549,"o":"m 212 589 l 212 90 l 216 90 q 296 73 251 90 q 380 7 343 53 l 380 511 q 309 535 345 514 q 260 589 273 557 q 369 497 264 522 q 279 520 313 503 q 212 589 245 537 m 3 871 q 96 863 58 863 q 151 869 130 863 q 268 970 195 884 q 312 917 289 940 q 387 876 336 893 q 295 784 323 821 q 259 714 268 748 q 287 797 272 774 q 340 859 302 821 q 263 795 306 846 l 203 871 l 203 637 q 280 705 242 663 q 331 652 293 684 q 410 612 370 621 q 478 606 437 606 q 528 608 500 606 q 500 588 507 595 q 494 556 494 582 l 494 79 q 549 15 502 49 q 502 19 524 19 q 451 13 475 19 q 385 -15 408 2 q 340 -58 361 -32 q 315 -121 319 -83 q 272 -43 302 -71 q 210 0 242 -15 q 151 17 178 15 l 148 17 q 59 -19 119 17 q 93 39 84 19 q 98 65 98 52 q 97 79 98 72 l 97 748 q 78 804 89 778 q 3 871 67 829 z "},"c":{"ha":457,"x_min":3,"x_max":454,"o":"m 158 134 q 188 75 161 95 q 243 60 209 60 q 267 61 254 60 q 361 112 317 67 q 423 191 405 157 q 445 277 441 226 q 446 298 446 288 q 433 378 446 338 q 454 282 454 329 l 454 266 q 432 176 449 212 q 361 86 415 140 q 282 13 307 32 q 244 -21 258 -7 q 228 -52 231 -36 q 227 -64 227 -57 q 231 -93 227 -76 q 163 -9 202 -45 q 79 43 123 26 q 3 65 34 60 q 30 78 23 68 q 37 115 37 87 l 35 574 l 35 575 q 3 610 35 599 q 101 655 37 613 q 172 732 164 696 q 219 672 183 700 q 301 622 256 644 q 382 597 347 601 q 307 537 355 587 q 224 490 261 490 l 220 490 q 267 514 243 496 q 328 574 291 532 q 259 531 304 553 q 205 553 234 536 q 158 600 176 570 l 158 134 z "},"d":{"ha":577,"x_min":3,"x_max":574,"o":"m 311 865 q 237 1086 247 957 q 302 925 264 972 q 375 859 339 878 q 470 831 410 840 q 439 791 441 815 q 437 762 437 777 q 438 741 437 751 l 438 124 q 454 73 438 92 q 490 49 471 54 q 512 45 501 45 q 528 47 520 45 q 574 71 546 52 q 528 7 546 26 q 485 -36 509 -12 q 449 -93 460 -60 q 426 -46 446 -65 q 372 -5 406 -27 q 311 62 339 18 q 270 43 290 60 q 227 6 249 26 q 194 -39 205 -14 q 178 -98 182 -63 q 146 -34 172 -60 q 87 9 121 -8 q 8 32 54 27 q 47 79 47 40 l 47 473 q 36 508 47 498 q 3 519 25 519 q 103 590 62 549 q 175 682 144 631 q 263 640 227 657 q 311 613 300 622 l 311 865 m 385 531 q 271 611 332 583 q 191 633 219 633 q 180 633 185 633 l 180 71 q 214 35 207 60 q 269 75 250 62 q 310 96 288 87 l 309 569 q 385 531 328 567 z "},"e":{"ha":457,"x_min":3,"x_max":454,"o":"m 3 610 q 99 655 41 614 q 172 732 157 696 q 218 672 181 704 q 301 621 256 640 q 382 597 347 603 q 308 538 349 577 q 231 464 267 499 q 154 375 195 428 l 154 134 q 186 81 155 100 q 239 68 208 68 q 267 71 252 68 q 360 116 317 79 q 422 190 404 153 q 445 277 441 226 q 446 298 446 288 q 433 378 446 338 q 454 282 454 329 l 454 266 q 431 173 449 212 q 374 100 413 134 q 298 36 336 65 q 246 -12 261 7 q 228 -50 231 -32 q 227 -62 227 -56 q 231 -93 227 -76 q 160 -23 203 -54 q 75 33 116 7 q 3 65 34 60 q 30 78 23 68 q 37 115 37 87 l 36 574 q 3 610 32 603 m 94 325 q 133 384 112 358 q 199 458 155 410 q 266 528 244 505 q 200 559 228 541 q 156 604 172 577 l 156 430 q 119 386 139 419 q 94 325 99 352 z "},"f":{"ha":406,"x_min":3,"x_max":402,"o":"m 3 856 q 113 864 53 857 q 217 911 172 871 q 277 982 261 951 q 308 931 288 950 q 351 899 328 913 q 402 873 374 885 q 339 817 376 861 q 276 684 302 774 q 296 778 283 743 q 334 845 309 812 q 287 789 311 836 q 216 868 231 829 l 216 547 l 361 547 l 359 230 q 337 356 348 281 q 324 519 326 431 q 314 477 315 509 l 216 475 l 216 -73 q 243 -99 229 -90 q 284 -109 258 -107 q 372 -75 326 -75 l 377 -75 q 311 -109 337 -86 q 267 -150 285 -132 q 233 -191 250 -168 q 211 -242 216 -214 q 170 -190 199 -212 q 114 -165 142 -168 q 95 -164 104 -164 q 56 -168 76 -164 q 106 -140 81 -148 l 106 477 l 7 477 q 65 498 38 485 q 106 561 92 511 l 106 732 q 90 796 104 768 q 52 838 75 824 q 3 856 28 852 z "},"g":{"ha":520,"x_min":3,"x_max":517,"o":"m 204 582 l 204 111 q 292 80 238 108 q 380 16 345 52 l 380 519 q 316 540 360 520 q 273 582 273 559 l 273 583 q 271 573 271 578 q 351 510 271 540 q 256 540 292 518 q 204 582 220 562 m 486 -256 q 502 -296 486 -286 q 445 -316 480 -296 q 375 -374 410 -335 q 325 -471 340 -414 q 326 -465 326 -468 q 307 -422 326 -446 q 233 -378 284 -397 q 158 -363 194 -363 q 137 -365 147 -363 q 57 -392 92 -370 q 3 -463 23 -414 q 67 -364 6 -418 q 159 -254 127 -310 q 208 -139 190 -199 q 182 -241 195 -210 q 145 -308 169 -273 q 204 -232 167 -294 q 280 -245 250 -234 q 338 -274 311 -256 q 383 -313 365 -291 l 383 -233 l 382 -9 q 352 -28 366 -13 q 325 -62 337 -43 q 307 -111 313 -81 q 273 -51 300 -80 q 210 -5 245 -22 q 135 14 175 12 q 122 15 128 15 q 62 3 89 15 q 82 41 79 14 l 82 557 q 67 577 81 572 q 276 695 235 635 q 365 628 288 667 q 494 595 430 595 q 517 595 506 595 q 492 570 498 587 q 486 532 486 554 l 486 527 l 486 -256 z "},"h":{"ha":608,"x_min":3,"x_max":604,"o":"m 504 66 q 527 40 509 45 q 541 38 533 38 q 564 43 551 38 q 604 96 584 51 q 564 15 587 39 q 529 -34 541 -8 q 517 -93 517 -60 q 468 -46 500 -66 q 404 -21 435 -27 q 377 -18 391 -18 q 332 -24 356 -18 q 370 7 353 -12 q 390 62 387 26 l 391 524 q 382 523 387 523 q 347 532 368 523 q 283 578 320 543 q 371 509 301 538 q 274 544 310 525 q 216 589 239 564 l 216 45 q 244 26 229 29 q 253 24 249 24 q 275 31 264 24 q 313 81 291 40 q 275 8 300 35 q 241 -45 250 -20 q 233 -90 233 -68 l 233 -93 q 186 -44 217 -65 q 121 -19 155 -24 q 98 -18 111 -18 q 47 -24 75 -18 q 85 11 65 -9 q 105 62 105 32 l 106 732 l 106 742 q 89 802 106 777 q 51 841 68 829 q 3 868 34 853 q 56 863 29 863 q 110 867 82 863 q 214 915 166 878 q 277 982 262 952 q 304 937 283 962 q 355 893 326 911 q 402 873 384 874 q 334 815 370 856 q 272 696 298 775 q 293 776 274 729 q 346 854 311 823 q 281 795 319 844 l 216 868 l 216 621 q 294 702 282 678 q 391 635 311 671 q 519 602 461 602 q 534 602 527 602 q 514 588 522 595 q 504 564 506 581 l 504 66 z "},"i":{"ha":318,"x_min":3,"x_max":315,"o":"m 22 555 l 3 604 q 11 604 7 604 q 76 630 37 604 q 146 722 120 661 l 147 113 q 170 30 149 40 q 132 -56 132 -22 l 132 -57 q 196 22 172 2 q 247 60 220 43 q 315 87 274 78 q 253 46 270 60 q 211 7 236 32 q 164 -53 186 -18 q 138 -115 143 -87 q 79 -79 108 -106 q 34 -25 50 -51 q 10 48 18 1 l 24 40 l 22 555 m 66 673 q 28 717 47 699 q 11 758 11 733 q 12 763 11 760 q 47 846 13 791 q 85 926 81 901 q 86 942 86 934 q 81 975 86 958 q 58 1017 73 1000 q 96 971 82 1000 q 122 907 110 942 q 134 833 134 873 l 134 831 q 121 766 134 791 q 91 718 106 739 q 66 673 76 697 z "},"j":{"ha":505,"x_min":3,"x_max":502,"o":"m 404 677 q 367 722 385 703 q 349 763 349 738 q 350 768 349 765 q 385 850 351 795 q 423 930 419 905 q 425 947 425 939 q 419 980 425 963 q 396 1021 411 1005 q 434 976 420 1005 q 460 912 448 947 q 473 838 472 878 l 473 836 q 459 770 473 796 q 430 723 445 744 q 404 677 414 702 m 486 -252 q 502 -292 486 -281 q 445 -311 480 -292 q 375 -370 410 -330 q 325 -466 340 -409 q 326 -460 326 -463 q 307 -418 326 -441 q 233 -373 284 -392 q 158 -359 194 -359 q 137 -360 147 -359 q 57 -388 92 -366 q 3 -458 23 -410 q 67 -359 6 -413 q 159 -250 127 -305 q 208 -134 190 -194 q 182 -236 195 -205 q 145 -303 169 -268 q 204 -227 167 -290 q 280 -240 250 -229 q 330 -264 311 -252 q 361 -294 349 -276 l 360 559 l 342 609 q 349 608 346 608 q 414 635 376 608 q 485 727 458 665 l 486 -252 z "},"k":{"ha":608,"x_min":3,"x_max":604,"o":"m 374 569 q 405 583 374 569 q 480 638 436 598 q 543 713 525 678 q 565 799 561 747 q 566 819 566 809 q 553 899 566 860 q 574 804 574 850 l 574 787 q 548 693 569 733 q 480 610 528 653 q 365 535 432 567 q 420 500 382 514 q 509 486 460 486 q 534 487 521 486 q 514 473 522 480 q 504 448 506 466 l 504 66 q 527 40 509 45 q 541 38 533 38 q 564 43 551 38 q 604 96 584 51 q 564 15 587 39 q 529 -34 541 -8 q 517 -93 517 -60 q 468 -46 500 -66 q 404 -21 435 -27 q 377 -18 391 -18 q 332 -24 356 -18 q 370 7 353 -12 q 390 62 387 26 l 391 408 q 382 408 387 408 q 347 416 368 408 q 283 469 320 427 q 371 393 301 423 q 274 429 310 410 q 216 473 239 448 l 216 45 q 244 26 229 29 q 253 24 249 24 q 275 31 264 24 q 313 81 291 40 q 275 8 300 35 q 241 -45 250 -20 q 233 -90 233 -68 l 233 -93 q 186 -44 217 -65 q 121 -19 155 -24 q 98 -18 111 -18 q 47 -24 75 -18 q 85 11 65 -9 q 105 62 105 32 l 106 732 l 106 742 q 89 802 106 777 q 51 841 68 829 q 3 868 34 853 q 56 863 29 863 q 110 867 82 863 q 214 915 166 878 q 277 982 262 952 q 304 937 283 962 q 355 893 326 911 q 402 873 384 874 q 334 815 370 856 q 272 696 298 775 q 293 776 274 729 q 346 854 311 823 q 281 795 319 844 l 216 868 l 216 505 q 275 523 237 507 q 374 569 312 539 z "},"l":{"ha":353,"x_min":3,"x_max":349,"o":"m 118 836 l 127 836 q 216 862 172 836 l 216 -73 q 262 -93 245 -81 q 291 -109 279 -106 l 349 -87 q 290 -129 316 -106 q 245 -171 264 -151 q 219 -208 227 -190 q 211 -242 211 -226 q 164 -192 193 -208 q 111 -169 136 -176 q 81 -165 97 -165 q 56 -168 69 -165 q 98 -124 73 -151 l 99 732 q 86 792 98 768 q 52 834 75 816 q 3 868 28 852 q 73 859 36 859 q 85 859 79 859 q 169 877 128 861 q 245 923 209 893 q 303 1014 282 954 q 256 913 302 963 q 118 836 210 863 z "},"m":{"ha":856,"x_min":3,"x_max":852,"o":"m 126 435 l 127 3 q 40 -75 59 -43 q 109 -25 79 -41 q 167 0 138 -9 q 258 26 195 9 q 168 -12 197 4 q 112 -43 138 -27 q 60 -81 85 -60 q 3 -129 35 -102 q 14 -93 12 -111 l 14 572 q 70 663 47 642 q 127 717 93 683 l 126 453 q 127 454 127 454 q 237 589 182 546 q 354 661 292 632 q 432 715 416 690 l 433 476 q 530 591 478 551 q 645 661 582 632 q 722 715 708 690 l 724 3 q 772 24 755 18 q 852 46 789 30 q 762 9 791 24 q 706 -23 732 -7 q 654 -60 680 -39 q 597 -109 629 -81 q 615 -73 606 -91 l 615 488 q 611 545 615 534 q 597 563 608 555 q 578 566 590 566 q 556 564 569 566 q 508 548 527 559 q 469 510 489 537 q 433 460 449 483 l 434 3 q 483 24 465 18 q 563 46 500 30 q 472 9 502 24 q 416 -23 442 -7 q 365 -60 390 -39 q 308 -109 339 -81 q 326 -73 317 -91 l 326 488 q 322 545 326 534 q 307 563 318 555 q 288 566 300 566 q 267 564 279 566 q 218 548 237 559 q 175 504 199 537 q 126 435 151 471 z "},"n":{"ha":566,"x_min":3,"x_max":563,"o":"m 432 1 q 483 24 465 18 q 563 46 500 30 q 472 9 502 24 q 416 -23 442 -7 q 365 -60 390 -39 q 308 -109 339 -81 q 326 -73 317 -91 l 326 488 q 322 545 326 534 q 307 563 318 555 q 288 566 300 566 q 267 564 279 566 q 214 542 237 559 q 170 498 190 526 q 130 422 151 471 l 130 -1 q 42 -76 71 -39 q 151 -6 106 -22 q 258 26 195 9 q 168 -12 197 4 q 112 -43 138 -27 q 60 -81 85 -60 q 3 -129 35 -102 q 14 -93 12 -111 l 14 572 q 70 663 47 642 q 127 717 93 683 l 128 451 q 238 591 184 550 q 353 661 292 632 q 432 715 414 690 l 432 1 z "},"o":{"ha":461,"x_min":3,"x_max":458,"o":"m 145 582 l 145 111 q 233 80 179 108 q 321 16 286 52 l 321 519 q 257 540 301 520 q 214 582 214 559 l 214 583 q 212 573 212 578 q 292 510 212 540 q 197 540 233 518 q 145 582 161 562 m 427 73 q 428 55 427 61 q 435 40 430 48 q 455 24 440 33 q 435 26 448 26 q 394 22 419 26 q 330 0 352 14 q 293 -28 307 -13 q 266 -62 278 -43 q 248 -111 254 -81 q 214 -51 241 -80 q 151 -5 186 -22 q 76 14 116 12 q 63 15 69 15 q 3 3 30 15 q 23 41 20 14 l 23 557 q 8 577 22 572 q 217 695 176 635 q 306 628 229 667 q 435 595 371 595 q 458 595 447 595 q 433 570 439 587 q 427 532 427 554 l 427 527 l 427 73 z "},"p":{"ha":593,"x_min":3,"x_max":590,"o":"m 277 576 l 277 105 q 365 74 311 102 q 453 11 418 46 l 453 514 q 389 534 433 515 q 346 576 346 554 l 346 577 q 344 568 344 572 q 424 505 344 534 q 330 535 366 513 q 277 576 294 557 m 276 -11 l 276 -244 q 322 -211 298 -224 q 375 -186 346 -198 q 307 -240 336 -210 q 251 -316 279 -271 q 205 -398 224 -361 q 171 -482 187 -435 q 155 -455 167 -470 q 126 -426 142 -439 q 94 -406 111 -412 q 68 -402 82 -402 q 58 -403 62 -402 q 3 -429 37 -405 q 34 -398 13 -411 q 73 -384 56 -385 l 77 -384 q 113 -389 94 -384 q 148 -343 133 -360 q 184 -305 163 -326 q 240 -266 206 -284 q 156 -307 192 -273 l 156 551 q 140 572 154 567 q 349 690 308 629 q 438 623 361 661 q 568 589 503 589 q 590 590 579 589 q 565 564 571 582 q 559 526 559 549 l 559 522 l 559 68 q 561 49 559 56 q 567 35 562 43 q 587 18 572 27 q 568 20 580 20 q 526 16 551 20 q 462 -5 484 8 q 425 -34 439 -18 q 398 -68 410 -49 q 380 -117 386 -87 q 346 -57 373 -85 q 277 -11 319 -28 l 276 -11 z "},"q":{"ha":652,"x_min":3,"x_max":649,"o":"m 438 -198 q 454 -249 438 -231 q 495 -275 471 -268 q 513 -278 503 -278 q 548 -269 529 -278 q 649 -222 576 -256 q 550 -296 590 -259 q 485 -363 511 -332 q 437 -442 460 -393 q 438 -429 438 -436 q 415 -364 438 -397 q 350 -307 387 -326 q 302 -297 328 -297 q 260 -303 283 -297 q 313 -163 313 -279 q 311 -113 313 -140 l 311 62 q 270 43 290 60 q 227 6 249 26 q 194 -39 205 -14 q 178 -98 182 -63 q 146 -34 172 -60 q 87 9 121 -8 q 8 32 54 27 q 47 79 47 40 l 47 473 q 36 508 47 498 q 3 519 25 519 q 103 590 62 549 q 175 682 144 631 q 249 648 192 673 q 365 580 305 623 q 474 489 425 537 q 437 451 437 484 q 438 444 437 448 l 438 -198 m 385 531 q 271 611 332 583 q 191 633 219 633 q 180 633 185 633 l 180 71 q 214 35 207 60 q 269 75 250 62 q 310 96 288 87 l 309 569 q 385 531 328 567 z "},"r":{"ha":475,"x_min":3,"x_max":471,"o":"m 3 635 q 60 685 39 663 q 100 738 81 707 q 133 683 114 702 q 168 652 153 663 q 201 641 183 641 q 240 659 219 641 q 274 699 260 677 q 301 757 288 722 q 323 696 305 719 q 365 659 342 674 q 415 636 388 644 q 436 633 425 633 q 471 641 453 633 q 319 514 394 554 q 326 541 326 528 q 322 559 326 551 q 290 602 313 581 q 242 616 273 616 q 219 614 231 616 q 141 525 171 607 q 224 603 192 603 q 231 602 227 603 l 231 45 q 252 31 238 31 q 257 32 254 31 q 287 41 275 35 q 321 73 300 48 q 265 -7 277 12 q 247 -43 252 -26 q 241 -93 241 -60 q 191 -44 227 -63 q 126 -20 155 -26 q 102 -18 115 -18 q 56 -24 81 -18 q 90 1 74 -11 q 114 62 106 14 l 114 519 q 97 597 114 576 q 58 627 79 618 q 3 635 37 635 z "},"s":{"ha":505,"x_min":3,"x_max":502,"o":"m 79 585 l 83 585 q 218 640 151 585 q 302 735 286 695 q 344 668 314 698 q 410 621 374 638 q 494 604 446 604 q 394 494 429 580 q 302 549 340 520 q 256 603 264 578 q 300 680 289 638 q 253 623 277 646 q 208 591 229 599 l 208 356 q 272 314 247 346 q 319 365 297 337 q 351 414 341 393 q 356 437 356 425 q 353 456 356 446 q 411 414 385 442 q 454 361 437 387 q 494 331 471 335 q 481 277 482 315 l 481 79 q 502 48 481 58 q 440 26 480 48 q 370 -31 401 3 q 325 -126 340 -65 q 314 -79 325 -104 q 258 -31 302 -54 q 189 -14 224 -14 q 166 -16 178 -14 q 91 -40 120 -24 q 3 -118 61 -56 q 83 -11 25 -74 q 163 86 141 52 q 191 183 186 121 q 192 157 192 170 q 186 106 192 130 q 126 18 177 71 q 201 106 165 37 q 228 106 216 106 q 303 93 279 106 q 347 65 333 76 q 383 32 361 55 l 382 243 q 361 278 374 264 q 329 301 348 292 q 310 306 319 306 q 290 301 300 306 l 309 292 q 271 243 294 273 q 239 181 248 213 q 203 227 225 209 q 149 253 181 244 q 87 262 117 262 q 108 418 108 299 l 108 429 q 79 585 106 557 z "},"t":{"ha":478,"x_min":3,"x_max":475,"o":"m 3 669 q 149 728 60 711 l 149 847 q 211 878 178 850 q 260 959 243 905 l 260 746 q 336 735 304 735 q 368 738 353 735 q 442 770 410 747 q 470 826 470 791 q 469 837 470 831 q 475 811 475 825 q 463 770 475 791 q 409 707 441 734 q 339 667 376 680 q 296 661 319 661 q 256 665 277 661 l 256 71 q 276 34 264 43 q 311 15 288 24 q 371 51 347 37 q 434 79 395 65 q 361 28 389 49 q 310 -22 334 7 q 271 -88 286 -50 q 262 -132 262 -112 q 266 -159 262 -146 q 199 -90 230 -130 q 153 -30 168 -50 q 127 15 138 -10 q 113 92 116 39 q 235 -71 137 1 q 148 87 152 22 l 149 648 l 234 667 q 189 664 211 664 q 111 674 147 664 q 62 680 86 680 q 3 669 32 680 z "},"u":{"ha":616,"x_min":3,"x_max":612,"o":"m 3 581 q 63 598 31 581 q 116 642 96 615 q 144 701 136 669 q 162 639 151 664 q 193 600 172 614 q 250 587 210 587 l 262 587 q 187 561 216 561 q 177 562 182 561 q 115 591 147 568 q 203 539 146 553 l 203 121 q 235 72 212 85 q 279 60 256 60 q 286 60 282 60 q 332 77 311 62 q 355 129 353 92 l 355 536 q 330 582 344 569 q 289 600 317 594 q 342 613 324 604 q 383 643 360 623 q 415 687 406 663 q 447 644 424 661 q 489 619 470 626 q 564 612 508 612 q 488 562 513 602 l 488 117 q 514 75 488 89 q 542 68 527 68 q 568 73 554 68 q 612 149 595 85 q 574 46 608 90 q 517 -22 541 3 q 494 -79 494 -47 q 430 -37 457 -62 q 389 11 403 -11 q 372 56 374 32 q 443 143 420 83 q 369 75 413 96 q 298 28 325 54 q 260 -24 272 1 q 250 -66 250 -45 l 250 -73 q 169 -31 206 -62 q 106 27 132 0 q 56 96 80 55 l 84 93 l 84 572 q 47 568 62 568 l 40 568 q 3 581 23 569 z "},"v":{"ha":568,"x_min":3,"x_max":564,"o":"m 488 0 q 442 74 477 56 q 406 82 425 82 q 366 73 387 82 q 298 28 325 54 q 260 -24 272 1 q 250 -66 250 -45 l 250 -73 q 169 -31 206 -62 q 106 27 132 0 q 56 96 80 55 q 201 -19 134 -2 q 84 93 149 -3 l 84 572 q 47 568 62 568 l 40 568 q 3 581 23 569 q 63 598 31 581 q 116 642 96 615 q 144 701 136 669 q 162 639 151 664 q 193 600 172 614 q 250 587 210 587 l 262 587 q 187 561 216 561 q 177 562 182 561 q 115 591 147 568 q 203 539 146 553 l 203 121 q 235 72 212 85 q 279 60 256 60 q 286 60 282 60 q 332 77 311 62 q 355 129 353 92 l 355 536 q 330 582 344 569 q 289 600 317 594 q 342 613 324 604 q 383 643 360 623 q 415 687 406 663 q 447 644 424 661 q 489 619 470 626 q 564 612 508 612 q 488 562 513 602 l 488 0 z "},"w":{"ha":859,"x_min":3,"x_max":855,"o":"m 366 73 q 492 -19 433 -4 q 375 93 439 -3 l 375 572 q 338 568 353 568 l 331 568 q 294 581 314 569 q 354 598 322 581 q 407 642 387 615 q 435 701 427 669 q 453 639 442 664 q 484 600 463 614 q 541 587 501 587 l 553 587 q 478 561 507 561 q 468 562 473 561 q 406 591 438 568 q 494 539 437 553 l 494 121 q 526 72 503 85 q 570 60 547 60 q 576 60 573 60 q 623 77 602 62 q 646 129 644 92 l 646 536 q 621 582 635 569 q 580 600 608 594 q 633 613 615 604 q 674 643 651 623 q 706 687 696 663 q 738 644 715 661 q 780 619 761 626 q 855 612 799 612 q 779 562 804 602 l 779 0 q 733 74 768 56 q 697 82 715 82 q 657 73 678 82 q 589 28 616 54 q 551 -24 563 1 q 541 -66 541 -45 l 541 -73 q 460 -31 497 -62 q 397 28 422 0 q 363 71 379 46 q 298 28 323 53 q 260 -24 272 1 q 250 -66 250 -45 l 250 -73 q 169 -31 206 -62 q 106 27 132 0 q 56 96 80 55 q 201 -19 134 -2 q 84 93 149 -3 l 84 572 q 47 568 62 568 l 40 568 q 3 581 23 569 q 63 598 31 581 q 116 642 96 615 q 144 701 136 669 q 162 639 151 664 q 193 600 172 614 q 250 587 210 587 l 262 587 q 187 561 216 561 q 177 562 182 561 q 115 591 147 568 q 203 539 146 553 l 203 121 q 235 72 212 85 q 279 60 256 60 q 286 60 282 60 q 332 77 311 62 q 349 99 343 85 q 366 73 366 73 z "},"x":{"ha":547,"x_min":3,"x_max":544,"o":"m 134 -21 q 68 -77 98 -34 q 22 -161 34 -124 q 14 -220 14 -187 q 16 -249 14 -234 q 45 -347 20 -300 q 5 -240 10 -294 q 3 -211 3 -225 q 14 -142 3 -174 q 59 -53 26 -100 q 141 39 91 -5 q 183 103 174 70 l 182 269 q 243 286 200 286 q 271 284 256 286 q 210 296 243 292 q 146 300 177 299 l 131 300 q 76 298 106 300 q 3 281 35 295 q 90 335 37 300 q 145 389 142 369 q 186 399 161 395 l 186 519 q 169 597 186 576 q 131 627 152 618 q 76 635 109 635 q 133 685 112 663 q 173 738 153 707 q 206 683 186 702 q 240 652 225 663 q 274 641 256 641 q 312 659 292 641 q 347 699 333 677 q 374 757 361 722 q 396 696 378 719 q 437 659 414 674 q 488 636 460 644 q 509 633 498 633 q 544 641 526 633 q 391 514 467 554 q 398 541 398 528 q 395 559 398 551 q 363 602 386 581 q 315 616 345 616 q 292 614 304 616 q 214 525 243 607 q 297 603 264 603 q 303 602 300 603 l 303 399 l 307 399 q 494 363 427 391 l 490 363 q 445 351 471 363 q 390 307 416 337 q 354 244 364 277 q 303 277 349 264 l 303 52 q 325 38 311 38 q 330 39 327 38 q 360 48 347 41 q 394 80 372 55 q 337 0 350 19 q 319 -36 325 -20 q 314 -86 314 -53 q 263 -38 299 -56 q 199 -14 228 -19 q 181 -12 191 -12 q 134 -21 159 -12 z "},"y":{"ha":566,"x_min":3,"x_max":563,"o":"m 486 -256 q 502 -296 486 -286 q 445 -316 480 -296 q 375 -374 410 -335 q 325 -471 340 -414 q 326 -465 326 -468 q 307 -422 326 -446 q 233 -378 284 -397 q 158 -363 194 -363 q 137 -365 147 -363 q 57 -392 92 -370 q 3 -463 23 -414 q 67 -364 6 -418 q 159 -254 127 -310 q 208 -139 190 -199 q 182 -241 195 -210 q 145 -308 169 -273 q 204 -232 167 -294 q 280 -245 250 -234 q 338 -274 311 -256 q 383 -313 365 -291 l 383 44 q 425 71 395 45 q 469 143 454 96 q 395 75 439 96 q 324 28 351 54 q 286 -24 298 1 q 276 -66 276 -45 l 276 -73 q 195 -31 232 -62 q 132 27 157 0 q 82 96 106 55 l 110 93 l 110 572 q 73 568 87 568 l 66 568 q 29 581 49 569 q 89 598 57 581 q 142 642 121 615 q 170 701 162 669 q 188 639 177 664 q 218 600 198 614 q 276 587 236 587 l 288 587 q 213 561 241 561 q 203 562 208 561 q 141 591 173 568 q 229 539 172 553 l 229 121 q 261 72 237 85 q 305 60 282 60 q 311 60 308 60 q 358 77 337 62 q 381 129 378 92 l 381 536 q 356 582 370 569 q 315 600 342 594 q 368 613 350 604 q 409 643 386 623 q 441 687 431 663 q 459 644 450 661 q 488 619 469 626 q 563 612 507 612 q 487 562 512 602 l 486 -256 z "},"z":{"ha":551,"x_min":3,"x_max":547,"o":"m 179 280 q 166 281 179 280 q 130 281 154 281 q 76 279 106 281 q 3 262 35 276 q 90 316 37 281 q 145 370 142 350 q 186 380 161 376 l 254 380 q 289 418 273 400 q 342 491 325 458 l 342 600 q 294 635 317 616 q 251 688 272 654 q 294 611 262 646 q 249 557 287 587 q 157 503 211 528 q 56 612 121 588 q 141 629 105 612 q 207 676 176 646 q 248 743 237 706 q 333 648 264 703 q 468 593 400 593 l 471 593 q 445 493 451 572 q 464 397 448 424 q 403 374 433 397 q 397 370 400 372 q 494 344 455 361 l 490 344 q 445 332 471 344 q 390 288 416 318 q 354 225 364 258 q 303 258 349 245 l 286 263 q 217 185 243 214 q 171 113 180 147 q 165 70 165 92 q 168 40 165 55 q 204 74 190 63 q 248 101 218 84 q 323 115 271 115 q 349 114 335 115 q 425 26 382 42 q 366 112 372 85 q 359 165 359 138 q 360 191 359 178 q 387 95 365 130 q 468 -3 410 60 q 547 -110 526 -66 q 460 -32 490 -48 q 385 -7 431 -16 q 361 -6 373 -6 q 293 -23 327 -6 q 237 -71 248 -46 q 226 -118 226 -96 q 180 -23 211 -57 q 110 34 150 12 q 49 56 71 56 q 70 87 70 66 q 71 132 71 111 q 71 159 71 146 q 57 205 68 189 q 121 245 80 211 q 143 263 132 254 q 165 266 153 264 q 202 269 178 268 l 212 269 q 267 267 234 269 q 217 277 230 275 q 179 280 203 279 z "},"{":{"ha":688,"x_min":163,"x_max":600,"o":"m 163 473 q 314 522 279 477 q 349 612 349 566 l 349 929 q 401 1025 349 979 q 526 1071 453 1071 l 600 1071 l 600 1037 l 538 1037 q 466 1014 497 1037 q 434 952 435 991 l 434 613 q 393 506 434 557 q 296 454 352 454 l 296 452 q 393 401 352 452 q 435 294 435 350 l 434 -45 q 466 -107 435 -85 q 538 -130 497 -130 l 600 -130 l 600 -164 l 526 -164 q 401 -118 453 -164 q 349 -22 349 -73 l 349 295 q 314 385 349 340 q 163 433 279 429 l 163 473 z "},"|":{"ha":688,"x_min":290,"x_max":398,"o":"m 290 1069 l 398 1069 l 398 -283 l 290 -283 l 290 1069 z "},"}":{"ha":688,"x_min":88,"x_max":525,"o":"m 525 433 q 374 385 408 429 q 339 295 339 340 l 339 -22 q 287 -118 338 -73 q 161 -164 235 -164 l 88 -164 l 88 -130 l 149 -130 q 222 -107 191 -130 q 254 -45 253 -85 l 253 294 q 294 401 253 350 q 392 452 336 452 l 392 454 q 295 506 336 454 q 254 613 254 557 l 254 952 q 222 1014 253 991 q 149 1037 191 1037 l 88 1037 l 88 1071 l 161 1071 q 287 1025 235 1071 q 339 929 339 979 l 339 612 q 374 522 339 566 q 525 473 408 477 l 525 433 z "},"~":{"ha":688,"x_min":64,"x_max":626,"o":"m 626 595 l 626 490 q 543 424 583 441 q 465 406 503 406 q 344 439 424 406 q 224 472 264 472 q 152 453 190 472 q 64 377 113 434 l 64 483 q 147 550 107 532 q 224 568 187 568 q 348 534 268 568 q 465 500 427 500 q 538 519 500 500 q 626 595 576 538 z "},"¡":{"ha":456,"x_min":140,"x_max":385,"o":"m 341 640 l 286 583 q 266 574 275 574 q 245 585 257 574 l 191 643 q 182 663 182 654 q 192 684 182 673 l 246 743 q 266 757 260 757 q 286 747 277 757 l 345 679 q 352 661 352 670 q 341 640 352 651 m 326 -206 q 348 -268 336 -251 q 385 -292 360 -284 q 337 -310 353 -297 q 301 -350 321 -323 q 273 -409 281 -377 q 244 -351 264 -374 q 207 -318 224 -328 q 140 -308 191 -308 q 208 -241 186 -294 l 242 398 q 151 614 249 498 q 245 519 223 535 q 283 507 268 503 q 321 541 305 513 q 309 508 321 523 q 290 398 298 492 l 326 -206 z "},"¢":{"ha":688,"x_min":0,"x_max":450,"o":"m 155 134 q 184 75 157 95 q 240 60 205 60 q 263 61 251 60 q 358 112 314 67 q 419 191 401 157 q 441 277 437 226 q 442 298 442 288 q 429 378 442 338 q 450 282 450 329 l 450 266 q 429 176 446 212 q 357 86 412 140 q 279 13 303 32 q 241 -21 254 -7 q 224 -52 227 -36 q 224 -64 224 -57 q 227 -93 224 -76 q 159 -9 199 -45 q 75 43 120 26 q 0 65 31 60 q 26 78 20 68 q 33 115 33 87 l 32 574 l 32 575 q 0 610 32 599 q 97 655 34 613 q 169 732 161 696 q 216 672 180 700 q 298 622 252 644 q 379 597 344 601 q 303 537 351 587 q 221 490 258 490 l 217 490 q 263 514 239 496 q 324 574 288 532 q 256 531 300 553 q 201 553 231 536 q 155 600 172 570 l 155 134 m 69 -34 l 15 -34 l 382 972 l 436 972 l 69 -34 z "},"£":{"ha":688,"x_min":52,"x_max":635,"o":"m 507 913 q 399 935 458 935 l 397 935 q 269 866 330 935 q 212 703 212 803 q 212 682 212 692 q 248 497 212 591 l 492 497 l 492 456 l 266 456 q 287 416 275 436 q 311 322 311 373 q 201 68 311 213 l 473 68 q 602 157 562 68 l 635 157 l 565 0 l 77 0 l 78 34 q 205 317 205 195 q 182 414 205 370 q 161 456 170 436 l 52 456 l 52 497 l 143 497 q 104 669 104 594 q 188 904 104 822 q 395 986 271 986 l 398 986 q 524 977 449 986 q 599 954 599 967 l 599 844 l 559 844 q 507 913 556 886 z "},"¤":{"ha":688,"x_min":83,"x_max":604,"o":"m 237 380 q 304 341 265 353 q 344 336 324 336 q 383 341 363 336 q 450 380 422 353 q 489 447 477 408 q 495 486 495 467 q 489 526 495 506 q 450 593 477 565 q 382 631 422 620 q 343 637 363 637 q 304 631 323 637 q 237 593 264 619 q 199 526 211 566 q 193 486 193 506 q 199 448 193 467 q 237 380 210 408 m 163 612 l 83 692 l 137 747 l 217 667 q 284 699 247 688 q 345 708 314 708 q 401 700 372 708 q 470 667 439 688 l 550 747 l 604 692 l 525 613 q 557 544 546 582 q 566 486 566 515 q 557 429 566 458 q 525 359 546 391 l 604 280 l 550 225 l 470 305 q 401 273 439 283 q 344 264 373 264 q 286 273 315 264 q 217 305 248 283 l 137 225 l 83 280 l 163 359 q 130 429 141 391 q 122 486 122 458 q 131 545 122 516 q 163 612 142 583 z "},"¥":{"ha":856,"x_min":5,"x_max":864,"o":"m 371 153 l 370 317 q 369 340 370 330 q 366 362 368 351 l 37 363 q 23 367 28 363 q 18 380 18 372 q 23 393 18 389 q 37 397 27 397 l 354 397 l 272 514 l 39 514 q 23 518 27 514 q 18 530 18 522 q 22 544 18 540 q 37 547 26 547 l 245 547 q 172 652 216 586 q 18 786 83 786 q 9 790 14 786 q 5 798 5 793 q 13 816 5 810 q 35 822 20 822 q 118 817 53 822 q 229 811 183 811 l 289 811 q 317 807 311 811 q 322 789 322 802 q 312 779 322 783 q 286 775 302 775 q 274 777 282 775 q 261 778 265 778 q 236 771 245 778 q 227 754 227 765 q 238 719 227 742 q 269 667 249 696 l 376 517 q 399 481 385 504 q 447 433 427 433 q 458 437 453 433 q 468 447 463 440 l 656 715 q 665 733 661 724 q 668 750 668 743 q 661 768 668 762 q 636 778 654 774 q 608 781 626 779 q 576 798 576 783 q 582 813 576 808 q 599 818 587 818 q 609 817 601 818 q 682 812 647 812 l 777 812 q 821 813 797 812 q 846 814 844 814 q 858 811 853 814 q 864 803 863 808 q 838 780 864 784 q 820 777 826 778 q 720 697 777 766 q 712 687 715 691 l 597 547 l 817 547 q 833 543 827 547 q 839 532 839 539 q 835 518 839 522 q 819 514 831 514 l 571 514 q 506 438 540 475 q 470 397 471 400 l 817 397 q 834 394 829 397 q 839 382 839 390 q 834 368 839 372 q 819 363 829 363 l 460 363 q 459 342 460 355 q 458 322 458 329 l 460 176 q 464 75 460 99 q 477 45 467 50 q 550 32 498 33 q 603 11 603 31 q 596 -3 603 3 q 579 -8 589 -8 q 555 -5 578 -8 q 511 -3 532 -3 q 370 -5 450 -3 q 273 -8 290 -8 q 246 -5 252 -8 q 240 5 240 -3 q 245 18 240 14 q 271 26 251 22 q 288 30 277 28 q 350 52 338 41 q 366 83 361 60 q 371 153 371 106 z "},"¦":{"ha":688,"x_min":290,"x_max":398,"o":"m 290 252 l 398 252 l 398 -283 l 290 -283 l 290 252 m 290 1070 l 398 1070 l 398 535 l 290 535 l 290 1070 z "},"§":{"ha":688,"x_min":115,"x_max":572,"o":"m 370 218 q 435 254 408 229 q 485 366 485 298 q 484 373 485 370 l 483 373 q 480 391 482 382 q 404 477 465 433 q 318 497 363 497 q 233 467 265 497 q 201 387 201 437 q 370 218 201 304 m 316 -235 q 441 -188 393 -231 q 490 -76 490 -144 q 276 111 490 9 q 157 204 193 155 q 121 324 121 254 q 182 485 121 425 q 297 541 227 529 l 270 553 q 151 646 186 597 q 115 766 115 696 q 176 927 115 867 q 322 985 231 981 q 334 986 328 986 l 336 986 q 446 975 380 986 q 512 947 512 964 l 512 815 l 477 815 q 423 905 474 870 q 322 939 376 937 l 312 939 q 227 909 259 939 q 195 829 195 879 q 390 647 195 740 q 529 550 491 602 q 566 422 566 498 q 498 231 566 307 q 431 188 466 205 q 535 108 504 150 q 572 -19 572 56 q 504 -211 572 -135 q 316 -282 420 -280 l 316 -281 q 307 -282 312 -282 l 305 -282 q 195 -271 260 -282 q 129 -243 129 -260 l 129 -111 l 163 -111 q 218 -201 167 -166 q 316 -235 264 -231 z "},"¨":{"ha":694,"x_min":142,"x_max":536,"o":"m 151 874 l 199 923 q 216 931 208 931 q 235 922 224 931 l 281 872 q 288 855 288 863 q 280 837 288 846 l 233 786 q 216 774 222 774 q 199 783 207 774 l 148 841 q 142 857 142 849 q 151 874 142 865 m 399 874 l 447 923 q 464 931 456 931 q 482 922 471 931 l 529 872 q 536 855 536 863 q 528 838 536 846 l 481 786 q 464 774 469 774 q 447 783 454 774 l 395 842 q 389 857 389 849 q 399 874 389 865 z "},"©":{"ha":1135,"x_min":68,"x_max":1067,"o":"m 570 987 q 760 949 668 987 q 922 840 851 911 q 1029 679 991 772 q 1067 487 1067 586 q 1029 296 1067 387 q 919 133 991 204 q 757 25 848 62 q 565 -12 666 -12 q 376 25 466 -12 q 215 134 287 63 q 105 295 143 205 q 68 487 68 386 q 105 679 68 587 q 214 840 143 770 q 375 949 283 911 q 570 987 468 987 m 242 812 q 143 663 178 747 q 109 487 109 579 q 143 311 109 394 q 243 163 178 229 q 392 63 310 98 q 566 28 474 28 q 742 63 659 28 q 890 161 825 97 q 991 312 956 228 q 1027 487 1027 395 q 991 663 1027 578 q 893 812 956 748 q 744 912 828 877 q 569 947 660 947 q 391 912 476 947 q 242 812 307 877 m 587 151 q 408 197 490 151 q 281 323 325 243 q 238 488 238 402 q 282 653 238 573 q 410 778 327 733 q 582 823 492 823 q 633 819 608 823 q 684 805 658 814 q 690 804 688 804 q 708 825 703 804 l 736 825 l 785 690 l 755 690 q 667 774 720 754 q 567 792 618 792 l 557 792 q 444 744 498 787 q 361 624 389 701 q 339 499 339 563 q 340 465 339 482 q 388 313 348 383 q 489 210 427 243 q 602 182 538 183 q 733 220 686 182 q 781 305 781 258 l 817 305 l 817 237 q 751 179 817 206 q 587 151 686 151 z "},"ª":{"ha":439,"x_min":0,"x_max":0,"o":""},"«":{"ha":640,"x_min":118,"x_max":572,"o":"m 118 325 l 350 530 l 359 530 l 359 505 l 220 325 l 359 144 l 359 119 l 350 119 l 118 325 m 330 325 l 562 530 l 572 530 l 572 505 l 433 325 l 572 144 l 572 119 l 562 119 l 330 325 z "},"¬":{"ha":688,"x_min":59,"x_max":629,"o":"m 59 520 l 629 520 l 629 187 l 628 186 l 562 186 l 562 452 l 59 452 l 59 520 z "},"®":{"ha":1135,"x_min":68,"x_max":1067,"o":"m 509 745 l 509 492 l 511 486 q 549 431 527 448 q 587 416 569 416 l 591 416 q 633 443 612 419 q 665 509 654 466 q 673 578 673 543 q 673 597 673 587 q 654 681 670 642 q 615 733 637 720 q 572 745 593 745 l 509 745 m 667 391 l 723 312 q 825 216 791 216 l 848 216 l 848 182 l 613 182 l 613 216 l 644 216 q 664 231 664 216 q 617 309 664 251 l 566 378 q 509 406 538 378 l 509 298 q 534 216 509 216 l 570 216 l 570 182 l 355 182 l 355 216 l 385 216 q 410 298 410 216 l 410 663 q 385 745 410 745 l 355 745 l 355 793 l 597 793 q 682 764 640 792 q 744 687 722 736 q 766 584 766 637 q 745 482 766 531 q 667 391 723 433 m 570 987 q 760 949 668 987 q 922 840 851 911 q 1029 679 991 772 q 1067 487 1067 586 q 1029 296 1067 387 q 919 133 991 204 q 757 25 848 62 q 565 -12 666 -12 q 376 25 466 -12 q 215 134 287 63 q 105 295 143 205 q 68 487 68 386 q 105 679 68 587 q 214 840 143 770 q 375 949 283 911 q 570 987 468 987 m 242 812 q 143 663 178 747 q 109 487 109 579 q 143 311 109 394 q 243 163 178 229 q 392 63 310 98 q 566 28 474 28 q 742 63 659 28 q 890 161 825 97 q 991 312 956 228 q 1027 487 1027 395 q 991 663 1027 578 q 893 812 956 748 q 744 912 828 877 q 569 947 660 947 q 391 912 476 947 q 242 812 307 877 z "},"¯":{"ha":454,"x_min":0,"x_max":0,"o":""},"°":{"ha":457,"x_min":41,"x_max":418,"o":"m 230 930 q 130 889 172 930 q 88 789 88 848 q 130 689 88 730 q 230 648 171 648 q 330 689 289 648 q 370 789 370 730 q 329 889 370 848 q 230 930 288 930 m 230 978 q 363 923 308 978 q 418 789 418 867 q 362 656 418 712 q 229 601 307 601 q 95 656 149 601 q 41 789 41 711 q 96 923 41 868 q 230 978 151 978 z "},"´":{"ha":694,"x_min":214,"x_max":527,"o":"m 412 932 q 449 964 435 956 q 477 972 463 972 q 513 959 499 972 q 527 924 527 945 q 516 896 527 909 q 485 869 506 882 l 261 731 l 214 731 l 412 932 z "},"¶":{"ha":694,"x_min":63,"x_max":630,"o":"m 630 973 l 630 926 l 544 926 l 544 0 l 488 0 l 488 926 l 376 926 l 376 0 l 319 0 l 319 500 q 132 570 201 506 q 63 736 63 634 q 136 908 63 843 q 330 973 209 973 l 630 973 z "},"·":{"ha":345,"x_min":87,"x_max":257,"o":"m 98 502 l 154 559 q 174 568 164 568 q 195 557 182 568 l 249 499 q 257 479 257 488 q 248 458 257 469 l 193 399 q 174 385 180 385 q 154 395 163 385 l 94 463 q 87 481 87 472 q 98 502 87 491 z "},"∙":{"ha":345,"x_min":87,"x_max":257,"o":"m 98 502 l 154 559 q 174 568 164 568 q 195 557 182 568 l 249 499 q 257 479 257 488 q 248 458 257 469 l 193 399 q 174 385 180 385 q 154 395 163 385 l 94 463 q 87 481 87 472 q 98 502 87 491 z "},"¸":{"ha":694,"x_min":244,"x_max":521,"o":"m 244 -197 q 347 -232 302 -232 q 411 -217 392 -232 q 431 -172 431 -203 q 397 -129 431 -142 q 328 -118 370 -118 q 305 -119 317 -118 l 338 0 l 380 0 l 355 -71 q 397 -67 377 -68 q 488 -95 456 -67 q 521 -172 521 -122 q 481 -253 521 -223 q 372 -283 441 -283 q 244 -262 298 -283 l 244 -197 z "},"¹":{"ha":688,"x_min":106,"x_max":413,"o":"m 219 789 q 330 869 296 797 l 332 80 q 351 50 342 56 q 363 47 356 47 q 377 50 369 47 l 413 68 q 377 33 393 52 q 349 -3 361 14 q 333 -35 338 -20 q 328 -65 328 -51 q 280 -21 317 -35 q 213 -5 244 -7 q 172 -3 182 -3 q 156 -5 164 -3 q 222 37 207 14 l 222 736 q 179 718 201 718 q 165 720 172 718 q 106 771 136 728 q 183 794 146 775 q 271 850 220 813 q 347 925 322 887 q 385 1014 372 962 q 354 917 385 970 q 219 789 324 863 z "},"º":{"ha":354,"x_min":3,"x_max":351,"o":"m 121 943 l 121 660 q 179 641 143 658 q 237 603 214 624 l 237 905 q 195 917 224 905 q 166 943 166 929 l 166 943 q 165 937 165 940 q 218 899 165 917 q 155 917 179 904 q 121 943 132 931 m 307 637 q 308 626 307 630 q 312 618 309 622 q 325 608 316 613 q 312 609 320 609 q 285 606 302 609 q 243 594 257 602 q 218 577 228 586 q 201 556 209 567 q 188 527 192 545 q 166 563 184 545 q 125 590 148 580 q 75 602 102 600 q 67 602 71 602 q 27 595 45 602 q 40 618 39 602 l 40 927 q 30 940 39 937 q 168 1010 141 974 q 227 970 176 993 q 312 950 270 950 q 327 951 320 950 q 311 935 315 946 q 307 912 307 926 l 307 910 l 307 637 m 3 486 l 351 486 l 351 446 l 3 446 l 3 486 z "},"»":{"ha":640,"x_min":68,"x_max":522,"o":"m 78 119 l 68 119 l 68 144 l 208 325 l 68 505 l 68 530 l 78 530 l 310 325 l 78 119 m 290 119 l 281 119 l 281 144 l 420 325 l 281 505 l 281 530 l 290 530 l 522 325 l 290 119 z "},"¿":{"ha":507,"x_min":90,"x_max":584,"o":"m 484 239 q 486 234 485 236 q 428 180 465 226 q 408 155 418 168 q 388 152 399 154 q 355 149 376 149 l 343 149 q 296 150 323 149 q 341 137 329 140 q 376 133 353 134 q 420 131 398 131 q 469 134 442 131 q 534 157 506 138 q 457 85 505 131 q 406 12 409 39 q 368 -2 392 3 l 307 -3 q 276 -54 290 -29 q 227 -152 243 -108 l 227 -298 q 271 -346 251 -320 q 310 -417 291 -372 q 271 -313 300 -361 q 345 -238 277 -281 q 493 -161 413 -196 q 584 -309 525 -276 q 494 -329 540 -309 q 386 -395 448 -349 q 313 -492 323 -441 q 235 -363 298 -437 q 113 -289 175 -289 l 110 -289 q 134 -155 129 -260 q 117 -24 131 -61 q 172 5 144 -24 q 177 11 175 8 q 90 47 125 24 l 93 47 q 134 63 111 47 q 184 122 160 81 q 216 207 208 163 q 263 163 222 180 l 279 155 q 341 260 317 222 q 383 359 367 300 l 484 239 m 382 798 q 442 753 413 772 q 470 712 470 737 q 469 707 470 710 q 413 625 467 680 q 352 545 359 570 q 350 528 350 536 q 359 495 350 512 q 395 454 372 470 q 334 499 357 470 q 293 563 312 528 q 273 637 275 597 l 273 640 q 295 705 273 679 q 342 752 317 731 q 382 798 366 773 z "},"À":{"ha":500,"x_min":3,"x_max":475,"o":"m 104 -338 l 97 -338 q 48 -387 61 -342 q 41 -443 41 -412 q 46 -504 41 -471 q 96 -618 58 -576 q 175 -669 135 -660 q 194 -672 184 -672 q 257 -648 224 -672 q 332 -562 299 -617 q 384 -363 366 -507 q 344 -627 371 -525 q 264 -764 317 -729 q 210 -781 238 -781 q 153 -764 182 -781 q 68 -653 95 -731 q 33 -501 41 -576 q 28 -420 28 -458 q 31 -364 28 -391 q 53 -254 37 -301 q 98 -173 68 -207 q 141 -153 117 -153 q 175 -164 155 -153 q 219 -201 195 -176 q 185 -290 200 -235 q 172 -392 172 -338 l 172 -406 q 145 -354 155 -371 q 104 -338 136 -338 m 399 747 l 398 156 l 399 -148 q 475 -414 399 -288 q 391 -319 422 -345 q 336 -293 359 -294 l 331 -293 q 290 -300 310 -293 q 252 -348 268 -309 q 264 -301 252 -323 q 283 -148 275 -280 l 283 351 l 149 351 l 149 -109 q 81 -153 115 -111 q 33 -259 48 -196 q 12 -408 17 -321 q 7 -335 7 -370 q 9 -295 7 -315 q 23 -204 14 -244 q 37 -81 33 -163 l 38 745 q 3 809 38 788 q 109 890 40 814 q 186 1032 178 966 q 237 921 198 972 q 326 830 277 869 q 414 784 376 791 q 399 747 407 766 m 149 386 l 281 385 l 281 699 q 280 707 281 703 q 241 732 264 717 q 149 831 187 768 l 149 386 m 344 985 l 297 985 l 73 1122 q 42 1149 52 1136 q 31 1178 31 1163 q 45 1213 31 1199 q 81 1226 59 1226 q 109 1218 95 1226 q 146 1186 123 1210 l 344 985 z "},"Á":{"ha":500,"x_min":3,"x_max":475,"o":"m 104 -338 l 97 -338 q 48 -387 61 -342 q 41 -443 41 -412 q 46 -504 41 -471 q 96 -618 58 -576 q 175 -669 135 -660 q 194 -672 184 -672 q 257 -648 224 -672 q 332 -562 299 -617 q 384 -363 366 -507 q 344 -627 371 -525 q 264 -764 317 -729 q 210 -781 238 -781 q 153 -764 182 -781 q 68 -653 95 -731 q 33 -501 41 -576 q 28 -420 28 -458 q 31 -364 28 -391 q 53 -254 37 -301 q 98 -173 68 -207 q 141 -153 117 -153 q 175 -164 155 -153 q 219 -201 195 -176 q 185 -290 200 -235 q 172 -392 172 -338 l 172 -406 q 145 -354 155 -371 q 104 -338 136 -338 m 399 747 l 398 156 l 399 -148 q 475 -414 399 -288 q 391 -319 422 -345 q 336 -293 359 -294 l 331 -293 q 290 -300 310 -293 q 252 -348 268 -309 q 264 -301 252 -323 q 283 -148 275 -280 l 283 351 l 149 351 l 149 -109 q 81 -153 115 -111 q 33 -259 48 -196 q 12 -408 17 -321 q 7 -335 7 -370 q 9 -295 7 -315 q 23 -204 14 -244 q 37 -81 33 -163 l 38 745 q 3 809 38 788 q 109 890 40 814 q 186 1032 178 966 q 237 921 198 972 q 326 830 277 869 q 414 784 376 791 q 399 747 407 766 m 149 386 l 281 385 l 281 699 q 280 707 281 703 q 241 732 264 717 q 149 831 187 768 l 149 386 m 332 1186 q 370 1218 356 1210 q 397 1226 384 1226 q 434 1213 420 1226 q 448 1178 448 1199 q 437 1149 448 1163 q 406 1122 427 1136 l 182 985 l 135 985 l 332 1186 z "},"Â":{"ha":500,"x_min":3,"x_max":475,"o":"m 104 -338 l 97 -338 q 48 -387 61 -342 q 41 -443 41 -412 q 46 -504 41 -471 q 96 -618 58 -576 q 175 -669 135 -660 q 194 -672 184 -672 q 257 -648 224 -672 q 332 -562 299 -617 q 384 -363 366 -507 q 344 -627 371 -525 q 264 -764 317 -729 q 210 -781 238 -781 q 153 -764 182 -781 q 68 -653 95 -731 q 33 -501 41 -576 q 28 -420 28 -458 q 31 -364 28 -391 q 53 -254 37 -301 q 98 -173 68 -207 q 141 -153 117 -153 q 175 -164 155 -153 q 219 -201 195 -176 q 185 -290 200 -235 q 172 -392 172 -338 l 172 -406 q 145 -354 155 -371 q 104 -338 136 -338 m 399 747 l 398 156 l 399 -148 q 475 -414 399 -288 q 391 -319 422 -345 q 336 -293 359 -294 l 331 -293 q 290 -300 310 -293 q 252 -348 268 -309 q 264 -301 252 -323 q 283 -148 275 -280 l 283 351 l 149 351 l 149 -109 q 81 -153 115 -111 q 33 -259 48 -196 q 12 -408 17 -321 q 7 -335 7 -370 q 9 -295 7 -315 q 23 -204 14 -244 q 37 -81 33 -163 l 38 745 q 3 809 38 788 q 109 890 40 814 q 186 1032 178 966 q 237 921 198 972 q 326 830 277 869 q 414 784 376 791 q 399 747 407 766 m 149 386 l 281 385 l 281 699 q 280 707 281 703 q 241 732 264 717 q 149 831 187 768 l 149 386 m 42 985 l 199 1226 l 279 1226 l 437 985 l 397 985 l 239 1132 l 81 985 l 42 985 z "},"Ã":{"ha":500,"x_min":3,"x_max":475,"o":"m 104 -338 l 97 -338 q 48 -387 61 -342 q 41 -443 41 -412 q 46 -504 41 -471 q 96 -618 58 -576 q 175 -669 135 -660 q 194 -672 184 -672 q 257 -648 224 -672 q 332 -562 299 -617 q 384 -363 366 -507 q 344 -627 371 -525 q 264 -764 317 -729 q 210 -781 238 -781 q 153 -764 182 -781 q 68 -653 95 -731 q 33 -501 41 -576 q 28 -420 28 -458 q 31 -364 28 -391 q 53 -254 37 -301 q 98 -173 68 -207 q 141 -153 117 -153 q 175 -164 155 -153 q 219 -201 195 -176 q 185 -290 200 -235 q 172 -392 172 -338 l 172 -406 q 145 -354 155 -371 q 104 -338 136 -338 m 399 747 l 398 156 l 399 -148 q 475 -414 399 -288 q 391 -319 422 -345 q 336 -293 359 -294 l 331 -293 q 290 -300 310 -293 q 252 -348 268 -309 q 264 -301 252 -323 q 283 -148 275 -280 l 283 351 l 149 351 l 149 -109 q 81 -153 115 -111 q 33 -259 48 -196 q 12 -408 17 -321 q 7 -335 7 -370 q 9 -295 7 -315 q 23 -204 14 -244 q 37 -81 33 -163 l 38 745 q 3 809 38 788 q 109 890 40 814 q 186 1032 178 966 q 237 921 198 972 q 326 830 277 869 q 414 784 376 791 q 399 747 407 766 m 149 386 l 281 385 l 281 699 q 280 707 281 703 q 241 732 264 717 q 149 831 187 768 l 149 386 m 434 1191 q 388 1086 420 1121 q 302 1052 355 1052 l 299 1052 q 222 1067 265 1052 q 145 1084 178 1084 q 104 1070 119 1084 q 81 1021 90 1056 l 45 1021 q 91 1129 58 1093 q 178 1164 124 1164 q 255 1148 210 1164 q 331 1133 298 1133 l 334 1133 q 373 1146 358 1133 q 397 1191 388 1160 l 434 1191 z "},"Ä":{"ha":500,"x_min":3,"x_max":475,"o":"m 104 -338 l 97 -338 q 48 -387 61 -342 q 41 -443 41 -412 q 46 -504 41 -471 q 96 -618 58 -576 q 175 -669 135 -660 q 194 -672 184 -672 q 257 -648 224 -672 q 332 -562 299 -617 q 384 -363 366 -507 q 344 -627 371 -525 q 264 -764 317 -729 q 210 -781 238 -781 q 153 -764 182 -781 q 68 -653 95 -731 q 33 -501 41 -576 q 28 -420 28 -458 q 31 -364 28 -391 q 53 -254 37 -301 q 98 -173 68 -207 q 141 -153 117 -153 q 175 -164 155 -153 q 219 -201 195 -176 q 185 -290 200 -235 q 172 -392 172 -338 l 172 -406 q 145 -354 155 -371 q 104 -338 136 -338 m 399 747 l 398 156 l 399 -148 q 475 -414 399 -288 q 391 -319 422 -345 q 336 -293 359 -294 l 331 -293 q 290 -300 310 -293 q 252 -348 268 -309 q 264 -301 252 -323 q 283 -148 275 -280 l 283 351 l 149 351 l 149 -109 q 81 -153 115 -111 q 33 -259 48 -196 q 12 -408 17 -321 q 7 -335 7 -370 q 9 -295 7 -315 q 23 -204 14 -244 q 37 -81 33 -163 l 38 745 q 3 809 38 788 q 109 890 40 814 q 186 1032 178 966 q 237 921 198 972 q 326 830 277 869 q 414 784 376 791 q 399 747 407 766 m 149 386 l 281 385 l 281 699 q 280 707 281 703 q 241 732 264 717 q 149 831 187 768 l 149 386 m 52 1128 l 100 1177 q 117 1185 109 1185 q 136 1175 125 1185 l 182 1126 q 189 1109 189 1116 q 181 1090 189 1100 l 134 1040 q 117 1028 123 1028 q 100 1036 108 1028 l 49 1095 q 43 1110 43 1103 q 52 1128 43 1119 m 300 1128 l 348 1177 q 365 1185 357 1185 q 383 1176 372 1185 l 430 1126 q 437 1109 437 1116 q 429 1091 437 1100 l 382 1040 q 365 1028 370 1028 q 348 1036 355 1028 l 296 1095 q 290 1110 290 1103 q 300 1128 290 1119 z "},"Å":{"ha":500,"x_min":3,"x_max":475,"o":"m 104 -338 l 97 -338 q 48 -387 61 -342 q 41 -443 41 -412 q 46 -504 41 -471 q 96 -618 58 -576 q 175 -669 135 -660 q 194 -672 184 -672 q 257 -648 224 -672 q 332 -562 299 -617 q 384 -363 366 -507 q 344 -627 371 -525 q 264 -764 317 -729 q 210 -781 238 -781 q 153 -764 182 -781 q 68 -653 95 -731 q 33 -501 41 -576 q 28 -420 28 -458 q 31 -364 28 -391 q 53 -254 37 -301 q 98 -173 68 -207 q 141 -153 117 -153 q 175 -164 155 -153 q 219 -201 195 -176 q 185 -290 200 -235 q 172 -392 172 -338 l 172 -406 q 145 -354 155 -371 q 104 -338 136 -338 m 399 747 l 398 156 l 399 -148 q 475 -414 399 -288 q 391 -319 422 -345 q 336 -293 359 -294 l 331 -293 q 290 -300 310 -293 q 252 -348 268 -309 q 264 -301 252 -323 q 283 -148 275 -280 l 283 351 l 149 351 l 149 -109 q 81 -153 115 -111 q 33 -259 48 -196 q 12 -408 17 -321 q 7 -335 7 -370 q 9 -295 7 -315 q 23 -204 14 -244 q 37 -81 33 -163 l 38 745 q 3 809 38 788 q 109 890 40 814 q 186 1032 178 966 q 237 921 198 972 q 326 830 277 869 q 414 784 376 791 q 399 747 407 766 m 149 386 l 281 385 l 281 699 q 280 707 281 703 q 241 732 264 717 q 149 831 187 768 l 149 386 m 171 1106 q 191 1058 171 1078 q 239 1038 210 1038 q 287 1058 267 1038 q 307 1106 307 1078 q 287 1153 307 1133 q 239 1173 267 1173 q 191 1153 211 1173 q 171 1106 171 1133 m 119 1106 q 154 1192 119 1157 q 239 1226 189 1226 q 325 1191 290 1226 q 360 1106 360 1156 q 325 1020 360 1055 q 239 985 290 985 q 154 1020 189 985 q 119 1106 119 1055 z "},"Æ":{"ha":733,"x_min":3,"x_max":730,"o":"m 104 -338 l 97 -338 q 48 -387 61 -342 q 41 -443 41 -412 q 46 -504 41 -471 q 96 -618 58 -576 q 175 -669 135 -660 q 194 -672 184 -672 q 257 -648 224 -672 q 332 -562 299 -617 q 384 -363 366 -507 q 344 -627 371 -525 q 264 -764 317 -729 q 210 -781 238 -781 q 153 -764 182 -781 q 68 -653 95 -731 q 33 -501 41 -576 q 28 -420 28 -458 q 31 -364 28 -391 q 53 -254 37 -301 q 98 -173 68 -207 q 141 -153 117 -153 q 175 -164 155 -153 q 219 -201 195 -176 q 185 -290 200 -235 q 172 -392 172 -338 l 172 -406 q 145 -354 155 -371 q 104 -338 136 -338 m 399 747 l 398 156 l 399 -148 q 475 -414 399 -288 q 391 -319 422 -345 q 336 -293 359 -294 l 331 -293 q 290 -300 310 -293 q 252 -348 268 -309 q 264 -301 252 -323 q 283 -148 275 -280 l 283 351 l 149 351 l 149 -109 q 81 -153 115 -111 q 33 -259 48 -196 q 12 -408 17 -321 q 7 -335 7 -370 q 9 -295 7 -315 q 23 -204 14 -244 q 37 -81 33 -163 l 38 745 q 3 809 38 788 q 109 890 40 814 q 186 1032 178 966 q 237 921 198 972 q 326 830 277 869 q 414 784 376 791 q 399 747 407 766 m 149 386 l 281 385 l 281 699 q 280 707 281 703 q 241 732 264 717 q 149 831 187 768 l 149 386 m 396 319 l 396 -48 q 430 -155 399 -119 q 492 -182 453 -182 q 518 -180 505 -182 q 625 -89 575 -170 q 694 55 674 -7 q 720 210 715 117 q 720 246 720 228 q 705 391 720 320 q 730 219 730 303 q 729 189 730 204 q 705 27 724 92 q 624 -135 686 -37 q 536 -268 563 -233 q 493 -329 509 -303 q 475 -384 477 -355 q 473 -405 473 -394 q 477 -458 473 -429 q 401 -308 446 -372 q 307 -213 357 -244 q 222 -173 256 -182 q 252 -150 244 -168 q 259 -83 259 -132 l 258 747 l 258 749 q 222 812 258 791 q 331 892 260 817 q 412 1032 403 967 q 465 922 425 973 q 557 833 506 871 q 649 787 609 794 q 564 680 618 769 q 471 595 512 595 l 466 595 q 519 638 492 605 q 587 747 546 671 q 510 668 560 707 q 449 708 481 677 q 396 792 416 740 l 396 353 l 470 454 q 517 391 480 422 q 598 349 553 360 q 538 283 570 327 q 495 215 506 240 q 443 253 473 225 q 396 319 414 281 z "},"Ç":{"ha":495,"x_min":3,"x_max":492,"o":"m 171 -62 q 203 -171 174 -134 q 264 -199 226 -199 q 288 -197 275 -199 q 391 -103 343 -185 q 458 42 438 -21 q 481 199 477 105 q 482 236 482 218 q 469 383 482 311 q 492 209 492 294 q 491 178 492 193 q 468 14 486 79 q 390 -151 449 -52 q 305 -285 332 -250 q 264 -347 279 -321 q 247 -403 250 -374 q 245 -424 245 -413 q 250 -478 245 -448 q 176 -326 218 -390 q 85 -230 134 -261 q 3 -189 37 -199 q 32 -166 25 -184 q 39 -98 39 -148 l 38 743 l 38 745 q 3 809 38 788 q 109 890 40 814 q 186 1032 178 966 q 237 921 198 972 q 326 830 277 869 q 414 784 376 791 q 332 675 384 765 q 243 589 282 589 l 238 589 q 289 632 263 599 q 354 743 315 666 q 280 663 329 703 q 221 704 253 672 q 171 789 190 736 l 171 -62 m 109 -197 q 212 -232 167 -232 q 276 -217 257 -232 q 296 -172 296 -203 q 262 -129 296 -142 q 193 -118 235 -118 q 170 -119 182 -118 l 203 0 l 245 0 l 220 -71 q 262 -67 242 -68 q 353 -95 321 -67 q 386 -172 386 -122 q 346 -253 386 -223 q 237 -283 307 -283 q 109 -262 163 -283 l 109 -197 z "},"È":{"ha":515,"x_min":3,"x_max":511,"o":"m 178 319 l 178 -48 q 212 -155 180 -119 q 274 -182 235 -182 q 300 -180 286 -182 q 406 -89 357 -170 q 476 55 456 -7 q 501 210 496 117 q 502 246 502 228 q 487 391 502 320 q 511 219 511 303 q 511 189 511 204 q 486 27 505 92 q 406 -135 467 -37 q 317 -268 345 -233 q 275 -329 290 -303 q 256 -384 259 -355 q 255 -405 255 -394 q 259 -458 255 -429 q 183 -308 227 -372 q 88 -213 138 -244 q 3 -173 38 -182 q 33 -150 26 -168 q 41 -83 41 -132 l 39 747 l 39 749 q 3 812 39 791 q 113 892 41 817 q 194 1032 184 967 q 247 922 206 973 q 339 833 288 871 q 431 787 391 794 q 345 680 399 769 q 252 595 294 595 l 248 595 q 300 638 273 605 q 368 747 328 671 q 292 668 342 707 q 230 708 263 677 q 178 792 197 740 l 178 353 l 252 454 q 298 391 262 422 q 380 349 335 360 q 319 283 351 327 q 277 215 288 240 q 225 253 254 225 q 178 319 195 281 m 361 985 l 315 985 l 91 1122 q 59 1149 70 1136 q 49 1178 49 1163 q 63 1213 49 1199 q 99 1226 77 1226 q 126 1218 113 1226 q 164 1186 140 1210 l 361 985 z "},"É":{"ha":515,"x_min":3,"x_max":511,"o":"m 178 319 l 178 -48 q 212 -155 180 -119 q 274 -182 235 -182 q 300 -180 286 -182 q 406 -89 357 -170 q 476 55 456 -7 q 501 210 496 117 q 502 246 502 228 q 487 391 502 320 q 511 219 511 303 q 511 189 511 204 q 486 27 505 92 q 406 -135 467 -37 q 317 -268 345 -233 q 275 -329 290 -303 q 256 -384 259 -355 q 255 -405 255 -394 q 259 -458 255 -429 q 183 -308 227 -372 q 88 -213 138 -244 q 3 -173 38 -182 q 33 -150 26 -168 q 41 -83 41 -132 l 39 747 l 39 749 q 3 812 39 791 q 113 892 41 817 q 194 1032 184 967 q 247 922 206 973 q 339 833 288 871 q 431 787 391 794 q 345 680 399 769 q 252 595 294 595 l 248 595 q 300 638 273 605 q 368 747 328 671 q 292 668 342 707 q 230 708 263 677 q 178 792 197 740 l 178 353 l 252 454 q 298 391 262 422 q 380 349 335 360 q 319 283 351 327 q 277 215 288 240 q 225 253 254 225 q 178 319 195 281 m 351 1186 q 388 1218 374 1210 q 416 1226 402 1226 q 452 1213 438 1226 q 466 1178 466 1199 q 455 1149 466 1163 q 424 1122 445 1136 l 200 985 l 153 985 l 351 1186 z "},"Ê":{"ha":515,"x_min":3,"x_max":511,"o":"m 178 319 l 178 -48 q 212 -155 180 -119 q 274 -182 235 -182 q 300 -180 286 -182 q 406 -89 357 -170 q 476 55 456 -7 q 501 210 496 117 q 502 246 502 228 q 487 391 502 320 q 511 219 511 303 q 511 189 511 204 q 486 27 505 92 q 406 -135 467 -37 q 317 -268 345 -233 q 275 -329 290 -303 q 256 -384 259 -355 q 255 -405 255 -394 q 259 -458 255 -429 q 183 -308 227 -372 q 88 -213 138 -244 q 3 -173 38 -182 q 33 -150 26 -168 q 41 -83 41 -132 l 39 747 l 39 749 q 3 812 39 791 q 113 892 41 817 q 194 1032 184 967 q 247 922 206 973 q 339 833 288 871 q 431 787 391 794 q 345 680 399 769 q 252 595 294 595 l 248 595 q 300 638 273 605 q 368 747 328 671 q 292 668 342 707 q 230 708 263 677 q 178 792 197 740 l 178 353 l 252 454 q 298 391 262 422 q 380 349 335 360 q 319 283 351 327 q 277 215 288 240 q 225 253 254 225 q 178 319 195 281 m 60 985 l 218 1226 l 298 1226 l 455 985 l 416 985 l 258 1132 l 100 985 l 60 985 z "},"Ë":{"ha":515,"x_min":3,"x_max":511,"o":"m 178 319 l 178 -48 q 212 -155 180 -119 q 274 -182 235 -182 q 300 -180 286 -182 q 406 -89 357 -170 q 476 55 456 -7 q 501 210 496 117 q 502 246 502 228 q 487 391 502 320 q 511 219 511 303 q 511 189 511 204 q 486 27 505 92 q 406 -135 467 -37 q 317 -268 345 -233 q 275 -329 290 -303 q 256 -384 259 -355 q 255 -405 255 -394 q 259 -458 255 -429 q 183 -308 227 -372 q 88 -213 138 -244 q 3 -173 38 -182 q 33 -150 26 -168 q 41 -83 41 -132 l 39 747 l 39 749 q 3 812 39 791 q 113 892 41 817 q 194 1032 184 967 q 247 922 206 973 q 339 833 288 871 q 431 787 391 794 q 345 680 399 769 q 252 595 294 595 l 248 595 q 300 638 273 605 q 368 747 328 671 q 292 668 342 707 q 230 708 263 677 q 178 792 197 740 l 178 353 l 252 454 q 298 391 262 422 q 380 349 335 360 q 319 283 351 327 q 277 215 288 240 q 225 253 254 225 q 178 319 195 281 m 70 1128 l 118 1177 q 135 1185 127 1185 q 153 1175 142 1185 l 200 1126 q 207 1109 207 1116 q 199 1090 207 1100 l 152 1040 q 135 1028 140 1028 q 118 1036 125 1028 l 66 1095 q 60 1110 60 1103 q 70 1128 60 1119 m 317 1128 l 366 1177 q 382 1185 374 1185 q 401 1176 390 1185 l 448 1126 q 454 1109 454 1116 q 446 1091 454 1100 l 399 1040 q 382 1028 388 1028 q 366 1036 373 1028 l 314 1095 q 308 1110 308 1103 q 317 1128 308 1119 z "},"Ì":{"ha":281,"x_min":-68,"x_max":278,"o":"m 62 699 q 40 786 52 762 q 3 819 28 809 q 51 846 35 827 q 86 902 66 864 q 115 984 106 939 q 144 902 123 935 q 181 856 164 869 q 248 842 197 842 q 180 748 202 823 l 180 -148 q 278 -452 180 -288 q 173 -317 205 -340 q 117 -293 140 -294 l 112 -293 q 71 -300 91 -293 q 33 -348 49 -309 q 45 -301 33 -323 q 64 -148 56 -280 l 62 699 m 245 985 l 198 985 l -26 1122 q -57 1149 -47 1136 q -68 1178 -68 1163 q -54 1213 -68 1199 q -18 1226 -40 1226 q 10 1218 -4 1226 q 47 1186 24 1210 l 245 985 z "},"Í":{"ha":281,"x_min":3,"x_max":349,"o":"m 62 699 q 40 786 52 762 q 3 819 28 809 q 51 846 35 827 q 86 902 66 864 q 115 984 106 939 q 144 902 123 935 q 181 856 164 869 q 248 842 197 842 q 180 748 202 823 l 180 -148 q 278 -452 180 -288 q 173 -317 205 -340 q 117 -293 140 -294 l 112 -293 q 71 -300 91 -293 q 33 -348 49 -309 q 45 -301 33 -323 q 64 -148 56 -280 l 62 699 m 234 1186 q 272 1218 258 1210 q 299 1226 286 1226 q 335 1213 321 1226 q 349 1178 349 1199 q 339 1149 349 1163 q 307 1122 328 1136 l 83 985 l 37 985 l 234 1186 z "},"Î":{"ha":281,"x_min":-56,"x_max":338,"o":"m 63 699 q 40 786 52 762 q 4 819 28 809 q 51 846 35 827 q 87 902 67 864 q 116 984 107 939 q 144 902 124 935 q 181 856 165 869 q 248 842 198 842 q 180 748 203 823 l 180 -148 q 279 -452 180 -288 q 174 -317 206 -340 q 117 -293 141 -294 l 113 -293 q 72 -300 92 -293 q 34 -348 50 -309 q 45 -301 34 -323 q 64 -148 57 -280 l 63 699 m -56 985 l 101 1226 l 181 1226 l 338 985 l 299 985 l 141 1132 l -17 985 l -56 985 z "},"Ï":{"ha":281,"x_min":-56,"x_max":338,"o":"m 62 699 q 40 786 52 762 q 3 819 28 809 q 51 846 35 827 q 86 902 66 864 q 115 984 106 939 q 144 902 123 935 q 181 856 164 869 q 248 842 197 842 q 180 748 202 823 l 180 -148 q 278 -452 180 -288 q 173 -317 205 -340 q 117 -293 140 -294 l 112 -293 q 71 -300 91 -293 q 33 -348 49 -309 q 45 -301 33 -323 q 64 -148 56 -280 l 62 699 m -47 1128 l 1 1177 q 18 1185 10 1185 q 37 1175 26 1185 l 83 1126 q 90 1109 90 1116 q 82 1090 90 1100 l 35 1040 q 18 1028 24 1028 q 1 1036 9 1028 l -50 1095 q -56 1110 -56 1103 q -47 1128 -56 1119 m 201 1128 l 249 1177 q 266 1185 258 1185 q 284 1176 273 1185 l 331 1126 q 338 1109 338 1116 q 330 1091 338 1100 l 283 1040 q 266 1028 271 1028 q 249 1036 256 1028 l 197 1095 q 191 1110 191 1103 q 201 1128 191 1119 z "},"Ð":{"ha":469,"x_min":3,"x_max":698,"o":"m 267 779 q 276 793 272 786 q 292 838 286 814 q 296 882 296 853 q 294 916 296 897 q 271 838 283 861 q 242 793 258 814 q 185 729 206 758 q 163 640 163 701 l 164 -109 q 87 -153 125 -111 q 32 -259 50 -196 q 9 -408 15 -321 q 3 -335 3 -370 q 5 -295 3 -315 q 22 -204 12 -244 q 35 -116 33 -163 l 35 606 q 9 665 33 644 q 93 711 37 677 q 204 813 149 745 q 292 996 258 882 q 318 931 298 958 q 366 862 338 905 q 413 747 394 820 q 439 583 432 674 q 445 193 445 498 l 445 156 l 444 -127 q 466 -250 444 -203 q 405 -211 439 -216 q 397 -210 401 -210 q 332 -245 367 -210 q 273 -344 292 -285 q 240 -515 254 -403 q 183 -376 221 -418 q 113 -338 149 -338 l 105 -338 q 50 -387 64 -342 q 42 -443 42 -412 q 48 -504 42 -471 q 104 -618 61 -576 q 193 -669 148 -660 q 214 -672 203 -672 q 286 -648 249 -672 q 370 -562 333 -617 q 429 -363 408 -507 q 383 -627 414 -525 q 294 -764 353 -729 q 233 -781 264 -781 q 169 -764 201 -781 q 72 -653 102 -731 q 33 -501 42 -576 q 27 -420 27 -458 q 30 -364 27 -391 q 55 -254 37 -301 q 107 -173 73 -207 q 155 -153 127 -153 q 197 -163 174 -153 q 287 -236 254 -186 l 290 -241 q 330 -193 306 -226 l 330 260 q 319 627 330 543 q 286 754 306 720 q 267 779 277 770 m 3 127 l 698 127 l 698 87 l 3 87 l 3 127 z "},"Ñ":{"ha":632,"x_min":3,"x_max":629,"o":"m 133 770 q 209 902 188 871 q 261 985 229 932 l 260 583 q 375 798 324 728 q 453 906 425 869 q 509 982 481 943 l 510 -103 q 555 -70 538 -79 q 629 -37 571 -62 q 545 -94 572 -70 q 494 -142 518 -117 q 447 -199 470 -167 q 395 -273 423 -231 q 411 -217 402 -245 l 411 636 q 408 722 411 705 q 394 750 404 739 q 382 756 387 756 q 373 753 377 756 q 345 727 362 744 q 304 661 327 711 q 260 555 282 611 l 260 -416 q 313 -353 292 -372 q 345 -328 334 -333 q 277 -429 302 -380 q 228 -548 252 -477 q 187 -670 203 -618 q 157 -779 170 -721 q 136 -720 149 -741 q 107 -681 122 -699 q 81 -660 92 -663 q 75 -659 78 -659 q 54 -664 66 -659 q 3 -699 37 -671 q 42 -652 19 -674 q 81 -629 66 -629 q 111 -641 96 -629 q 122 -591 117 -608 q 134 -552 128 -574 l 133 770 m 511 1191 q 464 1086 497 1121 q 378 1052 431 1052 l 376 1052 q 299 1067 342 1052 q 222 1084 254 1084 q 181 1070 195 1084 q 158 1021 166 1056 l 121 1021 q 168 1129 134 1093 q 255 1164 201 1164 q 332 1148 286 1164 q 408 1133 375 1133 l 410 1133 q 450 1146 435 1133 q 474 1191 465 1160 l 511 1191 z "},"Ò":{"ha":547,"x_min":3,"x_max":544,"o":"m 144 784 l 144 -75 q 227 -131 176 -80 q 311 -246 278 -182 l 311 671 q 250 708 292 671 q 210 784 210 743 l 210 786 q 208 768 208 777 q 283 653 208 709 q 194 708 228 668 q 144 784 160 749 m 221 -397 q 210 -369 216 -383 q 150 -286 184 -317 q 79 -250 117 -255 q 67 -249 73 -249 q 11 -271 36 -249 q 29 -201 26 -252 l 29 739 q 28 747 29 743 q 23 744 26 746 l 3 767 q 62 804 30 781 q 182 930 130 852 q 199 961 190 945 q 209 983 203 969 q 220 1011 214 995 l 224 985 q 219 970 220 977 q 296 868 236 927 q 419 807 358 807 q 440 809 429 807 q 416 762 422 794 q 411 690 411 732 l 411 -182 q 439 -173 425 -176 q 544 -159 474 -166 q 437 -205 463 -195 q 379 -240 411 -215 q 314 -301 347 -266 q 258 -367 280 -336 q 218 -431 236 -397 q 155 -537 199 -465 q 221 -397 192 -455 m 378 985 l 331 985 l 107 1122 q 76 1149 86 1136 q 65 1178 65 1163 q 79 1213 65 1199 q 115 1226 93 1226 q 143 1218 129 1226 q 180 1186 157 1210 l 378 985 z "},"Ó":{"ha":547,"x_min":3,"x_max":544,"o":"m 144 784 l 144 -75 q 227 -131 176 -80 q 311 -246 278 -182 l 311 671 q 250 708 292 671 q 210 784 210 743 l 210 786 q 208 768 208 777 q 283 653 208 709 q 194 708 228 668 q 144 784 160 749 m 221 -397 q 210 -369 216 -383 q 150 -286 184 -317 q 79 -250 117 -255 q 67 -249 73 -249 q 11 -271 36 -249 q 29 -201 26 -252 l 29 739 q 28 747 29 743 q 23 744 26 746 l 3 767 q 62 804 30 781 q 182 930 130 852 q 199 961 190 945 q 209 983 203 969 q 220 1011 214 995 l 224 985 q 219 970 220 977 q 296 868 236 927 q 419 807 358 807 q 440 809 429 807 q 416 762 422 794 q 411 690 411 732 l 411 -182 q 439 -173 425 -176 q 544 -159 474 -166 q 437 -205 463 -195 q 379 -240 411 -215 q 314 -301 347 -266 q 258 -367 280 -336 q 218 -431 236 -397 q 155 -537 199 -465 q 221 -397 192 -455 m 367 1186 q 405 1218 391 1210 q 432 1226 418 1226 q 468 1213 454 1226 q 482 1178 482 1199 q 472 1149 482 1163 q 440 1122 461 1136 l 216 985 l 170 985 l 367 1186 z "},"Ô":{"ha":547,"x_min":3,"x_max":544,"o":"m 144 784 l 144 -75 q 227 -131 176 -80 q 311 -246 278 -182 l 311 671 q 250 708 292 671 q 210 784 210 743 l 210 786 q 208 768 208 777 q 283 653 208 709 q 194 708 228 668 q 144 784 160 749 m 221 -397 q 210 -369 216 -383 q 150 -286 184 -317 q 79 -250 117 -255 q 67 -249 73 -249 q 11 -271 36 -249 q 29 -201 26 -252 l 29 739 q 28 747 29 743 q 23 744 26 746 l 3 767 q 62 804 30 781 q 182 930 130 852 q 199 961 190 945 q 209 983 203 969 q 220 1011 214 995 l 224 985 q 219 970 220 977 q 296 868 236 927 q 419 807 358 807 q 440 809 429 807 q 416 762 422 794 q 411 690 411 732 l 411 -182 q 439 -173 425 -176 q 544 -159 474 -166 q 437 -205 463 -195 q 379 -240 411 -215 q 314 -301 347 -266 q 258 -367 280 -336 q 218 -431 236 -397 q 155 -537 199 -465 q 221 -397 192 -455 m 77 985 l 234 1226 l 314 1226 l 471 985 l 432 985 l 274 1132 l 116 985 l 77 985 z "},"Õ":{"ha":547,"x_min":3,"x_max":544,"o":"m 144 784 l 144 -75 q 227 -131 176 -80 q 311 -246 278 -182 l 311 671 q 250 708 292 671 q 210 784 210 743 l 210 786 q 208 768 208 777 q 283 653 208 709 q 194 708 228 668 q 144 784 160 749 m 221 -397 q 210 -369 216 -383 q 150 -286 184 -317 q 79 -250 117 -255 q 67 -249 73 -249 q 11 -271 36 -249 q 29 -201 26 -252 l 29 739 q 28 747 29 743 q 23 744 26 746 l 3 767 q 62 804 30 781 q 182 930 130 852 q 199 961 190 945 q 209 983 203 969 q 220 1011 214 995 l 224 985 q 219 970 220 977 q 296 868 236 927 q 419 807 358 807 q 440 809 429 807 q 416 762 422 794 q 411 690 411 732 l 411 -182 q 439 -173 425 -176 q 544 -159 474 -166 q 437 -205 463 -195 q 379 -240 411 -215 q 314 -301 347 -266 q 258 -367 280 -336 q 218 -431 236 -397 q 155 -537 199 -465 q 221 -397 192 -455 m 469 1191 q 422 1086 455 1121 q 336 1052 389 1052 l 334 1052 q 257 1067 300 1052 q 180 1084 212 1084 q 139 1070 153 1084 q 116 1021 124 1056 l 79 1021 q 125 1129 92 1093 q 213 1164 159 1164 q 290 1148 244 1164 q 366 1133 333 1133 l 368 1133 q 408 1146 393 1133 q 432 1191 422 1160 l 469 1191 z "},"Ö":{"ha":547,"x_min":3,"x_max":544,"o":"m 144 784 l 144 -75 q 227 -131 176 -80 q 311 -246 278 -182 l 311 671 q 250 708 292 671 q 210 784 210 743 l 210 786 q 208 768 208 777 q 283 653 208 709 q 194 708 228 668 q 144 784 160 749 m 221 -397 q 210 -369 216 -383 q 150 -286 184 -317 q 79 -250 117 -255 q 67 -249 73 -249 q 11 -271 36 -249 q 29 -201 26 -252 l 29 739 q 28 747 29 743 q 23 744 26 746 l 3 767 q 62 804 30 781 q 182 930 130 852 q 199 961 190 945 q 209 983 203 969 q 220 1011 214 995 l 224 985 q 219 970 220 977 q 296 868 236 927 q 419 807 358 807 q 440 809 429 807 q 416 762 422 794 q 411 690 411 732 l 411 -182 q 439 -173 425 -176 q 544 -159 474 -166 q 437 -205 463 -195 q 379 -240 411 -215 q 314 -301 347 -266 q 258 -367 280 -336 q 218 -431 236 -397 q 155 -537 199 -465 q 221 -397 192 -455 m 86 1128 l 134 1177 q 151 1185 143 1185 q 170 1175 159 1185 l 216 1126 q 223 1109 223 1116 q 215 1090 223 1100 l 168 1040 q 151 1028 157 1028 q 134 1036 142 1028 l 83 1095 q 77 1110 77 1103 q 86 1128 77 1119 m 334 1128 l 382 1177 q 399 1185 391 1185 q 417 1176 406 1185 l 464 1126 q 471 1109 471 1116 q 463 1091 471 1100 l 416 1040 q 399 1028 404 1028 q 382 1036 389 1028 l 330 1095 q 324 1110 324 1103 q 334 1128 324 1119 z "},"×":{"ha":688,"x_min":109,"x_max":578,"o":"m 344 419 l 176 252 l 109 319 l 277 486 l 109 654 l 176 721 l 344 553 l 512 721 l 578 654 l 411 486 l 578 319 l 511 252 l 344 419 z "},"Ø":{"ha":547,"x_min":3,"x_max":544,"o":"m 144 784 l 144 -75 q 227 -131 176 -80 q 311 -246 278 -182 l 311 671 q 250 708 292 671 q 210 784 210 743 l 210 786 q 208 768 208 777 q 283 653 208 709 q 194 708 228 668 q 144 784 160 749 m 221 -397 q 210 -369 216 -383 q 150 -286 184 -317 q 79 -250 117 -255 q 67 -249 73 -249 q 11 -271 36 -249 q 29 -201 26 -252 l 29 739 q 28 747 29 743 q 23 744 26 746 l 3 767 q 62 804 30 781 q 182 930 130 852 q 199 961 190 945 q 209 983 203 969 q 220 1011 214 995 l 224 985 q 219 970 220 977 q 296 868 236 927 q 419 807 358 807 q 440 809 429 807 q 416 762 422 794 q 411 690 411 732 l 411 -182 q 439 -173 425 -176 q 544 -159 474 -166 q 437 -205 463 -195 q 379 -240 411 -215 q 314 -301 347 -266 q 258 -367 280 -336 q 218 -431 236 -397 q 155 -537 199 -465 q 221 -397 192 -455 m 117 -34 l 63 -34 l 430 972 l 484 972 l 117 -34 z "},"Ù":{"ha":547,"x_min":3,"x_max":544,"o":"m 3 804 q 57 836 28 804 q 103 919 85 868 q 127 1030 121 969 q 144 914 135 960 q 172 840 153 867 q 224 815 188 815 q 233 816 228 815 q 166 766 191 766 q 157 768 161 766 q 102 824 131 779 q 180 726 130 752 l 180 -62 q 209 -154 189 -129 q 248 -176 228 -176 q 254 -176 251 -176 q 295 -144 277 -172 q 316 -46 313 -115 l 316 719 q 293 805 305 782 q 257 839 281 829 q 304 865 288 847 q 340 921 320 884 q 369 1004 360 959 q 397 922 377 955 q 434 876 418 889 q 501 862 451 862 q 433 768 456 843 l 433 -68 q 456 -147 433 -121 q 481 -161 469 -161 q 504 -151 492 -161 q 544 -9 529 -127 q 510 -201 540 -120 q 460 -330 480 -282 q 438 -437 439 -378 q 382 -357 406 -406 q 346 -269 358 -309 q 330 -182 333 -229 q 393 -20 372 -134 q 328 -147 367 -107 q 266 -236 289 -186 q 231 -333 242 -286 q 222 -412 222 -373 l 222 -427 q 150 -347 183 -405 q 94 -237 117 -288 q 51 -109 71 -185 l 75 -114 l 75 787 q 43 779 56 779 q 35 779 39 779 q 3 804 21 782 m 378 985 l 331 985 l 107 1122 q 76 1149 86 1136 q 65 1178 65 1163 q 79 1213 65 1199 q 115 1226 93 1226 q 143 1218 129 1226 q 180 1186 157 1210 l 378 985 z "},"Ú":{"ha":547,"x_min":3,"x_max":544,"o":"m 3 804 q 57 836 28 804 q 103 919 85 868 q 127 1030 121 969 q 144 914 135 960 q 172 840 153 867 q 224 815 188 815 q 233 816 228 815 q 166 766 191 766 q 157 768 161 766 q 102 824 131 779 q 180 726 130 752 l 180 -62 q 209 -154 189 -129 q 248 -176 228 -176 q 254 -176 251 -176 q 295 -144 277 -172 q 316 -46 313 -115 l 316 719 q 293 805 305 782 q 257 839 281 829 q 304 865 288 847 q 340 921 320 884 q 369 1004 360 959 q 397 922 377 955 q 434 876 418 889 q 501 862 451 862 q 433 768 456 843 l 433 -68 q 456 -147 433 -121 q 481 -161 469 -161 q 504 -151 492 -161 q 544 -9 529 -127 q 510 -201 540 -120 q 460 -330 480 -282 q 438 -437 439 -378 q 382 -357 406 -406 q 346 -269 358 -309 q 330 -182 333 -229 q 393 -20 372 -134 q 328 -147 367 -107 q 266 -236 289 -186 q 231 -333 242 -286 q 222 -412 222 -373 l 222 -427 q 150 -347 183 -405 q 94 -237 117 -288 q 51 -109 71 -185 l 75 -114 l 75 787 q 43 779 56 779 q 35 779 39 779 q 3 804 21 782 m 367 1186 q 405 1218 391 1210 q 432 1226 418 1226 q 468 1213 454 1226 q 482 1178 482 1199 q 472 1149 482 1163 q 440 1122 461 1136 l 216 985 l 170 985 l 367 1186 z "},"Û":{"ha":547,"x_min":3,"x_max":544,"o":"m 3 804 q 57 836 28 804 q 103 919 85 868 q 127 1030 121 969 q 144 914 135 960 q 172 840 153 867 q 224 815 188 815 q 233 816 228 815 q 166 766 191 766 q 157 768 161 766 q 102 824 131 779 q 180 726 130 752 l 180 -62 q 209 -154 189 -129 q 248 -176 228 -176 q 254 -176 251 -176 q 295 -144 277 -172 q 316 -46 313 -115 l 316 719 q 293 805 305 782 q 257 839 281 829 q 304 865 288 847 q 340 921 320 884 q 369 1004 360 959 q 397 922 377 955 q 434 876 418 889 q 501 862 451 862 q 433 768 456 843 l 433 -68 q 456 -147 433 -121 q 481 -161 469 -161 q 504 -151 492 -161 q 544 -9 529 -127 q 510 -201 540 -120 q 460 -330 480 -282 q 438 -437 439 -378 q 382 -357 406 -406 q 346 -269 358 -309 q 330 -182 333 -229 q 393 -20 372 -134 q 328 -147 367 -107 q 266 -236 289 -186 q 231 -333 242 -286 q 222 -412 222 -373 l 222 -427 q 150 -347 183 -405 q 94 -237 117 -288 q 51 -109 71 -185 l 75 -114 l 75 787 q 43 779 56 779 q 35 779 39 779 q 3 804 21 782 m 77 985 l 234 1226 l 314 1226 l 471 985 l 432 985 l 274 1132 l 116 985 l 77 985 z "},"Ü":{"ha":547,"x_min":3,"x_max":544,"o":"m 3 804 q 57 836 28 804 q 103 919 85 868 q 127 1030 121 969 q 144 914 135 960 q 172 840 153 867 q 224 815 188 815 q 233 816 228 815 q 166 766 191 766 q 157 768 161 766 q 102 824 131 779 q 180 726 130 752 l 180 -62 q 209 -154 189 -129 q 248 -176 228 -176 q 254 -176 251 -176 q 295 -144 277 -172 q 316 -46 313 -115 l 316 719 q 293 805 305 782 q 257 839 281 829 q 304 865 288 847 q 340 921 320 884 q 369 1004 360 959 q 397 922 377 955 q 434 876 418 889 q 501 862 451 862 q 433 768 456 843 l 433 -68 q 456 -147 433 -121 q 481 -161 469 -161 q 504 -151 492 -161 q 544 -9 529 -127 q 510 -201 540 -120 q 460 -330 480 -282 q 438 -437 439 -378 q 382 -357 406 -406 q 346 -269 358 -309 q 330 -182 333 -229 q 393 -20 372 -134 q 328 -147 367 -107 q 266 -236 289 -186 q 231 -333 242 -286 q 222 -412 222 -373 l 222 -427 q 150 -347 183 -405 q 94 -237 117 -288 q 51 -109 71 -185 l 75 -114 l 75 787 q 43 779 56 779 q 35 779 39 779 q 3 804 21 782 m 86 1128 l 134 1177 q 151 1185 143 1185 q 170 1175 159 1185 l 216 1126 q 223 1109 223 1116 q 215 1090 223 1100 l 168 1040 q 151 1028 157 1028 q 134 1036 142 1028 l 83 1095 q 77 1110 77 1103 q 86 1128 77 1119 m 334 1128 l 382 1177 q 399 1185 391 1185 q 417 1176 406 1185 l 464 1126 q 471 1109 471 1116 q 463 1091 471 1100 l 416 1040 q 399 1028 404 1028 q 382 1036 389 1028 l 330 1095 q 324 1110 324 1103 q 334 1128 324 1119 z "},"Ý":{"ha":557,"x_min":3,"x_max":553,"o":"m 477 -397 q 494 -456 477 -440 q 437 -485 472 -456 q 369 -573 403 -514 q 319 -716 335 -631 q 320 -707 320 -711 q 301 -645 320 -679 q 229 -578 279 -606 q 155 -557 191 -557 q 134 -559 144 -557 q 56 -600 90 -567 q 3 -704 22 -633 q 66 -557 6 -637 q 156 -394 125 -477 q 204 -222 186 -311 q 178 -374 191 -327 q 143 -473 165 -421 q 201 -360 164 -453 q 276 -380 246 -363 q 332 -422 305 -397 q 377 -481 359 -448 l 377 52 q 418 92 389 54 q 461 199 446 130 q 388 98 431 130 q 319 27 345 67 q 281 -50 293 -12 q 271 -112 271 -81 q 271 -123 271 -117 q 191 -60 228 -106 q 129 27 155 -14 q 81 129 104 68 l 108 125 l 108 839 q 71 832 86 832 q 64 833 68 832 q 29 852 48 835 q 88 879 56 853 q 139 944 119 904 q 167 1032 159 983 q 184 940 174 977 q 215 881 195 903 q 273 862 233 862 l 283 862 q 209 823 237 823 q 199 825 204 823 q 139 868 170 833 q 224 790 169 812 l 224 166 q 257 93 233 113 q 299 75 277 75 l 306 75 q 351 101 331 78 q 374 178 372 123 l 374 785 q 350 853 363 835 q 309 880 337 872 q 362 901 344 886 q 402 945 380 916 q 433 1011 424 975 q 452 946 442 972 q 479 909 461 920 q 553 899 498 899 q 479 824 503 884 l 477 -397 m 372 1186 q 409 1218 395 1210 q 437 1226 423 1226 q 473 1213 459 1226 q 487 1178 487 1199 q 476 1149 487 1163 q 445 1122 466 1136 l 221 985 l 174 985 l 372 1186 z "},"à":{"ha":578,"x_min":3,"x_max":575,"o":"m 14 503 q 136 562 92 526 q 212 653 180 598 q 258 749 243 707 q 306 669 277 699 q 371 617 334 638 q 461 593 408 597 q 440 569 444 581 q 435 530 435 557 l 435 138 q 453 85 437 102 q 489 62 469 67 q 512 58 500 58 q 528 60 520 58 q 575 81 546 63 q 528 28 559 52 q 475 -27 498 3 q 446 -93 452 -58 q 429 -47 444 -65 q 371 -6 414 -28 q 308 62 328 16 q 254 31 277 52 q 213 -10 230 11 q 189 -52 197 -31 q 174 -100 180 -73 q 143 -40 163 -68 q 91 7 123 -12 q 3 29 59 26 q 45 63 45 37 l 45 256 q 30 274 38 273 q 7 275 22 275 q 77 320 35 286 q 172 433 118 353 q 254 401 222 417 q 308 367 285 385 l 308 533 q 245 556 269 538 q 205 605 220 574 q 148 547 179 566 q 84 517 117 528 q 14 503 52 507 m 381 281 q 257 370 315 341 q 186 392 210 392 q 176 391 180 392 l 178 71 q 211 35 194 60 q 266 75 247 62 q 306 96 286 87 l 307 321 q 381 281 333 317 m 393 732 l 347 732 l 123 869 q 91 896 102 882 q 81 924 81 909 q 95 959 81 945 q 131 972 109 972 q 158 964 144 972 q 196 932 172 956 l 393 732 z "},"á":{"ha":578,"x_min":3,"x_max":575,"o":"m 14 503 q 136 562 92 526 q 212 653 180 598 q 258 749 243 707 q 306 669 277 699 q 371 617 334 638 q 461 593 408 597 q 440 569 444 581 q 435 530 435 557 l 435 138 q 453 85 437 102 q 489 62 469 67 q 512 58 500 58 q 528 60 520 58 q 575 81 546 63 q 528 28 559 52 q 475 -27 498 3 q 446 -93 452 -58 q 429 -47 444 -65 q 371 -6 414 -28 q 308 62 328 16 q 254 31 277 52 q 213 -10 230 11 q 189 -52 197 -31 q 174 -100 180 -73 q 143 -40 163 -68 q 91 7 123 -12 q 3 29 59 26 q 45 63 45 37 l 45 256 q 30 274 38 273 q 7 275 22 275 q 77 320 35 286 q 172 433 118 353 q 254 401 222 417 q 308 367 285 385 l 308 533 q 245 556 269 538 q 205 605 220 574 q 148 547 179 566 q 84 517 117 528 q 14 503 52 507 m 381 281 q 257 370 315 341 q 186 392 210 392 q 176 391 180 392 l 178 71 q 211 35 194 60 q 266 75 247 62 q 306 96 286 87 l 307 321 q 381 281 333 317 m 382 932 q 420 964 406 956 q 448 972 434 972 q 484 959 470 972 q 498 924 498 945 q 487 896 498 909 q 456 869 477 882 l 232 731 l 185 731 l 382 932 z "},"â":{"ha":578,"x_min":3,"x_max":575,"o":"m 14 503 q 136 562 92 526 q 212 653 180 598 q 258 749 243 707 q 306 669 277 699 q 371 617 334 638 q 461 593 408 597 q 440 569 444 581 q 435 530 435 557 l 435 138 q 453 85 437 102 q 489 62 469 67 q 512 58 500 58 q 528 60 520 58 q 575 81 546 63 q 528 28 559 52 q 475 -27 498 3 q 446 -93 452 -58 q 429 -47 444 -65 q 371 -6 414 -28 q 308 62 328 16 q 254 31 277 52 q 213 -10 230 11 q 189 -52 197 -31 q 174 -100 180 -73 q 143 -40 163 -68 q 91 7 123 -12 q 3 29 59 26 q 45 63 45 37 l 45 256 q 30 274 38 273 q 7 275 22 275 q 77 320 35 286 q 172 433 118 353 q 254 401 222 417 q 308 367 285 385 l 308 533 q 245 556 269 538 q 205 605 220 574 q 148 547 179 566 q 84 517 117 528 q 14 503 52 507 m 381 281 q 257 370 315 341 q 186 392 210 392 q 176 391 180 392 l 178 71 q 211 35 194 60 q 266 75 247 62 q 306 96 286 87 l 307 321 q 381 281 333 317 m 92 732 l 250 972 l 330 972 l 487 732 l 448 732 l 290 878 l 132 732 l 92 732 z "},"ã":{"ha":578,"x_min":3,"x_max":575,"o":"m 14 503 q 136 562 92 526 q 212 653 180 598 q 258 749 243 707 q 306 669 277 699 q 371 617 334 638 q 461 593 408 597 q 440 569 444 581 q 435 530 435 557 l 435 138 q 453 85 437 102 q 489 62 469 67 q 512 58 500 58 q 528 60 520 58 q 575 81 546 63 q 528 28 559 52 q 475 -27 498 3 q 446 -93 452 -58 q 429 -47 444 -65 q 371 -6 414 -28 q 308 62 328 16 q 254 31 277 52 q 213 -10 230 11 q 189 -52 197 -31 q 174 -100 180 -73 q 143 -40 163 -68 q 91 7 123 -12 q 3 29 59 26 q 45 63 45 37 l 45 256 q 30 274 38 273 q 7 275 22 275 q 77 320 35 286 q 172 433 118 353 q 254 401 222 417 q 308 367 285 385 l 308 533 q 245 556 269 538 q 205 605 220 574 q 148 547 179 566 q 84 517 117 528 q 14 503 52 507 m 381 281 q 257 370 315 341 q 186 392 210 392 q 176 391 180 392 l 178 71 q 211 35 194 60 q 266 75 247 62 q 306 96 286 87 l 307 321 q 381 281 333 317 m 484 937 q 438 833 471 867 q 352 798 405 798 l 349 798 q 273 814 315 798 q 195 830 228 830 q 154 816 169 830 q 132 768 140 802 l 95 768 q 141 875 108 840 q 229 911 174 911 q 305 895 260 910 q 381 879 349 879 l 384 879 q 423 892 408 879 q 448 937 438 906 l 484 937 z "},"ä":{"ha":578,"x_min":3,"x_max":575,"o":"m 14 503 q 136 562 92 526 q 212 653 180 598 q 258 749 243 707 q 306 669 277 699 q 371 617 334 638 q 461 593 408 597 q 440 569 444 581 q 435 530 435 557 l 435 138 q 453 85 437 102 q 489 62 469 67 q 512 58 500 58 q 528 60 520 58 q 575 81 546 63 q 528 28 559 52 q 475 -27 498 3 q 446 -93 452 -58 q 429 -47 444 -65 q 371 -6 414 -28 q 308 62 328 16 q 254 31 277 52 q 213 -10 230 11 q 189 -52 197 -31 q 174 -100 180 -73 q 143 -40 163 -68 q 91 7 123 -12 q 3 29 59 26 q 45 63 45 37 l 45 256 q 30 274 38 273 q 7 275 22 275 q 77 320 35 286 q 172 433 118 353 q 254 401 222 417 q 308 367 285 385 l 308 533 q 245 556 269 538 q 205 605 220 574 q 148 547 179 566 q 84 517 117 528 q 14 503 52 507 m 381 281 q 257 370 315 341 q 186 392 210 392 q 176 391 180 392 l 178 71 q 211 35 194 60 q 266 75 247 62 q 306 96 286 87 l 307 321 q 381 281 333 317 m 102 874 l 150 923 q 167 931 159 931 q 185 922 174 931 l 232 872 q 239 855 239 863 q 231 837 239 846 l 184 786 q 167 774 172 774 q 150 783 157 774 l 98 841 q 92 857 92 849 q 102 874 92 865 m 349 874 l 397 923 q 414 931 406 931 q 433 922 422 931 l 479 872 q 486 855 486 863 q 478 838 486 846 l 431 786 q 414 774 420 774 q 397 783 405 774 l 346 842 q 340 857 340 849 q 349 874 340 865 z "},"å":{"ha":578,"x_min":3,"x_max":575,"o":"m 14 503 q 136 562 92 526 q 212 653 180 598 q 258 749 243 707 q 306 669 277 699 q 371 617 334 638 q 461 593 408 597 q 440 569 444 581 q 435 530 435 557 l 435 138 q 453 85 437 102 q 489 62 469 67 q 512 58 500 58 q 528 60 520 58 q 575 81 546 63 q 528 28 559 52 q 475 -27 498 3 q 446 -93 452 -58 q 429 -47 444 -65 q 371 -6 414 -28 q 308 62 328 16 q 254 31 277 52 q 213 -10 230 11 q 189 -52 197 -31 q 174 -100 180 -73 q 143 -40 163 -68 q 91 7 123 -12 q 3 29 59 26 q 45 63 45 37 l 45 256 q 30 274 38 273 q 7 275 22 275 q 77 320 35 286 q 172 433 118 353 q 254 401 222 417 q 308 367 285 385 l 308 533 q 245 556 269 538 q 205 605 220 574 q 148 547 179 566 q 84 517 117 528 q 14 503 52 507 m 381 281 q 257 370 315 341 q 186 392 210 392 q 176 391 180 392 l 178 71 q 211 35 194 60 q 266 75 247 62 q 306 96 286 87 l 307 321 q 381 281 333 317 m 220 852 q 240 804 220 824 q 288 785 260 785 q 336 804 317 785 q 356 852 356 824 q 336 900 356 880 q 288 920 316 920 q 240 900 260 920 q 220 852 220 880 m 169 852 q 203 938 169 903 q 288 972 238 972 q 375 938 340 972 q 410 852 410 903 q 375 767 410 802 q 288 732 340 732 q 203 767 238 732 q 169 852 169 802 z "},"æ":{"ha":871,"x_min":3,"x_max":868,"o":"m 14 503 q 136 562 92 526 q 212 653 180 598 q 258 749 243 707 q 306 669 277 699 q 371 617 334 638 q 461 593 408 597 q 440 569 444 581 q 435 530 435 557 l 435 138 q 453 85 437 102 q 489 62 469 67 q 512 58 500 58 q 528 60 520 58 q 575 81 546 63 q 528 28 559 52 q 475 -27 498 3 q 446 -93 452 -58 q 429 -47 444 -65 q 371 -6 414 -28 q 308 62 328 16 q 254 31 277 52 q 213 -10 230 11 q 189 -52 197 -31 q 174 -100 180 -73 q 143 -40 163 -68 q 91 7 123 -12 q 3 29 59 26 q 45 63 45 37 l 45 256 q 30 274 38 273 q 7 275 22 275 q 77 320 35 286 q 172 433 118 353 q 254 401 222 417 q 308 367 285 385 l 308 533 q 245 556 269 538 q 205 605 220 574 q 148 547 179 566 q 84 517 117 528 q 14 503 52 507 m 381 281 q 257 370 315 341 q 186 392 210 392 q 176 391 180 392 l 178 71 q 211 35 194 60 q 266 75 247 62 q 306 96 286 87 l 307 321 q 381 281 333 317 m 418 610 q 513 655 455 614 q 587 732 571 696 q 633 672 595 704 q 715 621 670 640 q 797 597 761 603 q 722 538 763 577 q 645 464 681 499 q 568 375 609 428 l 568 134 q 600 81 569 100 q 653 68 622 68 q 682 71 666 68 q 775 116 732 79 q 837 190 818 153 q 859 277 855 226 q 860 298 860 288 q 847 378 860 338 q 868 282 868 329 l 868 266 q 845 173 863 212 q 789 100 827 134 q 713 36 750 65 q 660 -12 675 7 q 642 -50 645 -32 q 642 -62 642 -56 q 645 -93 642 -76 q 574 -23 618 -54 q 489 33 530 7 q 418 65 448 60 q 444 78 437 68 q 451 115 451 87 l 450 574 q 418 610 446 603 m 508 325 q 548 384 526 358 q 614 458 569 410 q 680 528 659 505 q 614 559 642 541 q 570 604 587 577 l 570 430 q 533 386 553 419 q 508 325 513 352 z "},"ç":{"ha":457,"x_min":3,"x_max":454,"o":"m 158 134 q 188 75 161 95 q 243 60 209 60 q 267 61 254 60 q 361 112 317 67 q 423 191 405 157 q 445 277 441 226 q 446 298 446 288 q 433 378 446 338 q 454 282 454 329 l 454 266 q 432 176 449 212 q 361 86 415 140 q 282 13 307 32 q 244 -21 258 -7 q 228 -52 231 -36 q 227 -64 227 -57 q 231 -93 227 -76 q 163 -9 202 -45 q 79 43 123 26 q 3 65 34 60 q 30 78 23 68 q 37 115 37 87 l 35 574 l 35 575 q 3 610 35 599 q 101 655 37 613 q 172 732 164 696 q 219 672 183 700 q 301 622 256 644 q 382 597 347 601 q 307 537 355 587 q 224 490 261 490 l 220 490 q 267 514 243 496 q 328 574 291 532 q 259 531 304 553 q 205 553 234 536 q 158 600 176 570 l 158 134 m 90 -197 q 193 -232 148 -232 q 257 -217 238 -232 q 277 -172 277 -203 q 243 -129 277 -142 q 174 -118 216 -118 q 151 -119 163 -118 l 184 0 l 227 0 l 201 -71 q 243 -67 223 -68 q 334 -95 302 -67 q 367 -172 367 -122 q 327 -253 367 -223 q 218 -283 288 -283 q 90 -262 144 -283 l 90 -197 z "},"è":{"ha":457,"x_min":3,"x_max":454,"o":"m 3 610 q 99 655 41 614 q 172 732 157 696 q 218 672 181 704 q 301 621 256 640 q 382 597 347 603 q 308 538 349 577 q 231 464 267 499 q 154 375 195 428 l 154 134 q 186 81 155 100 q 239 68 208 68 q 267 71 252 68 q 360 116 317 79 q 422 190 404 153 q 445 277 441 226 q 446 298 446 288 q 433 378 446 338 q 454 282 454 329 l 454 266 q 431 173 449 212 q 374 100 413 134 q 298 36 336 65 q 246 -12 261 7 q 228 -50 231 -32 q 227 -62 227 -56 q 231 -93 227 -76 q 160 -23 203 -54 q 75 33 116 7 q 3 65 34 60 q 30 78 23 68 q 37 115 37 87 l 36 574 q 3 610 32 603 m 94 325 q 133 384 112 358 q 199 458 155 410 q 266 528 244 505 q 200 559 228 541 q 156 604 172 577 l 156 430 q 119 386 139 419 q 94 325 99 352 m 333 732 l 286 732 l 62 869 q 31 896 41 882 q 20 924 20 909 q 34 959 20 945 q 71 972 48 972 q 98 964 84 972 q 136 932 112 956 l 333 732 z "},"é":{"ha":457,"x_min":3,"x_max":454,"o":"m 3 610 q 99 655 41 614 q 172 732 157 696 q 218 672 181 704 q 301 621 256 640 q 382 597 347 603 q 308 538 349 577 q 231 464 267 499 q 154 375 195 428 l 154 134 q 186 81 155 100 q 239 68 208 68 q 267 71 252 68 q 360 116 317 79 q 422 190 404 153 q 445 277 441 226 q 446 298 446 288 q 433 378 446 338 q 454 282 454 329 l 454 266 q 431 173 449 212 q 374 100 413 134 q 298 36 336 65 q 246 -12 261 7 q 228 -50 231 -32 q 227 -62 227 -56 q 231 -93 227 -76 q 160 -23 203 -54 q 75 33 116 7 q 3 65 34 60 q 30 78 23 68 q 37 115 37 87 l 36 574 q 3 610 32 603 m 94 325 q 133 384 112 358 q 199 458 155 410 q 266 528 244 505 q 200 559 228 541 q 156 604 172 577 l 156 430 q 119 386 139 419 q 94 325 99 352 m 321 932 q 359 964 345 956 q 387 972 373 972 q 423 959 409 972 q 437 924 437 945 q 426 896 437 909 q 395 869 416 882 l 171 731 l 124 731 l 321 932 z "},"ê":{"ha":457,"x_min":3,"x_max":454,"o":"m 3 610 q 99 655 41 614 q 172 732 157 696 q 218 672 181 704 q 301 621 256 640 q 382 597 347 603 q 308 538 349 577 q 231 464 267 499 q 154 375 195 428 l 154 134 q 186 81 155 100 q 239 68 208 68 q 267 71 252 68 q 360 116 317 79 q 422 190 404 153 q 445 277 441 226 q 446 298 446 288 q 433 378 446 338 q 454 282 454 329 l 454 266 q 431 173 449 212 q 374 100 413 134 q 298 36 336 65 q 246 -12 261 7 q 228 -50 231 -32 q 227 -62 227 -56 q 231 -93 227 -76 q 160 -23 203 -54 q 75 33 116 7 q 3 65 34 60 q 30 78 23 68 q 37 115 37 87 l 36 574 q 3 610 32 603 m 94 325 q 133 384 112 358 q 199 458 155 410 q 266 528 244 505 q 200 559 228 541 q 156 604 172 577 l 156 430 q 119 386 139 419 q 94 325 99 352 m 31 732 l 189 972 l 269 972 l 426 732 l 387 732 l 229 878 l 71 732 l 31 732 z "},"ë":{"ha":457,"x_min":3,"x_max":454,"o":"m 3 610 q 99 655 41 614 q 172 732 157 696 q 218 672 181 704 q 301 621 256 640 q 382 597 347 603 q 308 538 349 577 q 231 464 267 499 q 154 375 195 428 l 154 134 q 186 81 155 100 q 239 68 208 68 q 267 71 252 68 q 360 116 317 79 q 422 190 404 153 q 445 277 441 226 q 446 298 446 288 q 433 378 446 338 q 454 282 454 329 l 454 266 q 431 173 449 212 q 374 100 413 134 q 298 36 336 65 q 246 -12 261 7 q 228 -50 231 -32 q 227 -62 227 -56 q 231 -93 227 -76 q 160 -23 203 -54 q 75 33 116 7 q 3 65 34 60 q 30 78 23 68 q 37 115 37 87 l 36 574 q 3 610 32 603 m 94 325 q 133 384 112 358 q 199 458 155 410 q 266 528 244 505 q 200 559 228 541 q 156 604 172 577 l 156 430 q 119 386 139 419 q 94 325 99 352 m 41 874 l 90 923 q 106 931 98 931 q 125 922 114 931 l 172 872 q 178 855 178 863 q 170 837 178 846 l 123 786 q 106 774 112 774 q 90 783 97 774 l 38 841 q 32 857 32 849 q 41 874 32 865 m 289 874 l 337 923 q 354 931 346 931 q 372 922 361 931 l 419 872 q 426 855 426 863 q 418 838 426 846 l 371 786 q 354 774 359 774 q 337 783 345 774 l 286 842 q 279 857 279 849 q 289 874 279 865 z "},"ì":{"ha":349,"x_min":-41,"x_max":321,"o":"m 222 151 q 290 34 222 34 l 321 34 l 321 0 l 22 0 l 22 34 l 53 34 q 121 151 121 34 l 121 444 q 45 496 121 496 l 13 496 l 13 526 q 190 650 163 573 l 222 650 l 222 151 m 271 732 l 224 732 l 1 869 q -31 896 -20 882 q -41 924 -41 909 q -27 959 -41 945 q 9 972 -14 972 q 36 964 22 972 q 74 932 50 956 l 271 732 z "},"í":{"ha":349,"x_min":13,"x_max":376,"o":"m 222 151 q 290 34 222 34 l 321 34 l 321 0 l 22 0 l 22 34 l 53 34 q 121 151 121 34 l 121 444 q 45 496 121 496 l 13 496 l 13 526 q 190 650 163 573 l 222 650 l 222 151 m 260 932 q 298 964 284 956 q 326 972 312 972 q 362 959 348 972 q 376 924 376 945 q 365 896 376 909 q 334 869 355 882 l 110 731 l 63 731 l 260 932 z "},"î":{"ha":349,"x_min":-30,"x_max":365,"o":"m 223 151 q 291 34 223 34 l 322 34 l 322 0 l 22 0 l 22 34 l 54 34 q 121 151 121 34 l 121 444 q 46 496 121 496 l 14 496 l 14 526 q 191 650 164 573 l 223 650 l 223 151 m -30 732 l 127 972 l 208 972 l 365 732 l 326 732 l 168 878 l 9 732 l -30 732 z "},"ï":{"ha":349,"x_min":-30,"x_max":364,"o":"m 222 151 q 290 34 222 34 l 321 34 l 321 0 l 22 0 l 22 34 l 53 34 q 121 151 121 34 l 121 444 q 45 496 121 496 l 13 496 l 13 526 q 190 650 163 573 l 222 650 l 222 151 m -20 874 l 28 923 q 45 931 37 931 q 63 922 52 931 l 110 872 q 117 855 117 863 q 109 837 117 846 l 62 786 q 45 774 50 774 q 28 783 35 774 l -24 841 q -30 857 -30 849 q -20 874 -30 865 m 227 874 l 275 923 q 292 931 284 931 q 311 922 300 931 l 357 872 q 364 855 364 863 q 356 838 364 846 l 309 786 q 292 774 298 774 q 275 783 283 774 l 224 842 q 218 857 218 849 q 227 874 218 865 z "},"ñ":{"ha":566,"x_min":3,"x_max":563,"o":"m 432 1 q 483 24 465 18 q 563 46 500 30 q 472 9 502 24 q 416 -23 442 -7 q 365 -60 390 -39 q 308 -109 339 -81 q 326 -73 317 -91 l 326 488 q 322 545 326 534 q 307 563 318 555 q 288 566 300 566 q 267 564 279 566 q 214 542 237 559 q 170 498 190 526 q 130 422 151 471 l 130 -1 q 42 -76 71 -39 q 151 -6 106 -22 q 258 26 195 9 q 168 -12 197 4 q 112 -43 138 -27 q 60 -81 85 -60 q 3 -129 35 -102 q 14 -93 12 -111 l 14 572 q 70 663 47 642 q 127 717 93 683 l 128 451 q 238 591 184 550 q 353 661 292 632 q 432 715 414 690 l 432 1 m 478 937 q 432 833 465 867 q 346 798 399 798 l 343 798 q 267 814 309 798 q 189 830 222 830 q 148 816 163 830 q 125 768 134 802 l 89 768 q 135 875 102 840 q 222 911 168 911 q 299 895 254 910 q 375 879 342 879 l 378 879 q 417 892 402 879 q 441 937 432 906 l 478 937 z "},"ò":{"ha":461,"x_min":3,"x_max":458,"o":"m 145 582 l 145 111 q 233 80 179 108 q 321 16 286 52 l 321 519 q 257 540 301 520 q 214 582 214 559 l 214 583 q 212 573 212 578 q 292 510 212 540 q 197 540 233 518 q 145 582 161 562 m 427 73 q 428 55 427 61 q 435 40 430 48 q 455 24 440 33 q 435 26 448 26 q 394 22 419 26 q 330 0 352 14 q 293 -28 307 -13 q 266 -62 278 -43 q 248 -111 254 -81 q 214 -51 241 -80 q 151 -5 186 -22 q 76 14 116 12 q 63 15 69 15 q 3 3 30 15 q 23 41 20 14 l 23 557 q 8 577 22 572 q 217 695 176 635 q 306 628 229 667 q 435 595 371 595 q 458 595 447 595 q 433 570 439 587 q 427 532 427 554 l 427 527 l 427 73 m 335 732 l 288 732 l 64 869 q 33 896 43 882 q 22 924 22 909 q 36 959 22 945 q 73 972 50 972 q 100 964 86 972 q 138 932 114 956 l 335 732 z "},"ó":{"ha":461,"x_min":3,"x_max":458,"o":"m 145 582 l 145 111 q 233 80 179 108 q 321 16 286 52 l 321 519 q 257 540 301 520 q 214 582 214 559 l 214 583 q 212 573 212 578 q 292 510 212 540 q 197 540 233 518 q 145 582 161 562 m 427 73 q 428 55 427 61 q 435 40 430 48 q 455 24 440 33 q 435 26 448 26 q 394 22 419 26 q 330 0 352 14 q 293 -28 307 -13 q 266 -62 278 -43 q 248 -111 254 -81 q 214 -51 241 -80 q 151 -5 186 -22 q 76 14 116 12 q 63 15 69 15 q 3 3 30 15 q 23 41 20 14 l 23 557 q 8 577 22 572 q 217 695 176 635 q 306 628 229 667 q 435 595 371 595 q 458 595 447 595 q 433 570 439 587 q 427 532 427 554 l 427 527 l 427 73 m 323 932 q 361 964 347 956 q 389 972 375 972 q 425 959 411 972 q 439 924 439 945 q 428 896 439 909 q 397 869 418 882 l 173 731 l 126 731 l 323 932 z "},"ô":{"ha":461,"x_min":3,"x_max":458,"o":"m 145 582 l 145 111 q 233 80 179 108 q 321 16 286 52 l 321 519 q 257 540 301 520 q 214 582 214 559 l 214 583 q 212 573 212 578 q 292 510 212 540 q 197 540 233 518 q 145 582 161 562 m 427 73 q 428 55 427 61 q 435 40 430 48 q 455 24 440 33 q 435 26 448 26 q 394 22 419 26 q 330 0 352 14 q 293 -28 307 -13 q 266 -62 278 -43 q 248 -111 254 -81 q 214 -51 241 -80 q 151 -5 186 -22 q 76 14 116 12 q 63 15 69 15 q 3 3 30 15 q 23 41 20 14 l 23 557 q 8 577 22 572 q 217 695 176 635 q 306 628 229 667 q 435 595 371 595 q 458 595 447 595 q 433 570 439 587 q 427 532 427 554 l 427 527 l 427 73 m 33 732 l 191 972 l 271 972 l 428 732 l 389 732 l 231 878 l 73 732 l 33 732 z "},"õ":{"ha":461,"x_min":3,"x_max":458,"o":"m 145 582 l 145 111 q 233 80 179 108 q 321 16 286 52 l 321 519 q 257 540 301 520 q 214 582 214 559 l 214 583 q 212 573 212 578 q 292 510 212 540 q 197 540 233 518 q 145 582 161 562 m 427 73 q 428 55 427 61 q 435 40 430 48 q 455 24 440 33 q 435 26 448 26 q 394 22 419 26 q 330 0 352 14 q 293 -28 307 -13 q 266 -62 278 -43 q 248 -111 254 -81 q 214 -51 241 -80 q 151 -5 186 -22 q 76 14 116 12 q 63 15 69 15 q 3 3 30 15 q 23 41 20 14 l 23 557 q 8 577 22 572 q 217 695 176 635 q 306 628 229 667 q 435 595 371 595 q 458 595 447 595 q 433 570 439 587 q 427 532 427 554 l 427 527 l 427 73 m 425 937 q 379 833 412 867 q 293 798 346 798 l 290 798 q 214 814 256 798 q 136 830 169 830 q 95 816 110 830 q 73 768 81 802 l 36 768 q 82 875 49 840 q 170 911 115 911 q 246 895 201 910 q 322 879 290 879 l 325 879 q 364 892 349 879 q 389 937 379 906 l 425 937 z "},"ö":{"ha":461,"x_min":3,"x_max":458,"o":"m 145 582 l 145 111 q 233 80 179 108 q 321 16 286 52 l 321 519 q 257 540 301 520 q 214 582 214 559 l 214 583 q 212 573 212 578 q 292 510 212 540 q 197 540 233 518 q 145 582 161 562 m 427 73 q 428 55 427 61 q 435 40 430 48 q 455 24 440 33 q 435 26 448 26 q 394 22 419 26 q 330 0 352 14 q 293 -28 307 -13 q 266 -62 278 -43 q 248 -111 254 -81 q 214 -51 241 -80 q 151 -5 186 -22 q 76 14 116 12 q 63 15 69 15 q 3 3 30 15 q 23 41 20 14 l 23 557 q 8 577 22 572 q 217 695 176 635 q 306 628 229 667 q 435 595 371 595 q 458 595 447 595 q 433 570 439 587 q 427 532 427 554 l 427 527 l 427 73 m 43 874 l 92 923 q 109 931 100 931 q 127 922 116 931 l 174 872 q 180 855 180 863 q 172 837 180 846 l 125 786 q 109 774 114 774 q 92 783 99 774 l 40 841 q 34 857 34 849 q 43 874 34 865 m 291 874 l 339 923 q 356 931 348 931 q 374 922 363 931 l 421 872 q 428 855 428 863 q 420 838 428 846 l 373 786 q 356 774 361 774 q 339 783 347 774 l 288 842 q 281 857 281 849 q 291 874 281 865 z "},"÷":{"ha":688,"x_min":59,"x_max":629,"o":"m 59 439 l 59 534 l 628 534 l 629 533 l 629 439 l 59 439 m 270 277 l 326 334 q 345 343 336 343 q 366 332 354 343 l 420 274 q 429 254 429 263 q 419 233 429 244 l 365 174 q 345 160 351 160 q 326 170 334 160 l 266 238 q 259 256 259 247 q 270 277 259 266 m 270 747 l 326 804 q 345 813 336 813 q 366 802 354 813 l 420 744 q 429 724 429 733 q 419 703 429 714 l 365 644 q 345 630 351 630 q 326 640 334 630 l 266 708 q 259 726 259 717 q 270 747 259 736 z "},"ø":{"ha":461,"x_min":3,"x_max":458,"o":"m 145 582 l 145 111 q 233 80 179 108 q 321 16 286 52 l 321 519 q 257 540 301 520 q 214 582 214 559 l 214 583 q 212 573 212 578 q 292 510 212 540 q 197 540 233 518 q 145 582 161 562 m 427 73 q 428 55 427 61 q 435 40 430 48 q 455 24 440 33 q 435 26 448 26 q 394 22 419 26 q 330 0 352 14 q 293 -28 307 -13 q 266 -62 278 -43 q 248 -111 254 -81 q 214 -51 241 -80 q 151 -5 186 -22 q 76 14 116 12 q 63 15 69 15 q 3 3 30 15 q 23 41 20 14 l 23 557 q 8 577 22 572 q 217 695 176 635 q 306 628 229 667 q 435 595 371 595 q 458 595 447 595 q 433 570 439 587 q 427 532 427 554 l 427 527 l 427 73 m 75 -34 l 20 -34 l 387 972 l 441 972 l 75 -34 z "},"ù":{"ha":616,"x_min":3,"x_max":612,"o":"m 3 581 q 63 598 31 581 q 116 642 96 615 q 144 701 136 669 q 162 639 151 664 q 193 600 172 614 q 250 587 210 587 l 262 587 q 187 561 216 561 q 177 562 182 561 q 115 591 147 568 q 203 539 146 553 l 203 121 q 235 72 212 85 q 279 60 256 60 q 286 60 282 60 q 332 77 311 62 q 355 129 353 92 l 355 536 q 330 582 344 569 q 289 600 317 594 q 342 613 324 604 q 383 643 360 623 q 415 687 406 663 q 447 644 424 661 q 489 619 470 626 q 564 612 508 612 q 488 562 513 602 l 488 117 q 514 75 488 89 q 542 68 527 68 q 568 73 554 68 q 612 149 595 85 q 574 46 608 90 q 517 -22 541 3 q 494 -79 494 -47 q 430 -37 457 -62 q 389 11 403 -11 q 372 56 374 32 q 443 143 420 83 q 369 75 413 96 q 298 28 325 54 q 260 -24 272 1 q 250 -66 250 -45 l 250 -73 q 169 -31 206 -62 q 106 27 132 0 q 56 96 80 55 l 84 93 l 84 572 q 47 568 62 568 l 40 568 q 3 581 23 569 m 412 732 l 366 732 l 142 869 q 110 896 121 882 q 100 924 100 909 q 114 959 100 945 q 150 972 127 972 q 177 964 163 972 q 215 932 191 956 l 412 732 z "},"ú":{"ha":616,"x_min":3,"x_max":612,"o":"m 3 581 q 63 598 31 581 q 116 642 96 615 q 144 701 136 669 q 162 639 151 664 q 193 600 172 614 q 250 587 210 587 l 262 587 q 187 561 216 561 q 177 562 182 561 q 115 591 147 568 q 203 539 146 553 l 203 121 q 235 72 212 85 q 279 60 256 60 q 286 60 282 60 q 332 77 311 62 q 355 129 353 92 l 355 536 q 330 582 344 569 q 289 600 317 594 q 342 613 324 604 q 383 643 360 623 q 415 687 406 663 q 447 644 424 661 q 489 619 470 626 q 564 612 508 612 q 488 562 513 602 l 488 117 q 514 75 488 89 q 542 68 527 68 q 568 73 554 68 q 612 149 595 85 q 574 46 608 90 q 517 -22 541 3 q 494 -79 494 -47 q 430 -37 457 -62 q 389 11 403 -11 q 372 56 374 32 q 443 143 420 83 q 369 75 413 96 q 298 28 325 54 q 260 -24 272 1 q 250 -66 250 -45 l 250 -73 q 169 -31 206 -62 q 106 27 132 0 q 56 96 80 55 l 84 93 l 84 572 q 47 568 62 568 l 40 568 q 3 581 23 569 m 401 932 q 438 964 425 956 q 466 972 452 972 q 502 959 488 972 q 516 924 516 945 q 506 896 516 909 q 474 869 495 882 l 250 731 l 203 731 l 401 932 z "},"û":{"ha":616,"x_min":3,"x_max":612,"o":"m 3 581 q 63 598 31 581 q 116 642 96 615 q 144 701 136 669 q 162 639 151 664 q 193 600 172 614 q 250 587 210 587 l 262 587 q 187 561 216 561 q 177 562 182 561 q 115 591 147 568 q 203 539 146 553 l 203 121 q 235 72 212 85 q 279 60 256 60 q 286 60 282 60 q 332 77 311 62 q 355 129 353 92 l 355 536 q 330 582 344 569 q 289 600 317 594 q 342 613 324 604 q 383 643 360 623 q 415 687 406 663 q 447 644 424 661 q 489 619 470 626 q 564 612 508 612 q 488 562 513 602 l 488 117 q 514 75 488 89 q 542 68 527 68 q 568 73 554 68 q 612 149 595 85 q 574 46 608 90 q 517 -22 541 3 q 494 -79 494 -47 q 430 -37 457 -62 q 389 11 403 -11 q 372 56 374 32 q 443 143 420 83 q 369 75 413 96 q 298 28 325 54 q 260 -24 272 1 q 250 -66 250 -45 l 250 -73 q 169 -31 206 -62 q 106 27 132 0 q 56 96 80 55 l 84 93 l 84 572 q 47 568 62 568 l 40 568 q 3 581 23 569 m 111 732 l 268 972 l 348 972 l 505 732 l 466 732 l 308 878 l 150 732 l 111 732 z "},"ü":{"ha":616,"x_min":3,"x_max":612,"o":"m 3 581 q 63 598 31 581 q 116 642 96 615 q 144 701 136 669 q 162 639 151 664 q 193 600 172 614 q 250 587 210 587 l 262 587 q 187 561 216 561 q 177 562 182 561 q 115 591 147 568 q 203 539 146 553 l 203 121 q 235 72 212 85 q 279 60 256 60 q 286 60 282 60 q 332 77 311 62 q 355 129 353 92 l 355 536 q 330 582 344 569 q 289 600 317 594 q 342 613 324 604 q 383 643 360 623 q 415 687 406 663 q 447 644 424 661 q 489 619 470 626 q 564 612 508 612 q 488 562 513 602 l 488 117 q 514 75 488 89 q 542 68 527 68 q 568 73 554 68 q 612 149 595 85 q 574 46 608 90 q 517 -22 541 3 q 494 -79 494 -47 q 430 -37 457 -62 q 389 11 403 -11 q 372 56 374 32 q 443 143 420 83 q 369 75 413 96 q 298 28 325 54 q 260 -24 272 1 q 250 -66 250 -45 l 250 -73 q 169 -31 206 -62 q 106 27 132 0 q 56 96 80 55 l 84 93 l 84 572 q 47 568 62 568 l 40 568 q 3 581 23 569 m 121 874 l 169 923 q 186 931 178 931 q 204 922 193 931 l 251 872 q 258 855 258 863 q 250 837 258 846 l 203 786 q 186 774 191 774 q 169 783 176 774 l 117 841 q 111 857 111 849 q 121 874 111 865 m 368 874 l 416 923 q 433 931 425 931 q 452 922 441 931 l 498 872 q 505 855 505 863 q 497 838 505 846 l 450 786 q 433 774 439 774 q 416 783 424 774 l 365 842 q 359 857 359 849 q 368 874 359 865 z "},"ý":{"ha":566,"x_min":3,"x_max":563,"o":"m 486 -256 q 502 -296 486 -286 q 445 -316 480 -296 q 375 -374 410 -335 q 325 -471 340 -414 q 326 -465 326 -468 q 307 -422 326 -446 q 233 -378 284 -397 q 158 -363 194 -363 q 137 -365 147 -363 q 57 -392 92 -370 q 3 -463 23 -414 q 67 -364 6 -418 q 159 -254 127 -310 q 208 -139 190 -199 q 182 -241 195 -210 q 145 -308 169 -273 q 204 -232 167 -294 q 280 -245 250 -234 q 338 -274 311 -256 q 383 -313 365 -291 l 383 44 q 425 71 395 45 q 469 143 454 96 q 395 75 439 96 q 324 28 351 54 q 286 -24 298 1 q 276 -66 276 -45 l 276 -73 q 195 -31 232 -62 q 132 27 157 0 q 82 96 106 55 l 110 93 l 110 572 q 73 568 87 568 l 66 568 q 29 581 49 569 q 89 598 57 581 q 142 642 121 615 q 170 701 162 669 q 188 639 177 664 q 218 600 198 614 q 276 587 236 587 l 288 587 q 213 561 241 561 q 203 562 208 561 q 141 591 173 568 q 229 539 172 553 l 229 121 q 261 72 237 85 q 305 60 282 60 q 311 60 308 60 q 358 77 337 62 q 381 129 378 92 l 381 536 q 356 582 370 569 q 315 600 342 594 q 368 613 350 604 q 409 643 386 623 q 441 687 431 663 q 459 644 450 661 q 488 619 469 626 q 563 612 507 612 q 487 562 512 602 l 486 -256 m 376 932 q 414 964 400 956 q 441 972 428 972 q 478 959 464 972 q 492 924 492 945 q 481 896 492 909 q 450 869 471 882 l 226 731 l 179 731 l 376 932 z "},"þ":{"ha":593,"x_min":3,"x_max":590,"o":"m 277 576 l 277 105 q 365 74 311 102 q 453 11 418 46 l 453 514 q 389 534 433 515 q 346 576 346 554 l 346 577 q 344 568 344 572 q 424 505 344 534 q 330 535 366 513 q 277 576 294 557 m 276 -11 l 276 -244 q 322 -211 298 -224 q 375 -186 346 -198 q 307 -240 336 -210 q 251 -316 279 -271 q 205 -398 224 -361 q 171 -482 187 -435 q 155 -455 167 -470 q 126 -426 142 -439 q 94 -406 111 -412 q 68 -402 82 -402 q 58 -403 62 -402 q 3 -429 37 -405 q 34 -398 13 -411 q 73 -384 56 -385 l 77 -384 q 113 -389 94 -384 q 148 -343 133 -360 q 184 -305 163 -326 q 240 -266 206 -284 q 156 -307 192 -273 l 156 551 q 140 572 154 567 q 349 690 308 629 q 438 623 361 661 q 568 589 503 589 q 590 590 579 589 q 565 564 571 582 q 559 526 559 549 l 559 522 l 559 68 q 561 49 559 56 q 567 35 562 43 q 587 18 572 27 q 568 20 580 20 q 526 16 551 20 q 462 -5 484 8 q 425 -34 439 -18 q 398 -68 410 -49 q 380 -117 386 -87 q 346 -57 373 -85 q 277 -11 319 -28 l 276 -11 m 118 836 l 127 836 q 216 862 172 836 l 216 -73 q 262 -93 245 -81 q 291 -109 279 -106 l 349 -87 q 290 -129 316 -106 q 245 -171 264 -151 q 219 -208 227 -190 q 211 -242 211 -226 q 164 -192 193 -208 q 111 -169 136 -176 q 81 -165 97 -165 q 56 -168 69 -165 q 98 -124 73 -151 l 99 732 q 86 792 98 768 q 52 834 75 816 q 3 868 28 852 q 73 859 36 859 q 85 859 79 859 q 169 877 128 861 q 245 923 209 893 q 303 1014 282 954 q 256 913 302 963 q 118 836 210 863 z "},"ÿ":{"ha":566,"x_min":3,"x_max":563,"o":"m 486 -256 q 502 -296 486 -286 q 445 -316 480 -296 q 375 -374 410 -335 q 325 -471 340 -414 q 326 -465 326 -468 q 307 -422 326 -446 q 233 -378 284 -397 q 158 -363 194 -363 q 137 -365 147 -363 q 57 -392 92 -370 q 3 -463 23 -414 q 67 -364 6 -418 q 159 -254 127 -310 q 208 -139 190 -199 q 182 -241 195 -210 q 145 -308 169 -273 q 204 -232 167 -294 q 280 -245 250 -234 q 338 -274 311 -256 q 383 -313 365 -291 l 383 44 q 425 71 395 45 q 469 143 454 96 q 395 75 439 96 q 324 28 351 54 q 286 -24 298 1 q 276 -66 276 -45 l 276 -73 q 195 -31 232 -62 q 132 27 157 0 q 82 96 106 55 l 110 93 l 110 572 q 73 568 87 568 l 66 568 q 29 581 49 569 q 89 598 57 581 q 142 642 121 615 q 170 701 162 669 q 188 639 177 664 q 218 600 198 614 q 276 587 236 587 l 288 587 q 213 561 241 561 q 203 562 208 561 q 141 591 173 568 q 229 539 172 553 l 229 121 q 261 72 237 85 q 305 60 282 60 q 311 60 308 60 q 358 77 337 62 q 381 129 378 92 l 381 536 q 356 582 370 569 q 315 600 342 594 q 368 613 350 604 q 409 643 386 623 q 441 687 431 663 q 459 644 450 661 q 488 619 469 626 q 563 612 507 612 q 487 562 512 602 l 486 -256 m 96 874 l 144 923 q 161 931 153 931 q 179 922 168 931 l 226 872 q 233 855 233 863 q 224 837 233 846 l 178 786 q 161 774 166 774 q 144 783 151 774 l 92 841 q 86 857 86 849 q 96 874 86 865 m 343 874 l 391 923 q 408 931 400 931 q 427 922 416 931 l 473 872 q 480 855 480 863 q 472 838 480 846 l 425 786 q 408 774 414 774 q 391 783 399 774 l 340 842 q 334 857 334 849 q 343 874 334 865 z "},"ı":{"ha":349,"x_min":13,"x_max":321,"o":"m 222 151 q 290 34 222 34 l 321 34 l 321 0 l 22 0 l 22 34 l 53 34 q 121 151 121 34 l 121 444 q 45 496 121 496 l 13 496 l 13 526 q 190 650 163 573 l 222 650 l 222 151 z "},"ˆ":{"ha":694,"x_min":150,"x_max":545,"o":"m 150 732 l 307 972 l 387 972 l 545 732 l 505 732 l 347 878 l 189 732 l 150 732 z "},"ˇ":{"ha":694,"x_min":150,"x_max":545,"o":"m 150 972 l 189 972 l 347 827 l 505 972 l 545 972 l 387 731 l 307 731 l 150 972 z "},"ˉ":{"ha":694,"x_min":172,"x_max":522,"o":"m 172 810 l 172 895 l 522 895 l 522 810 l 172 810 z "},"˘":{"ha":694,"x_min":149,"x_max":545,"o":"m 149 915 l 183 915 q 234 842 195 865 q 347 819 273 819 q 460 842 421 819 q 510 915 498 865 l 545 915 q 481 778 531 825 q 347 732 431 732 q 214 779 264 732 q 149 915 163 825 z "},"˙":{"ha":694,"x_min":277,"x_max":422,"o":"m 286 874 l 333 923 q 342 929 337 927 q 351 931 347 931 q 360 929 355 931 q 368 923 364 927 l 416 871 q 421 865 420 869 q 422 855 422 861 q 420 845 422 849 q 415 837 419 841 l 367 785 q 356 776 359 778 q 351 774 353 774 q 340 776 345 774 q 333 782 336 778 l 282 841 q 278 847 279 844 q 277 857 277 851 q 279 865 277 861 q 286 874 281 869 z "},"˚":{"ha":694,"x_min":227,"x_max":468,"o":"m 279 852 q 298 804 279 824 q 347 785 318 785 q 395 804 375 785 q 414 852 414 824 q 394 900 414 880 q 347 920 374 920 q 299 900 319 920 q 279 852 279 880 m 227 852 q 262 938 227 903 q 347 972 296 972 q 433 938 398 972 q 468 852 468 903 q 433 767 468 802 q 347 732 398 732 q 262 767 296 732 q 227 852 227 802 z "},"˛":{"ha":694,"x_min":250,"x_max":500,"o":"m 434 0 q 359 -81 386 -42 q 332 -157 332 -120 q 351 -208 332 -189 q 400 -227 369 -227 q 447 -217 427 -227 q 481 -184 467 -206 l 500 -195 q 438 -260 475 -237 q 357 -283 401 -283 q 280 -259 310 -283 q 250 -198 250 -235 q 291 -92 250 -146 q 401 0 332 -37 l 434 0 z "},"˜":{"ha":694,"x_min":159,"x_max":548,"o":"m 548 937 q 502 833 534 867 q 416 798 469 798 l 413 798 q 336 814 379 798 q 259 830 292 830 q 218 816 233 830 q 195 768 203 802 l 159 768 q 205 875 172 840 q 292 911 238 911 q 369 895 323 910 q 445 879 412 879 l 448 879 q 487 892 472 879 q 511 937 502 906 l 548 937 z "},"˝":{"ha":694,"x_min":147,"x_max":547,"o":"m 147 732 l 245 917 q 276 960 261 947 q 307 972 290 972 q 340 959 326 972 q 353 927 353 945 q 346 903 353 916 q 326 876 339 890 l 186 732 l 147 732 m 340 732 l 438 917 q 469 960 454 947 q 500 972 484 972 q 533 959 519 972 q 547 927 547 945 q 539 903 547 916 q 519 876 532 890 l 380 732 l 340 732 z "},"–":{"ha":751,"x_min":38,"x_max":713,"o":"m 38 284 l 38 366 l 713 366 l 713 284 l 38 284 z "},"—":{"ha":1389,"x_min":0,"x_max":1389,"o":"m 0 284 l 0 366 l 1389 366 l 1389 284 l 0 284 z "},"‘":{"ha":378,"x_min":126,"x_max":297,"o":"m 216 689 q 156 733 186 689 q 126 836 126 778 q 174 990 126 910 q 269 1069 222 1069 l 269 1040 q 210 911 219 1011 q 297 802 210 831 l 297 774 l 216 689 z "},"’":{"ha":378,"x_min":81,"x_max":252,"o":"m 161 1069 q 221 1025 191 1069 q 252 922 252 981 q 203 769 252 848 q 109 689 155 689 l 109 718 q 168 847 159 747 q 81 956 168 928 l 81 985 l 161 1069 z "},"‚":{"ha":378,"x_min":81,"x_max":252,"o":"m 161 191 q 221 146 191 191 q 252 43 252 102 q 203 -110 252 -31 q 109 -190 155 -190 l 109 -161 q 168 -32 159 -132 q 81 77 168 49 l 81 106 l 161 191 z "},"“":{"ha":617,"x_min":126,"x_max":536,"o":"m 216 689 q 156 733 186 689 q 126 836 126 778 q 174 990 126 910 q 269 1069 222 1069 l 269 1040 q 210 911 219 1011 q 297 802 210 831 l 297 774 l 216 689 m 456 689 q 396 733 426 689 q 366 836 366 778 q 414 990 366 910 q 508 1069 462 1069 l 508 1040 q 449 911 458 1011 q 536 802 449 831 l 536 774 l 456 689 z "},"”":{"ha":617,"x_min":81,"x_max":491,"o":"m 161 1069 q 221 1025 191 1069 q 252 922 252 981 q 203 769 252 848 q 109 689 155 689 l 109 718 q 168 847 159 747 q 81 956 168 928 l 81 985 l 161 1069 m 401 1069 q 461 1025 431 1069 q 491 922 491 981 q 443 769 491 848 q 349 689 395 689 l 349 718 q 408 847 398 747 q 320 956 408 928 l 320 985 l 401 1069 z "},"„":{"ha":617,"x_min":81,"x_max":491,"o":"m 161 191 q 221 146 191 191 q 252 43 252 102 q 203 -110 252 -31 q 109 -190 155 -190 l 109 -161 q 168 -32 159 -132 q 81 77 168 49 l 81 106 l 161 191 m 401 191 q 461 146 431 191 q 491 43 491 102 q 443 -110 491 -31 q 349 -190 395 -190 l 349 -161 q 408 -32 398 -132 q 320 77 408 49 l 320 106 l 401 191 z "},"†":{"ha":688,"x_min":48,"x_max":640,"o":"m 330 693 q 293 814 324 759 q 254 901 254 882 q 279 955 254 935 q 344 975 303 975 q 408 956 382 975 q 433 907 433 937 q 396 814 433 886 q 359 693 365 757 q 479 730 424 699 q 566 768 547 768 q 620 744 600 768 q 640 679 640 720 q 622 615 640 640 q 572 589 603 589 q 480 627 551 589 q 359 665 422 658 q 433 477 364 546 q 357 -183 361 165 l 332 -183 q 254 477 328 165 q 330 665 323 546 q 209 628 264 659 q 121 589 140 589 q 68 614 88 589 q 48 679 48 638 q 67 743 48 718 q 115 768 85 768 q 208 730 137 768 q 330 693 266 699 z "},"‡":{"ha":688,"x_min":47,"x_max":640,"o":"m 358 126 q 479 165 422 134 q 572 202 550 202 q 621 177 602 202 q 640 113 640 151 q 619 47 640 72 q 566 23 599 23 q 478 62 547 23 q 358 98 423 93 q 395 -23 364 35 q 433 -116 433 -94 q 407 -164 433 -146 q 343 -183 382 -183 q 278 -163 302 -183 q 254 -110 254 -143 q 292 -22 254 -91 q 329 98 323 33 q 208 61 265 92 q 115 23 136 23 q 66 48 85 23 q 47 113 47 74 q 67 178 47 153 q 121 202 87 202 q 208 163 140 202 q 329 126 264 133 q 254 396 323 279 q 329 665 323 512 q 208 628 264 659 q 121 589 140 589 q 67 614 87 589 q 47 679 47 638 q 66 743 47 718 q 115 768 85 768 q 208 730 136 768 q 329 693 265 699 q 292 814 323 759 q 254 901 254 882 q 278 955 254 935 q 343 975 302 975 q 407 956 382 975 q 433 907 433 937 q 395 814 433 886 q 358 693 364 757 q 478 730 423 699 q 566 768 547 768 q 619 744 599 768 q 640 679 640 720 q 621 615 640 640 q 572 589 602 589 q 479 627 550 589 q 358 665 422 658 q 433 396 363 512 q 358 126 363 279 z "},"•":{"ha":694,"x_min":146,"x_max":548,"o":"m 146 487 q 205 629 146 570 q 348 687 264 687 q 489 628 431 687 q 548 487 548 570 q 489 345 548 404 q 347 286 429 286 q 205 345 263 286 q 146 487 146 404 z "},"…":{"ha":1389,"x_min":87,"x_max":1183,"o":"m 98 113 l 154 170 q 174 180 164 180 q 195 169 182 180 l 249 111 q 257 91 257 100 q 248 70 257 81 l 193 10 q 174 -3 180 -3 q 154 6 163 -3 l 94 75 q 87 92 87 83 q 98 113 87 102 m 562 113 l 617 170 q 637 180 627 180 q 658 169 646 180 l 712 111 q 720 91 720 100 q 711 70 720 81 l 656 10 q 637 -3 643 -3 q 617 6 626 -3 l 557 75 q 551 92 551 83 q 562 113 551 102 m 1025 113 l 1080 170 q 1100 180 1090 180 q 1121 169 1109 180 l 1175 111 q 1183 91 1183 100 q 1174 70 1183 81 l 1120 10 q 1100 -3 1106 -3 q 1080 6 1089 -3 l 1021 75 q 1014 92 1014 83 q 1025 113 1014 102 z "},"‹":{"ha":428,"x_min":118,"x_max":359,"o":"m 118 325 l 350 530 l 359 530 l 359 505 l 220 325 l 359 144 l 359 119 l 350 119 l 118 325 z "},"›":{"ha":428,"x_min":68,"x_max":310,"o":"m 78 119 l 68 119 l 68 144 l 208 325 l 68 505 l 68 530 l 78 530 l 310 325 l 78 119 z "},"⁄":{"ha":232,"x_min":-232,"x_max":463,"o":"m -232 -20 l 406 971 l 463 971 l -174 -20 l -232 -20 z "},"∕":{"ha":232,"x_min":-232,"x_max":463,"o":"m -232 -20 l 406 971 l 463 971 l -174 -20 l -232 -20 z "},"₣":{"ha":688,"x_min":33,"x_max":723,"o":"m 168 242 l 36 242 l 36 283 l 168 283 l 168 779 q 98 939 168 939 l 33 939 l 33 972 l 653 972 l 723 816 l 690 816 q 561 939 650 939 l 347 939 q 277 779 277 939 l 277 541 l 522 541 q 590 583 590 541 l 590 623 l 624 623 l 624 391 l 590 391 l 590 431 q 522 473 590 473 l 277 473 l 277 283 l 409 283 l 409 242 l 277 242 l 277 193 q 347 34 277 34 l 412 34 l 412 0 l 33 0 l 33 34 l 98 34 q 168 193 168 34 l 168 242 z "},"₤":{"ha":688,"x_min":52,"x_max":635,"o":"m 507 913 q 399 935 458 935 l 397 935 q 269 866 330 935 q 212 703 212 803 q 212 682 212 692 q 235 538 212 610 l 492 538 l 492 497 l 248 497 q 266 456 256 477 l 505 456 l 505 416 l 287 416 q 311 322 311 373 q 201 68 311 213 l 473 68 q 602 157 562 68 l 635 157 l 565 0 l 77 0 l 78 34 q 205 317 205 195 q 182 414 205 370 l 180 416 l 64 416 l 64 456 l 161 456 q 143 497 151 477 l 52 497 l 52 538 l 128 538 q 104 669 104 610 q 188 904 104 822 q 398 986 271 986 q 524 977 449 986 q 599 954 599 967 l 599 844 l 559 844 q 507 913 556 886 z "},"₧":{"ha":1375,"x_min":33,"x_max":1334,"o":"m 277 939 l 277 490 q 282 478 279 484 q 355 374 310 409 q 434 345 394 345 q 447 345 441 345 q 533 396 493 351 q 592 516 573 441 q 607 637 607 575 q 606 669 607 654 q 573 818 602 748 q 499 916 544 887 q 423 939 461 939 q 409 939 416 939 l 277 939 m 1015 616 l 893 616 l 893 151 q 916 71 893 96 q 971 45 935 50 l 923 176 l 956 176 q 1034 58 994 88 q 1120 28 1072 28 l 1124 28 q 1227 64 1187 28 q 1267 156 1267 100 q 1091 309 1267 225 q 994 385 1023 345 q 964 484 964 426 q 1014 615 964 566 l 1015 616 m 705 617 q 672 486 700 549 q 576 365 638 408 q 448 322 515 322 q 318 366 380 322 q 277 400 296 380 l 277 193 q 347 34 277 34 l 412 34 l 412 0 l 33 0 l 33 34 l 98 34 q 168 193 168 34 l 168 779 q 98 939 168 939 l 33 939 l 33 972 l 452 972 q 574 930 514 971 q 671 810 636 888 q 706 650 705 734 l 713 650 q 859 890 859 650 l 893 890 l 893 650 l 1069 650 q 1143 663 1097 663 l 1145 663 q 1235 654 1181 663 q 1289 631 1289 645 l 1289 524 l 1261 524 q 1216 597 1258 568 q 1126 625 1175 625 q 1056 601 1082 625 q 1030 535 1030 576 q 1190 386 1030 462 q 1303 306 1272 349 q 1334 202 1334 264 q 1278 45 1334 107 q 1123 -13 1208 -12 q 1052 -5 1084 -13 q 1014 -1 1033 -1 q 989 -3 1002 -1 q 949 -7 970 -7 q 832 32 865 -7 q 793 151 798 71 l 792 151 l 792 617 l 705 617 z "},"€":{"ha":688,"x_min":-30,"x_max":724,"o":"m 95 252 q 43 443 53 344 l -30 443 l -18 484 l 41 484 l 41 503 q 41 524 41 514 l -7 524 l 5 565 l 44 565 q 96 755 54 663 q 249 941 151 876 q 451 1006 347 1006 q 510 1001 480 1006 q 566 981 537 994 q 576 977 571 977 q 600 1008 590 977 l 627 1008 l 684 817 l 657 817 q 564 937 624 907 q 509 959 534 952 l 509 961 q 440 972 475 972 q 417 970 429 972 q 264 893 336 962 q 157 708 192 825 q 131 565 136 637 l 610 565 l 598 524 l 129 524 q 130 484 129 504 l 587 484 l 576 443 l 134 443 q 190 241 145 336 q 321 81 240 134 q 467 34 390 35 q 641 96 593 36 q 691 221 691 157 l 724 221 l 724 124 q 648 38 724 77 q 467 0 577 1 q 247 66 345 0 q 95 252 149 133 z "},"™":{"ha":670,"x_min":3,"x_max":667,"o":"m 133 473 q 119 479 124 479 q 116 479 117 479 q 103 457 109 475 q 100 435 100 447 q 103 411 100 424 q 126 365 108 382 q 163 344 145 348 q 172 343 167 343 q 202 353 186 343 q 237 387 222 365 q 261 467 253 409 q 243 361 255 402 q 205 307 230 320 q 180 300 193 300 q 153 306 167 300 q 113 351 125 320 q 96 412 100 382 q 94 444 94 429 q 95 466 94 456 q 106 511 98 492 q 127 543 113 529 q 147 553 138 553 q 152 552 150 553 q 174 538 163 548 q 156 500 165 524 q 147 450 148 475 q 133 473 141 464 m 151 568 q 119 551 135 568 q 96 509 103 534 q 87 449 89 484 q 84 478 84 464 q 85 494 84 486 q 92 531 87 514 q 97 566 96 547 l 97 854 q 87 878 96 870 q 121 897 98 883 q 168 938 145 910 q 204 1010 190 965 q 221 978 207 995 q 240 950 236 961 q 220 929 231 947 q 208 905 209 912 q 191 926 197 922 q 197 937 195 932 q 201 949 199 942 q 204 973 203 957 q 197 951 199 958 q 184 929 194 943 l 184 929 q 160 904 169 915 q 151 868 151 892 l 151 568 m 49 892 q 19 940 42 924 q 38 879 38 908 q 22 919 33 903 q 4 937 11 934 q 31 1001 25 957 q 69 967 42 976 q 105 962 85 962 q 131 964 117 962 q 190 997 166 969 q 151 938 167 955 q 120 911 135 921 q 95 898 104 900 q 67 892 85 896 l 57 917 l 49 892 m 497 845 l 498 575 q 535 596 520 589 q 511 578 521 586 q 490 560 501 570 q 468 537 479 550 q 444 507 457 524 q 451 530 447 519 l 451 871 q 450 905 451 899 q 443 916 448 912 q 438 919 440 919 q 434 918 436 919 q 421 907 429 914 q 402 881 412 901 q 381 839 391 861 l 381 450 q 406 475 396 468 q 421 485 415 483 q 389 445 400 464 q 366 397 377 425 q 347 349 355 369 q 333 305 339 328 q 323 329 329 320 q 309 344 317 337 q 298 352 302 351 q 295 353 296 353 q 285 351 291 353 q 261 337 277 348 q 280 356 269 347 q 298 365 291 365 q 311 360 305 365 q 317 380 314 373 q 323 396 320 387 l 322 925 q 357 977 347 965 q 382 1010 367 989 l 381 850 q 434 936 411 908 q 471 979 458 964 q 497 1009 484 994 l 497 855 q 548 936 526 909 q 585 979 572 964 q 610 1009 598 994 l 611 669 q 632 682 624 679 q 667 696 640 686 q 628 673 640 682 q 604 653 615 663 q 579 631 592 644 q 555 604 566 618 q 565 624 558 614 l 565 871 q 563 905 565 899 q 557 916 562 912 q 551 919 554 919 q 547 918 549 919 q 534 907 542 914 q 515 881 526 901 q 497 845 506 864 z "},"∂":{"ha":688,"x_min":52,"x_max":635,"o":"m 157 364 q 161 311 157 336 q 202 155 170 228 q 283 43 235 81 q 370 7 326 7 q 378 7 374 7 q 465 55 426 11 q 519 177 504 100 q 530 278 530 227 q 527 336 530 307 q 485 493 517 418 q 404 605 452 567 q 317 639 359 639 l 309 639 q 224 592 263 635 q 168 471 184 548 q 157 364 157 414 m 635 323 q 597 153 635 234 q 489 28 559 73 q 344 -17 420 -17 q 198 28 268 -17 q 91 153 129 73 q 52 323 52 234 q 92 494 52 412 q 201 619 131 575 q 344 663 271 663 q 488 619 418 663 q 524 591 507 607 q 366 847 467 751 q 144 952 264 943 l 144 989 q 494 796 352 989 q 635 323 635 603 z "},"∆":{"ha":733,"x_min":4,"x_max":728,"o":"m 349 810 l 73 83 l 616 83 l 349 810 m 371 972 l 728 0 l 4 0 l 371 972 z "},"∏":{"ha":1027,"x_min":33,"x_max":995,"o":"m 347 939 q 277 779 277 939 l 277 -90 q 347 -249 277 -249 l 412 -249 l 412 -283 l 33 -283 l 33 -249 l 98 -249 q 168 -90 168 -249 l 168 779 q 98 939 168 939 l 33 939 l 33 972 l 995 972 l 995 939 l 929 939 q 860 779 860 939 l 860 -90 q 929 -249 860 -249 l 995 -249 l 995 -283 l 615 -283 l 615 -249 l 680 -249 q 750 -90 750 -249 l 750 779 q 680 939 750 939 l 347 939 z "},"∑":{"ha":818,"x_min":81,"x_max":776,"o":"m 718 372 l 184 -248 l 614 -248 q 743 -125 703 -248 l 776 -125 l 706 -282 l 81 -282 l 81 -248 q 153 -212 123 -248 l 603 317 l 153 900 q 81 939 123 939 l 81 972 l 706 972 l 776 815 l 743 815 q 614 939 703 939 l 286 939 l 718 372 z "},"−":{"ha":688,"x_min":59,"x_max":629,"o":"m 59 439 l 59 534 l 628 534 l 629 533 l 629 439 l 59 439 z "},"√":{"ha":688,"x_min":12,"x_max":715,"o":"m 123 0 l 12 243 l 62 267 l 119 142 l 613 1139 l 715 1139 l 715 1098 l 666 1098 l 123 0 z "},"∞":{"ha":688,"x_min":45,"x_max":645,"o":"m 298 512 q 248 602 288 582 q 191 617 216 617 q 175 616 182 617 q 112 586 142 609 q 68 528 83 562 q 54 467 54 497 l 54 462 q 73 401 56 429 q 121 362 90 374 q 163 355 141 355 q 185 357 174 355 q 247 386 217 363 q 298 512 276 409 m 316 466 q 380 362 324 401 q 463 330 427 330 q 477 331 471 330 q 557 366 519 339 q 614 435 595 393 q 632 508 632 471 l 632 515 q 608 589 631 556 q 546 635 585 622 q 494 644 521 644 q 465 642 479 644 q 378 600 419 635 q 316 466 338 564 m 305 561 q 319 608 311 585 q 384 701 342 667 q 471 734 425 734 q 557 701 516 734 q 622 610 599 669 q 645 486 645 551 q 622 363 645 422 q 557 271 599 304 q 471 239 516 239 q 384 272 425 239 q 319 364 342 305 q 305 412 311 388 q 297 384 302 397 q 247 307 279 334 q 180 280 215 280 q 112 308 144 280 q 62 385 79 336 q 45 486 45 434 q 62 587 45 538 q 112 665 79 637 q 180 692 144 692 q 247 665 215 692 q 297 589 279 638 q 305 561 302 575 z "},"∫":{"ha":451,"x_min":-49,"x_max":492,"o":"m -8 -191 q -49 -171 -49 -191 l -49 -63 l -24 -63 q -1 -107 -24 -92 q 42 -121 22 -121 l 43 -121 q 121 -12 98 -121 q 148 203 142 98 l 195 701 l 201 743 q 292 1034 219 904 q 451 1164 366 1164 q 492 1144 492 1164 l 492 1036 l 467 1036 q 444 1080 467 1065 q 401 1095 420 1095 q 322 989 353 1095 q 289 743 292 884 l 239 222 q 151 -62 226 66 q -8 -191 76 -191 z "},"≈":{"ha":688,"x_min":64,"x_max":626,"o":"m 626 714 l 626 608 q 543 542 583 559 q 465 525 503 525 q 344 558 424 525 q 224 591 264 591 q 152 572 190 591 q 64 496 113 553 l 64 602 q 147 669 107 651 q 224 686 187 686 q 348 653 268 686 q 465 619 427 619 q 538 638 500 619 q 626 714 576 657 m 626 478 l 626 372 q 543 306 583 323 q 465 289 503 289 q 344 322 424 289 q 224 355 264 355 q 152 336 190 355 q 64 260 113 317 l 64 366 q 147 433 107 415 q 224 450 187 450 q 348 417 268 450 q 465 383 427 383 q 538 402 500 383 q 626 478 576 421 z "},"≤":{"ha":688,"x_min":59,"x_max":629,"o":"m 629 728 l 205 485 l 629 244 l 629 131 l 59 457 l 59 513 l 629 842 l 629 728 m 59 1 l 59 96 l 628 96 l 629 95 l 629 1 l 59 1 z "},"≥":{"ha":688,"x_min":59,"x_max":629,"o":"m 59 842 l 629 513 l 629 457 l 59 131 l 59 244 l 483 485 l 59 728 l 59 842 m 59 1 l 59 96 l 628 96 l 629 96 l 629 1 l 59 1 z "}}}
